<svg width="300" height="292" viewBox="0 0 300 292" fill="none" xmlns="http://www.w3.org/2000/svg">
<path d="M69.1613 85.1178L5.71765 121.744V48.1846L69.1613 11.5647V85.1178Z" fill="white"/>
<path d="M4.47107 122.462L5.7111 123.206L70.4013 85.8619L69.1613 85.1179L4.47107 122.462Z" fill="#FAFAFA"/>
<path d="M72.7508 6.76782L3.3681 46.8272V127.272L72.7508 87.2129V6.76782ZM70.4013 85.8619L5.71763 123.206V48.1847L70.4013 10.8338V85.8619Z" fill="#F0F0F0"/>
<path d="M70.4013 85.8621L69.1613 85.1181V11.5649L70.4013 10.834V85.8621Z" fill="#E0E0E0"/>
<path d="M72.7508 6.76796L71.4847 6.05005L2.10199 46.1029L3.36812 46.8273L72.7508 6.76796Z" fill="#FAFAFA"/>
<path d="M2.10199 46.103L3.36812 46.8275V127.273L2.10199 126.548V46.103Z" fill="#E0E0E0"/>
<path d="M6.74884 83.0752V84.5372L70.4013 47.7345L69.1613 46.9905L6.74884 83.0752Z" fill="#FAFAFA"/>
<path d="M36.0591 30.6743L37.3187 29.9434V104.971L36.0591 104.247V30.6743Z" fill="#E0E0E0"/>
<path d="M39.6682 28.5925L37.3187 29.9435V104.972L39.6682 103.614V28.5925Z" fill="#F0F0F0"/>
<path d="M70.4013 47.7344V50.4429L5.69153 87.9439V85.2354L70.4013 47.7344Z" fill="#F0F0F0"/>
<path d="M37.3187 66.9092L36.0591 66.1326L5.71112 83.6691V85.2355L37.3187 66.9092Z" fill="#FAFAFA"/>
<path d="M82.436 34.4859L83.4868 35.1125L105.011 22.6861L103.96 22.0596L82.436 34.4859Z" fill="#FAFAFA"/>
<path d="M103.96 22.0594L83.4868 33.8788V16.4662L103.96 4.65332V22.0594Z" fill="white"/>
<path d="M106.989 0.606934L81.5354 15.3241V38.5387L106.989 23.828V0.606934ZM105.031 22.6859L83.4933 35.0862V16.4662L105.031 4.06595V22.6859Z" fill="#F0F0F0"/>
<path d="M105.011 22.6859L103.96 22.0593V4.65328L105.011 4.03979V22.6859Z" fill="#E0E0E0"/>
<path d="M106.989 0.60696L105.925 0L80.439 14.7106L81.5028 15.3241L106.989 0.60696Z" fill="#FAFAFA"/>
<path d="M80.439 14.7107L81.5028 15.3242V38.5388L80.439 37.9318V14.7107Z" fill="#E0E0E0"/>
<path d="M103.164 21.4134L84.283 32.3191V30.8964L89.0016 19.9972L91.9451 22.7253L91.5339 25.251L97.4077 13.3533L103.164 19.9972V21.4134Z" fill="#F0F0F0"/>
<path d="M91.7689 14.7369C91.3618 15.0003 91.0229 15.3566 90.7801 15.7763C90.5374 16.1961 90.3976 16.6674 90.3722 17.1517C90.3722 18.0458 90.9922 18.4048 91.7689 17.961C92.1757 17.6957 92.5143 17.3382 92.7569 16.9174C92.9996 16.4967 93.1396 16.0247 93.1655 15.5396C93.1655 14.652 92.539 14.2931 91.7689 14.7369Z" fill="#F0F0F0"/>
<path d="M82.5862 70.6229L83.6369 71.2494L105.168 58.8231L104.117 58.1965L82.5862 70.6229Z" fill="#FAFAFA"/>
<path d="M104.117 58.1963L83.6369 70.0157V52.6032L104.117 40.7903V58.1963Z" fill="white"/>
<path d="M107.145 36.7439L81.6921 51.461V74.6756L107.145 59.965V36.7439ZM105.187 58.8229L83.65 71.2231V52.6032L105.187 40.2029V58.8229Z" fill="#F0F0F0"/>
<path d="M105.168 58.8228L104.117 58.1963V40.7902L105.168 40.1768V58.8228Z" fill="#E0E0E0"/>
<path d="M107.145 36.7439L106.081 36.137L80.5956 50.8541L81.6594 51.4611L107.145 36.7439Z" fill="#FAFAFA"/>
<path d="M80.5956 50.854L81.6594 51.461V74.6756L80.5956 74.0686V50.854Z" fill="#E0E0E0"/>
<path d="M103.314 57.5567L84.4397 68.4559V67.0331L89.1583 56.1339L92.0952 58.862L91.6906 61.3877L97.5579 49.49L103.314 56.1339V57.5567Z" fill="#F0F0F0"/>
<path d="M91.919 50.8737C91.5121 51.139 91.1736 51.4965 90.9309 51.9172C90.6882 52.3379 90.5482 52.81 90.5223 53.295C90.5223 54.1826 91.175 54.5416 91.919 54.0978C92.325 53.8331 92.663 53.4766 92.9056 53.0571C93.1483 52.6376 93.2887 52.1669 93.3157 51.683C93.3157 50.7888 92.6891 50.4299 91.919 50.8737Z" fill="#F0F0F0"/>
<path d="M191.963 82.912L190.514 83.78L167.939 70.7467L169.388 69.8787L191.963 82.912Z" fill="#FAFAFA"/>
<path d="M169.388 69.8786L190.514 82.07V27.3653L169.388 15.1804V69.8786Z" fill="white"/>
<path d="M165.205 72.3262L193.268 88.5183V25.7795L165.205 9.5874V72.3262ZM167.92 14.3321L190.495 27.385V83.7997L167.92 70.7468V14.3321Z" fill="#F0F0F0"/>
<path d="M167.939 70.7467L169.388 69.8787V15.1805L167.939 14.332V70.7467Z" fill="#E0E0E0"/>
<path d="M165.198 9.58727L166.673 8.74536L194.724 24.9375L193.249 25.7794L165.198 9.58727Z" fill="#FAFAFA"/>
<path d="M194.724 24.9377L193.249 25.7797V88.525L194.724 87.6765V24.9377Z" fill="#E0E0E0"/>
<path d="M171.516 68.1883L188.4 77.9323V29.9302L171.516 20.1797V68.1883Z" fill="#F0F0F0"/>
<path d="M171.516 68.1883L188.4 77.9323V29.9302L171.516 20.1797V68.1883Z" fill="#F0F0F0"/>
<path d="M188.4 61.3227C187.616 61.5949 186.807 61.7852 185.985 61.8905C183.237 62.2836 180.437 62.1036 177.761 61.3618C175.719 60.7875 173.676 59.8999 171.516 60.3437V68.1754L173.8 69.4807C174.604 68.1836 175.674 67.0715 176.939 66.2175C180.202 64.2008 183.524 65.715 186.866 65.4343C187.383 65.386 187.896 65.2965 188.4 65.1667V61.3227Z" fill="#FAFAFA"/>
<path d="M188.4 53.3405C184.621 52.6878 180.744 52.3028 178.049 49.0134C175.875 46.3637 174.857 42.1998 174.133 38.0555C173.408 33.9112 172.925 29.5711 171.555 25.9098C171.555 25.8706 171.522 25.838 171.509 25.7988V50.8212C171.718 51.2194 171.933 51.6175 172.162 51.996C174.642 56.1795 178.297 59.2861 182.474 58.5681C184.431 58.2288 186.455 57.0801 188.4 56.6102V53.3405Z" fill="#FAFAFA"/>
<path d="M188.4 43.1658C185.502 40.2355 183.949 34.7663 184.66 29.147C184.712 28.7293 184.777 28.3116 184.849 27.9005L178.362 24.1282C178.362 24.7351 178.408 25.3356 178.421 25.9425C178.486 29.4603 178.421 33.0629 178.949 36.3849C179.876 41.9454 182.656 46.3834 186.35 48.2043C187.005 48.5226 187.695 48.7635 188.406 48.9222L188.4 43.1658Z" fill="#FAFAFA"/>
<path d="M220.177 219.765L286.766 258.167V182.414L220.177 219.765Z" fill="#E0E0E0"/>
<g opacity="0.15">
<path d="M220.177 219.765L286.766 258.167V182.414L220.177 219.765Z" fill="black"/>
</g>
<path d="M223.329 29.0493V217.997L289.899 256.392V67.4444L223.329 29.0493ZM251.458 128.865L231.376 117.254V41.5083L251.458 53.1189V128.865ZM280.631 145.697L260.478 134.099V58.3466L280.631 69.9245V145.697Z" fill="#455A64"/>
<path d="M260.478 134.125L258.304 135.385L280.631 148.242V145.697L260.478 134.125Z" fill="#263238"/>
<path d="M231.376 117.287L229.196 118.546L251.458 131.41L253.631 130.15L231.376 117.287Z" fill="#263238"/>
<path d="M231.376 117.287V41.5084L229.19 40.2488L229.196 118.547L231.376 117.287Z" fill="#37474F"/>
<path d="M258.304 135.385L251.458 131.41V53.145L258.304 57.1196V135.385Z" fill="#455A64"/>
<path d="M258.304 135.385L260.478 134.125V58.3464L258.304 57.1194V135.385Z" fill="#37474F"/>
<path opacity="0.1" d="M258.304 145.847L280.631 158.697V239.39L258.304 226.533V145.847Z" fill="black"/>
<path d="M259.838 150.924L277.107 160.857V233.157L259.838 223.224V150.924Z" fill="#455A64"/>
<path d="M280.631 158.697L277.107 160.858V233.158L280.631 239.39V158.697Z" fill="#37474F"/>
<path d="M258.304 145.847L259.838 150.924V223.224L258.304 226.533V145.847Z" fill="#37474F"/>
<path d="M258.304 226.533L259.838 223.224L277.107 233.157L280.631 239.39L258.304 226.533Z" fill="#263238"/>
<path opacity="0.1" d="M229.19 129.002L251.458 141.865L251.452 222.558L229.19 209.695V129.002Z" fill="black"/>
<path d="M230.724 134.079L247.934 144.026V216.326L230.724 206.386V134.079Z" fill="#455A64"/>
<path d="M251.458 141.865L247.934 144.026V216.326L251.452 222.559L251.458 141.865Z" fill="#37474F"/>
<path d="M229.19 129.002L230.724 134.079V206.386L229.19 209.695V129.002Z" fill="#37474F"/>
<path d="M229.19 209.695L230.724 206.386L247.934 216.326L251.452 222.559L229.19 209.695Z" fill="#263238"/>
<path d="M287.882 150.513L286.766 151.159L286.76 169.681L287.882 169.035V150.513Z" fill="#E0E0E0"/>
<path d="M286.766 151.159L280.749 147.687V166.209L286.76 169.681L286.766 151.159Z" fill="#FAFAFA"/>
<path opacity="0.05" d="M280.749 152.81L283.359 154.331V157.34C283.36 157.402 283.343 157.464 283.312 157.519C283.281 157.573 283.236 157.618 283.182 157.65C283.128 157.682 283.066 157.699 283.003 157.699C282.941 157.7 282.879 157.684 282.824 157.653L280.729 156.439L280.749 152.81Z" fill="black"/>
<path d="M280.749 147.687L281.865 147.041L287.882 150.513L286.766 151.159L280.749 147.687Z" fill="#EBEBEB"/>
<path d="M284.456 153.685L281.695 155.277L280.592 153.359L283.353 151.766C283.443 151.727 283.541 151.712 283.638 151.723C283.735 151.733 283.828 151.768 283.908 151.825C284.134 151.973 284.323 152.173 284.457 152.408C284.592 152.642 284.67 152.905 284.684 153.176C284.695 153.273 284.679 153.372 284.639 153.461C284.599 153.551 284.536 153.628 284.456 153.685Z" fill="#E0E0E0"/>
<path opacity="0.1" d="M283.379 154.305L282.381 154.886V153.568L281.31 152.948L282.315 152.367L283.379 152.987V154.305Z" fill="black"/>
<path d="M282.048 153.77L282.041 156.668L271.011 150.298V147.406L282.048 153.77Z" fill="#FAFAFA"/>
<path d="M282.048 153.77L283.046 153.196V156.087L282.041 156.668L282.048 153.77Z" fill="#E0E0E0"/>
<path d="M271.011 147.407L272.016 146.826L283.046 153.195L282.048 153.77L271.011 147.407Z" fill="#EBEBEB"/>
<path d="M284.743 161.843C284.724 161.491 284.622 161.149 284.447 160.844C284.271 160.539 284.026 160.28 283.732 160.087C283.17 159.761 282.713 160.022 282.713 160.668C282.743 161.202 282.961 161.708 283.327 162.097V163.99C283.334 164.108 283.368 164.223 283.429 164.326C283.489 164.428 283.572 164.514 283.673 164.577L283.79 164.649C283.98 164.76 284.13 164.649 284.13 164.453V162.561C284.515 162.6 284.743 162.319 284.743 161.843Z" fill="#455A64"/>
<path d="M231.376 41.5083L251.458 53.145V128.891L231.376 117.287V41.5083Z" fill="#FF3D3D"/>
<path opacity="0.4" d="M231.376 41.5083L251.458 53.145V128.891L231.376 117.287V41.5083Z" fill="white"/>
<path d="M260.478 58.3464L280.631 69.9439V145.696L260.478 134.132V58.3464Z" fill="#FF3D3D"/>
<path opacity="0.4" d="M260.478 58.3464L280.631 69.9439V145.696L260.478 134.132V58.3464Z" fill="white"/>
<path opacity="0.2" d="M246.061 50.0186L231.376 64.7032V68.5603L248.502 51.4349L246.061 50.0186ZM237.198 44.8823L231.376 50.7039V58.6597L242.236 47.7996L237.198 44.8823ZM245.03 125.158L251.458 118.742V114.885L242.582 123.761L245.03 125.158ZM260.484 58.3268V58.5291L260.615 58.4051L260.484 58.3268ZM239.365 121.881L251.458 109.807V105.95L236.917 120.491L239.365 121.881ZM265.921 61.453L260.484 66.8895V70.7532L268.368 62.8627L265.921 61.453ZM275.058 66.6742L260.517 81.2151V89.1708L280.096 69.5915L275.058 66.6742ZM231.415 87.6175L251.458 67.5748V57.5241L231.376 77.606L231.415 87.6175ZM260.517 132.121L280.671 111.968V101.95L260.478 122.136L260.517 132.121ZM266.228 137.343L280.671 122.9V119.042L263.774 135.933L266.228 137.343ZM260.478 109.736L280.631 89.569V85.7118L260.478 105.866V109.736ZM231.376 117.3L232.029 117.678L251.458 98.2295V90.2738L231.376 110.388V117.3ZM275.547 142.792L280.631 137.708V129.739L270.496 139.875L275.547 142.792ZM231.376 99.8873L251.458 79.7923V75.9352L231.376 96.0301V99.8873ZM260.478 96.9438V100.801L280.631 80.6473V76.7771L260.478 96.9438Z" fill="white"/>
<path d="M293.084 254.558L289.912 256.392V67.4443L293.084 65.6169V254.558Z" fill="#263238"/>
<path d="M226.494 27.2153L293.084 65.617L289.912 67.4444L223.329 29.0493L226.494 27.2153Z" fill="#37474F"/>
<path d="M223.329 217.996L220.177 219.765V27.2283L223.323 29.0426L223.329 217.996Z" fill="#E0E0E0"/>
<path d="M220.177 219.765L210.544 214.198V10.5403L296.412 60.063V263.708L286.766 258.167V65.6301L220.183 27.2284L220.177 219.765Z" fill="#F5F5F5"/>
<path d="M211.196 11.6691L295.76 60.4412V262.585L287.419 257.788V65.2577L287.093 65.0685L220.523 26.6668L219.544 26.1056V218.636L211.216 213.826V11.6691M210.563 10.54V214.204L220.196 219.765V27.2346L286.766 65.6363V258.167L296.412 263.708V60.0823L210.544 10.5334L210.563 10.54Z" fill="#E0E0E0"/>
<path d="M210.544 10.5401L296.412 60.0629L299.506 58.2681L213.637 8.74536L210.544 10.5401Z" fill="#FAFAFA"/>
<path d="M296.412 263.708V60.0628L299.506 58.2681V261.926L296.412 263.708Z" fill="#E0E0E0"/>
<path d="M181.175 213.506C176.489 208.67 173.735 196.505 178.303 192.667H201.57C206.139 196.505 203.391 208.657 198.705 213.5L198.581 213.63L198.418 213.793C198.287 213.924 198.144 214.048 197.993 214.172L197.883 214.263C197.765 214.355 197.654 214.446 197.53 214.531C197.335 214.673 197.133 214.804 196.923 214.922C193.066 217.174 186.814 217.174 182.957 214.922C182.744 214.805 182.539 214.674 182.343 214.531L182.017 214.276L181.88 214.165C181.73 214.048 181.599 213.924 181.469 213.8L181.286 213.617L181.175 213.506Z" fill="#EBEBEB"/>
<path d="M199.553 191.153C204.859 194.247 204.859 199.272 199.553 202.372C194.247 205.472 185.632 205.472 180.326 202.372C175.02 199.272 175.02 194.247 180.326 191.153C185.632 188.06 194.241 188.053 199.553 191.153Z" fill="#FAFAFA"/>
<path d="M196.995 192.622C200.911 194.899 200.911 198.587 196.995 200.865C193.079 203.142 186.781 203.142 182.878 200.865C178.975 198.587 178.962 194.899 182.878 192.622C186.794 190.344 193.099 190.363 196.995 192.622Z" fill="#E0E0E0"/>
<path d="M182.878 196.538C186.794 194.266 193.099 194.266 196.995 196.538C197.941 197.056 198.744 197.8 199.331 198.704C198.744 199.609 197.941 200.353 196.995 200.871C193.079 203.149 186.781 203.149 182.878 200.871C181.933 200.355 181.132 199.61 180.548 198.704C181.132 197.799 181.933 197.054 182.878 196.538Z" fill="#EBEBEB"/>
<path d="M188.373 165.524C186.592 167.482 181.638 167.991 179.582 162.77C177.657 157.875 175.582 153.235 175.014 151.433C174.93 151.199 174.895 150.95 174.91 150.701C174.925 150.453 174.99 150.21 175.1 149.987C175.211 149.764 175.366 149.565 175.555 149.404C175.744 149.242 175.964 149.12 176.202 149.045C176.202 149.045 176.345 146.356 180.901 148.177C185.456 149.997 188.674 152.745 190.69 157.242C192.707 161.739 191.415 164.923 188.373 165.524Z" fill="#E0E0E0"/>
<path opacity="0.45" d="M188.373 165.524C186.592 167.482 181.638 167.991 179.582 162.77C177.657 157.875 175.582 153.235 175.014 151.433C174.93 151.199 174.895 150.95 174.91 150.701C174.925 150.453 174.99 150.21 175.1 149.987C175.211 149.764 175.366 149.565 175.555 149.404C175.744 149.242 175.964 149.12 176.202 149.045C176.202 149.045 176.345 146.356 180.901 148.177C185.456 149.997 188.674 152.745 190.69 157.242C192.707 161.739 191.415 164.923 188.373 165.524Z" fill="white"/>
<path d="M190.344 172.429C190.267 171.515 190.136 170.606 189.953 169.707C189.576 167.922 189.07 166.166 188.439 164.453C187.158 160.966 185.38 157.682 183.159 154.703C181.926 153.006 180.536 151.428 179.008 149.991C178.962 149.952 178.923 150.056 178.956 150.089C184.067 155.418 187.615 162.049 189.215 169.257C189.444 170.249 189.653 171.247 189.835 172.246C190.018 173.245 190.129 174.289 190.299 175.307C190.299 175.411 190.475 175.47 190.482 175.307C190.51 174.345 190.464 173.383 190.344 172.429Z" fill="#E0E0E0"/>
<path opacity="0.1" d="M190.344 172.429C190.267 171.515 190.136 170.606 189.953 169.707C189.576 167.922 189.07 166.166 188.439 164.453C187.158 160.966 185.38 157.682 183.159 154.703C181.926 153.006 180.536 151.428 179.008 149.991C178.962 149.952 178.923 150.056 178.956 150.089C184.067 155.418 187.615 162.049 189.215 169.257C189.444 170.249 189.653 171.247 189.835 172.246C190.018 173.245 190.129 174.289 190.299 175.307C190.299 175.411 190.475 175.47 190.482 175.307C190.51 174.345 190.464 173.383 190.344 172.429Z" fill="black"/>
<path d="M191.872 164.173C187.773 165.439 184.732 162.215 185.789 157.235C186.846 152.255 192.107 146.656 194.091 148.15C195.337 146.91 198.072 147.354 199.357 151.414C200.643 155.473 199.475 165.948 191.872 164.173Z" fill="#E0E0E0"/>
<path opacity="0.25" d="M191.872 164.173C187.773 165.439 184.732 162.215 185.789 157.235C186.846 152.255 192.107 146.656 194.091 148.15C195.337 146.91 198.072 147.354 199.357 151.414C200.643 155.473 199.475 165.948 191.872 164.173Z" fill="white"/>
<path d="M194.273 151.198C193.109 154.117 192.199 157.13 191.552 160.205C190.853 163.317 190.326 166.465 189.972 169.635C189.31 175.771 189.036 181.942 189.15 188.112C189.15 189.815 189.183 191.519 189.215 193.222C189.248 194.926 189.215 196.753 189.372 198.502C189.431 199.155 190.384 198.991 190.397 198.378C190.455 195.311 190.286 192.224 190.253 189.156C190.22 186.089 190.253 183.087 190.312 180.052C190.416 173.87 190.97 167.703 191.97 161.601C192.263 159.898 192.59 158.201 192.981 156.524C193.373 154.847 193.908 153.019 194.371 151.27C194.391 151.198 194.313 151.107 194.273 151.198Z" fill="#E0E0E0"/>
<path opacity="0.1" d="M194.273 151.198C193.109 154.117 192.199 157.13 191.552 160.205C190.853 163.317 190.326 166.465 189.972 169.635C189.31 175.771 189.036 181.942 189.15 188.112C189.15 189.815 189.183 191.519 189.215 193.222C189.248 194.926 189.215 196.753 189.372 198.502C189.431 199.155 190.384 198.991 190.397 198.378C190.455 195.311 190.286 192.224 190.253 189.156C190.22 186.089 190.253 183.087 190.312 180.052C190.416 173.87 190.97 167.703 191.97 161.601C192.263 159.898 192.59 158.201 192.981 156.524C193.373 154.847 193.908 153.019 194.371 151.27C194.391 151.198 194.313 151.107 194.273 151.198Z" fill="black"/>
<path d="M185.208 178.87C183.42 180.893 179.334 180.717 176.574 177.102C173.813 173.486 172.168 159.898 176.038 160.785C176.861 158.971 187.551 163.331 188.922 172.194C189.92 178.622 185.208 178.87 185.208 178.87Z" fill="#E0E0E0"/>
<path opacity="0.25" d="M185.208 178.87C183.42 180.893 179.334 180.717 176.574 177.102C173.813 173.486 172.168 159.898 176.038 160.785C176.861 158.971 187.551 163.331 188.922 172.194C189.92 178.622 185.208 178.87 185.208 178.87Z" fill="white"/>
<path d="M188.406 185.286C188.285 184.451 188.109 183.624 187.877 182.812C187.431 181.148 186.9 179.508 186.285 177.898C185.018 174.616 183.417 171.474 181.508 168.519C180.481 166.853 179.35 165.253 178.12 163.729C178.088 163.69 178.055 163.781 178.075 163.814C179.028 165.204 179.994 166.581 180.855 168.037C181.717 169.492 182.545 171.11 183.276 172.696C184.698 175.761 185.878 178.932 186.807 182.179C187.068 183.1 187.284 184.033 187.551 184.953C187.819 185.873 188.204 186.839 188.432 187.805C188.465 187.942 188.648 187.994 188.628 187.805C188.543 186.95 188.517 186.095 188.406 185.286Z" fill="#E0E0E0"/>
<path opacity="0.1" d="M188.406 185.286C188.285 184.451 188.109 183.624 187.877 182.812C187.431 181.148 186.9 179.508 186.285 177.898C185.018 174.616 183.417 171.474 181.508 168.519C180.481 166.853 179.35 165.253 178.12 163.729C178.088 163.69 178.055 163.781 178.075 163.814C179.028 165.204 179.994 166.581 180.855 168.037C181.717 169.492 182.545 171.11 183.276 172.696C184.698 175.761 185.878 178.932 186.807 182.179C187.068 183.1 187.284 184.033 187.551 184.953C187.819 185.873 188.204 186.839 188.432 187.805C188.465 187.942 188.648 187.994 188.628 187.805C188.543 186.95 188.517 186.095 188.406 185.286Z" fill="black"/>
<path d="M191.754 176.86C189.411 176.325 189.294 173.519 192.224 170.066C195.154 166.614 202.516 165.113 202.869 166.568C204.507 166.568 204.507 171.698 200.878 176.41C197.249 181.122 191.97 180.026 191.754 176.86Z" fill="#E0E0E0"/>
<path opacity="0.25" d="M191.754 176.86C189.411 176.325 189.294 173.519 192.224 170.066C195.154 166.614 202.516 165.113 202.869 166.568C204.507 166.568 204.507 171.698 200.878 176.41C197.249 181.122 191.97 180.026 191.754 176.86Z" fill="white"/>
<path d="M196.336 171.848C193.242 174.003 190.88 177.052 189.568 180.587C189.49 180.789 189.835 181.083 189.92 180.861C191.248 177.364 193.464 174.274 196.349 171.894C196.349 171.894 196.368 171.822 196.336 171.848Z" fill="#E0E0E0"/>
<path opacity="0.1" d="M196.336 171.848C193.242 174.003 190.88 177.052 189.568 180.587C189.49 180.789 189.835 181.083 189.92 180.861C191.248 177.364 193.464 174.274 196.349 171.894C196.349 171.894 196.368 171.822 196.336 171.848Z" fill="black"/>
<path d="M194.423 193.979C191.16 195.284 192.577 199.148 195.729 202.085C198.461 204.456 201.98 205.722 205.597 205.635C207.77 205.479 208.331 205.178 208.331 205.178C208.526 203.396 208.526 201.597 208.331 199.814C207.983 197.853 207.076 196.035 205.721 194.577C204.365 193.118 202.618 192.082 200.689 191.59C195.637 190.22 194.423 192.054 194.423 193.979Z" fill="#E0E0E0"/>
<path opacity="0.45" d="M194.423 193.979C191.16 195.284 192.577 199.148 195.729 202.085C198.461 204.456 201.98 205.722 205.597 205.635C207.77 205.479 208.331 205.178 208.331 205.178C208.526 203.396 208.526 201.597 208.331 199.814C207.983 197.853 207.076 196.035 205.721 194.577C204.365 193.118 202.618 192.082 200.689 191.59C195.637 190.22 194.423 192.054 194.423 193.979Z" fill="white"/>
<path d="M203.397 199.677C201.947 197.947 200.28 196.411 198.437 195.108C196.59 193.894 194.13 192.857 191.911 193.614C191.056 193.907 189.718 194.762 189.881 195.826C189.881 195.93 190.083 196.192 190.207 196.048C190.55 195.556 190.942 195.099 191.376 194.684C191.886 194.311 192.489 194.086 193.118 194.031C194.71 193.914 196.3 194.273 197.687 195.062C199.88 196.224 201.648 198.032 203.391 199.755C203.391 199.748 203.417 199.696 203.397 199.677Z" fill="#E0E0E0"/>
<path opacity="0.1" d="M203.397 199.677C201.947 197.947 200.28 196.411 198.437 195.108C196.59 193.894 194.13 192.857 191.911 193.614C191.056 193.907 189.718 194.762 189.881 195.826C189.881 195.93 190.083 196.192 190.207 196.048C190.55 195.556 190.942 195.099 191.376 194.684C191.886 194.311 192.489 194.086 193.118 194.031C194.71 193.914 196.3 194.273 197.687 195.062C199.88 196.224 201.648 198.032 203.391 199.755C203.391 199.748 203.417 199.696 203.397 199.677Z" fill="black"/>
<path d="M182.089 177.382C182.395 175.907 180.261 172.377 173.604 171.698C166.947 171.019 161.98 173.839 160.975 175.124C159.97 176.41 159.468 177.768 160.675 178.107C161.883 178.446 166.027 178.844 168.755 180.104C171.483 181.364 177.024 185.064 180.803 183.961C184.582 182.858 183.968 178.851 182.089 177.382Z" fill="#E0E0E0"/>
<path opacity="0.45" d="M182.089 177.382C182.395 175.907 180.261 172.377 173.604 171.698C166.947 171.019 161.98 173.839 160.975 175.124C159.97 176.41 159.468 177.768 160.675 178.107C161.883 178.446 166.027 178.844 168.755 180.104C171.483 181.364 177.024 185.064 180.803 183.961C184.582 182.858 183.968 178.851 182.089 177.382Z" fill="white"/>
<path d="M187.14 182.525C184.334 176.736 177.109 175 171.183 175C169.24 175.006 167.306 175.256 165.426 175.744C165.426 175.744 165.394 175.816 165.426 175.816C168.608 175.275 171.855 175.242 175.046 175.718C178.205 176.13 181.219 177.291 183.838 179.105C185.108 180.059 186.176 181.258 186.977 182.63C187.088 182.78 187.192 182.649 187.14 182.525Z" fill="#E0E0E0"/>
<path opacity="0.1" d="M187.14 182.525C184.334 176.736 177.109 175 171.183 175C169.24 175.006 167.306 175.256 165.426 175.744C165.426 175.744 165.394 175.816 165.426 175.816C168.608 175.275 171.855 175.242 175.046 175.718C178.205 176.13 181.219 177.291 183.838 179.105C185.108 180.059 186.176 181.258 186.977 182.63C187.088 182.78 187.192 182.649 187.14 182.525Z" fill="black"/>
<path d="M197.569 169.629C197.484 171.952 200.754 173.303 203.92 171.293C207.085 169.283 210.4 167.325 213.337 166.568C216.274 165.811 217.658 163.416 216.731 162.261C215.804 161.105 214.329 158.182 206.621 159.134C198.914 160.087 196.179 163.566 195.122 166.02C194.065 168.474 196.408 170.301 197.569 169.629Z" fill="#E0E0E0"/>
<path opacity="0.45" d="M197.569 169.629C197.484 171.952 200.754 173.303 203.92 171.293C207.085 169.283 210.4 167.325 213.337 166.568C216.274 165.811 217.658 163.416 216.731 162.261C215.804 161.105 214.329 158.182 206.621 159.134C198.914 160.087 196.179 163.566 195.122 166.02C194.065 168.474 196.408 170.301 197.569 169.629Z" fill="white"/>
<path d="M210.12 162.254C209.005 162.144 207.879 162.261 206.811 162.6C205.837 162.849 204.889 163.188 203.978 163.611C202.163 164.458 200.526 165.643 199.155 167.103C198.766 167.514 198.404 167.95 198.072 168.408C197.732 168.817 197.453 169.272 197.243 169.759C197.191 169.909 197.419 170.157 197.55 170.001C197.935 169.564 198.202 169.022 198.581 168.559C198.964 168.061 199.378 167.588 199.821 167.142C200.712 166.244 201.709 165.457 202.79 164.799C203.822 164.159 204.915 163.623 206.054 163.2C206.706 162.972 207.326 162.783 207.972 162.619C208.653 162.413 209.363 162.316 210.074 162.332C210.133 162.339 210.152 162.254 210.12 162.254Z" fill="#E0E0E0"/>
<path opacity="0.1" d="M210.12 162.254C209.005 162.144 207.879 162.261 206.811 162.6C205.837 162.849 204.889 163.188 203.978 163.611C202.163 164.458 200.526 165.643 199.155 167.103C198.766 167.514 198.404 167.95 198.072 168.408C197.732 168.817 197.453 169.272 197.243 169.759C197.191 169.909 197.419 170.157 197.55 170.001C197.935 169.564 198.202 169.022 198.581 168.559C198.964 168.061 199.378 167.588 199.821 167.142C200.712 166.244 201.709 165.457 202.79 164.799C203.822 164.159 204.915 163.623 206.054 163.2C206.706 162.972 207.326 162.783 207.972 162.619C208.653 162.413 209.363 162.316 210.074 162.332C210.133 162.339 210.152 162.254 210.12 162.254Z" fill="black"/>
<path d="M192.067 182.179C190.984 181.096 188.054 181.35 186.664 184.542C185.273 187.733 188.191 191.232 188.517 192.211C189.855 191.44 190.899 191.897 193.255 191.44C194.569 191.13 195.737 190.377 196.56 189.307C197.384 188.237 197.814 186.916 197.778 185.567C197.589 182.636 196.355 180.704 192.067 182.179Z" fill="#E0E0E0"/>
<path opacity="0.45" d="M192.067 182.179C190.984 181.096 188.054 181.35 186.664 184.542C185.273 187.733 188.191 191.232 188.517 192.211C189.855 191.44 190.899 191.897 193.255 191.44C194.569 191.13 195.737 190.377 196.56 189.307C197.384 188.237 197.814 186.916 197.778 185.567C197.589 182.636 196.355 180.704 192.067 182.179Z" fill="white"/>
<path d="M191.996 181.853C191.406 182.226 190.914 182.734 190.56 183.335C190.18 183.891 189.868 184.491 189.633 185.123C189.129 186.416 188.989 187.822 189.228 189.189C189.228 189.241 189.281 189.189 189.274 189.189C189.159 187.815 189.383 186.435 189.927 185.168C190.187 184.595 190.513 184.054 190.899 183.556C191.099 183.289 191.317 183.036 191.552 182.799C191.781 182.604 191.989 182.385 192.172 182.147C192.283 182.036 192.159 181.768 191.996 181.853Z" fill="#E0E0E0"/>
<path opacity="0.1" d="M191.996 181.853C191.406 182.226 190.914 182.734 190.56 183.335C190.18 183.891 189.868 184.491 189.633 185.123C189.129 186.416 188.989 187.822 189.228 189.189C189.228 189.241 189.281 189.189 189.274 189.189C189.159 187.815 189.383 186.435 189.927 185.168C190.187 184.595 190.513 184.054 190.899 183.556C191.099 183.289 191.317 183.036 191.552 182.799C191.781 182.604 191.989 182.385 192.172 182.147C192.283 182.036 192.159 181.768 191.996 181.853Z" fill="black"/>
<path d="M186.951 188.64C186.853 186.265 184.275 184.385 180.607 183.295C178.807 182.73 176.885 182.688 175.062 183.172C173.239 183.656 171.591 184.647 170.308 186.03C167.632 188.941 166.249 191.414 167.339 192.112C168.429 192.811 173.278 194.586 176.476 195.578C179.674 196.57 183.805 196.883 186.977 194.984C190.149 193.085 189.92 189.828 186.951 188.64Z" fill="#E0E0E0"/>
<path opacity="0.25" d="M186.951 188.64C186.853 186.265 184.275 184.385 180.607 183.295C178.807 182.73 176.885 182.688 175.062 183.172C173.239 183.656 171.591 184.647 170.308 186.03C167.632 188.941 166.249 191.414 167.339 192.112C168.429 192.811 173.278 194.586 176.476 195.578C179.674 196.57 183.805 196.883 186.977 194.984C190.149 193.085 189.92 189.828 186.951 188.64Z" fill="white"/>
<path d="M187.153 188.373C185.913 187.749 184.558 187.387 183.172 187.309C181.845 187.183 180.508 187.201 179.184 187.361C177.785 187.535 176.403 187.827 175.053 188.236C174.348 188.438 173.65 188.673 172.958 188.928C172.299 189.141 171.657 189.405 171.039 189.718C171.039 189.718 171 189.809 171.039 189.796C171.692 189.659 172.345 189.398 172.997 189.195C173.65 188.993 174.413 188.771 175.131 188.582C176.466 188.224 177.825 187.967 179.197 187.812C180.572 187.655 181.96 187.655 183.335 187.812C184.608 188.02 185.863 188.328 187.088 188.732C187.375 188.817 187.297 188.458 187.153 188.373Z" fill="#E0E0E0"/>
<path opacity="0.1" d="M187.153 188.373C185.913 187.749 184.558 187.387 183.172 187.309C181.845 187.183 180.508 187.201 179.184 187.361C177.785 187.535 176.403 187.827 175.053 188.236C174.348 188.438 173.65 188.673 172.958 188.928C172.299 189.141 171.657 189.405 171.039 189.718C171.039 189.718 171 189.809 171.039 189.796C171.692 189.659 172.345 189.398 172.997 189.195C173.65 188.993 174.413 188.771 175.131 188.582C176.466 188.224 177.825 187.967 179.197 187.812C180.572 187.655 181.96 187.655 183.335 187.812C184.608 188.02 185.863 188.328 187.088 188.732C187.375 188.817 187.297 188.458 187.153 188.373Z" fill="black"/>
<path d="M194.508 185.103C191.898 183.021 192.766 178.029 201.935 177.761C211.105 177.493 217.651 179.889 217.357 182.839C218.832 184.313 218.088 188.445 210.661 189.737C203.234 191.029 192.622 190.383 194.508 185.103Z" fill="#E0E0E0"/>
<path opacity="0.25" d="M194.508 185.103C191.898 183.021 192.766 178.029 201.935 177.761C211.105 177.493 217.651 179.889 217.357 182.839C218.832 184.313 218.088 188.445 210.661 189.737C203.234 191.029 192.622 190.383 194.508 185.103Z" fill="white"/>
<path d="M213.044 182.871C210.338 182.425 207.592 182.266 204.853 182.395C202.306 182.375 199.765 182.667 197.289 183.263C196.655 183.425 196.037 183.643 195.442 183.915C195.166 184.043 194.898 184.187 194.639 184.346C194.43 184.47 194.202 184.581 194.123 184.823C194.116 184.861 194.118 184.901 194.128 184.938C194.139 184.976 194.159 185.011 194.185 185.039C194.212 185.068 194.245 185.09 194.282 185.103C194.319 185.117 194.359 185.121 194.397 185.116C194.955 184.898 195.492 184.632 196.003 184.32C196.518 184.092 197.047 183.9 197.589 183.746C198.63 183.44 199.696 183.222 200.774 183.093C203.339 182.779 205.923 182.637 208.508 182.669C210.015 182.669 211.516 182.806 213.024 182.923C213.076 182.982 213.089 182.878 213.044 182.871Z" fill="#E0E0E0"/>
<path opacity="0.1" d="M213.044 182.871C210.338 182.425 207.592 182.266 204.853 182.395C202.306 182.375 199.765 182.667 197.289 183.263C196.655 183.425 196.037 183.643 195.442 183.915C195.166 184.043 194.898 184.187 194.639 184.346C194.43 184.47 194.202 184.581 194.123 184.823C194.116 184.861 194.118 184.901 194.128 184.938C194.139 184.976 194.159 185.011 194.185 185.039C194.212 185.068 194.245 185.09 194.282 185.103C194.319 185.117 194.359 185.121 194.397 185.116C194.955 184.898 195.492 184.632 196.003 184.32C196.518 184.092 197.047 183.9 197.589 183.746C198.63 183.44 199.696 183.222 200.774 183.093C203.339 182.779 205.923 182.637 208.508 182.669C210.015 182.669 211.516 182.806 213.024 182.923C213.076 182.982 213.089 182.878 213.044 182.871Z" fill="black"/>
<path d="M124.245 206.327C124.122 206.328 124.001 206.304 123.889 206.256C123.776 206.207 123.675 206.136 123.592 206.047L90.7834 171.333L58.0337 205.923C57.8701 206.096 57.6445 206.197 57.4064 206.204C57.1684 206.21 56.9374 206.122 56.7643 205.959C56.5912 205.795 56.4902 205.569 56.4835 205.331C56.4767 205.093 56.5648 204.862 56.7284 204.689L90.1308 169.446C90.2151 169.358 90.3164 169.288 90.4285 169.24C90.5406 169.191 90.6614 169.166 90.7834 169.166C90.9055 169.166 91.0262 169.191 91.1384 169.24C91.2505 169.288 91.3518 169.358 91.4361 169.446L124.891 204.852C124.974 204.935 125.04 205.033 125.085 205.141C125.13 205.249 125.153 205.365 125.153 205.482C125.153 205.599 125.13 205.715 125.085 205.823C125.04 205.931 124.974 206.03 124.891 206.112C124.711 206.265 124.48 206.342 124.245 206.327Z" fill="#263238"/>
<path d="M90.7834 232.635C90.5463 232.635 90.3188 232.541 90.1512 232.373C89.9835 232.206 89.8893 231.978 89.8893 231.741V174.243C89.8893 174.006 89.9835 173.778 90.1512 173.611C90.3188 173.443 90.5463 173.349 90.7834 173.349C91.0205 173.349 91.248 173.443 91.4156 173.611C91.5833 173.778 91.6775 174.006 91.6775 174.243V231.741C91.6775 231.978 91.5833 232.206 91.4156 232.373C91.248 232.541 91.0205 232.635 90.7834 232.635Z" fill="#37474F"/>
<path d="M126.359 211.705C126.181 211.705 126.006 211.651 125.859 211.551C125.711 211.451 125.597 211.309 125.53 211.144L107.876 166.516C107.83 166.406 107.806 166.288 107.806 166.168C107.806 166.049 107.829 165.931 107.876 165.821C107.922 165.711 107.99 165.611 108.075 165.528C108.161 165.444 108.262 165.379 108.373 165.335C108.484 165.292 108.603 165.271 108.723 165.274C108.842 165.277 108.959 165.304 109.068 165.353C109.177 165.402 109.275 165.473 109.356 165.56C109.437 165.648 109.5 165.751 109.54 165.863L127.162 210.491C127.247 210.713 127.242 210.959 127.146 211.177C127.051 211.394 126.874 211.565 126.653 211.653C126.558 211.686 126.459 211.703 126.359 211.705Z" fill="#37474F"/>
<path d="M55.2077 211.705C55.0964 211.704 54.9861 211.684 54.8814 211.646C54.6617 211.558 54.4857 211.386 54.3917 211.169C54.2976 210.951 54.293 210.705 54.3789 210.485L72.0003 165.857C72.0356 165.738 72.0951 165.628 72.1752 165.533C72.2554 165.439 72.3543 165.362 72.4657 165.307C72.577 165.253 72.6985 165.223 72.8223 165.218C72.9462 165.213 73.0697 165.234 73.185 165.279C73.3003 165.325 73.4049 165.393 73.4922 165.481C73.5795 165.569 73.6475 165.675 73.692 165.79C73.7365 165.906 73.7564 166.03 73.7506 166.153C73.7447 166.277 73.7132 166.398 73.658 166.509L56.0366 211.137C55.9705 211.303 55.8563 211.446 55.7087 211.547C55.5611 211.649 55.3867 211.703 55.2077 211.705Z" fill="#37474F"/>
<path d="M125.145 204.97L127.475 211.118C127.481 211.17 127.481 211.222 127.475 211.274C127.482 211.313 127.482 211.353 127.475 211.392C127.41 211.56 127.284 211.697 127.123 211.777C126.904 211.89 126.661 211.948 126.415 211.948C126.168 211.948 125.925 211.89 125.706 211.777C125.585 211.715 125.489 211.614 125.432 211.49V211.405L123.266 205.635L125.145 204.97Z" fill="#E0E0E0"/>
<path d="M56.4281 204.97L54.0982 211.118C54.0888 211.169 54.0888 211.222 54.0982 211.274V211.392C54.1677 211.557 54.2922 211.693 54.4506 211.777C54.6696 211.89 54.9124 211.948 55.1587 211.948C55.4051 211.948 55.6479 211.89 55.8669 211.777C55.9883 211.713 56.0865 211.612 56.1475 211.49V211.405L58.3078 205.635L56.4281 204.97Z" fill="#E0E0E0"/>
<path d="M91.8146 227.29V232.381C91.8061 232.471 91.7739 232.557 91.7211 232.63C91.6683 232.704 91.597 232.762 91.5143 232.798C91.2892 232.914 91.0398 232.974 90.7866 232.974C90.5335 232.974 90.2841 232.914 90.0589 232.798C89.9755 232.762 89.9032 232.704 89.8493 232.631C89.7954 232.558 89.7619 232.471 89.7522 232.381V227.29C90.0692 227.12 90.4235 227.031 90.7834 227.031C91.1432 227.031 91.4975 227.12 91.8146 227.29Z" fill="#E0E0E0"/>
<path d="M124.277 169.224C124.277 167.984 123.181 166.646 120.87 165.152C116.602 162.378 101.174 153.404 95.1953 150.069C95.1926 150.057 95.186 150.046 95.1767 150.038C95.1673 150.029 95.1555 150.024 95.1431 150.023C90.5419 147.23 87.853 125.804 84.6681 115.707C84.4834 115.076 84.2656 114.455 84.0155 113.847C84.0155 113.802 83.9763 113.756 83.9633 113.71C83.9502 113.665 83.8393 113.443 83.7805 113.299C83.7218 113.155 83.7153 113.162 83.6892 113.097C83.1854 111.946 82.4628 110.904 81.5615 110.029C81.2546 109.733 80.9048 109.484 80.5238 109.292L78.6442 108.241C75.518 106.368 68.1432 110.349 63.0329 113.149C59.8546 114.891 57.1591 116.96 55.4949 120.818C54.6017 123.033 54.0685 125.378 53.9155 127.762C53.4652 133.087 55.2208 152.771 56.2715 160.479C57.8314 173.362 59.7567 173.382 62.5435 175.535C67.3469 179.249 81.1569 186.519 85.7189 188.314C93.9814 191.577 100.73 186.552 105.775 184.065C111.478 181.135 117.029 177.915 122.404 174.419C123.657 173.506 124.316 172.579 124.303 171.6C124.271 171.215 124.277 169.635 124.277 169.224Z" fill="#E0E0E0"/>
<path d="M105.749 181.67C111.452 178.74 117.003 175.52 122.378 172.024C125.243 169.942 124.989 167.815 120.87 165.152C115.166 161.451 91.9125 148.255 91.9125 148.255C91.9125 148.255 59.228 167.345 60.4942 170.549C61.7603 173.754 79.956 183.661 85.6928 185.919C93.9553 189.169 100.697 184.137 105.749 181.67Z" fill="#F5F5F5"/>
<path d="M80.4977 109.292C77.4042 107.673 70.1011 111.615 65.1214 114.343C61.9365 116.092 59.2476 118.161 57.5703 122.032L55.4688 120.831C57.1199 116.974 59.8284 114.905 63.0068 113.162C68.117 110.362 75.4919 106.381 78.6181 108.254L80.4977 109.292Z" fill="#F5F5F5"/>
<path d="M84.6681 115.707C84.5963 115.492 83.5325 111.792 81.5354 110.029C80.6111 109.187 79.4051 108.722 78.1547 108.724C75.4528 108.724 68.9263 112.248 65.1018 114.33L64.162 114.866L63.8096 115.074L63.3919 115.342L63.0786 115.544C62.4084 115.985 61.7694 116.471 61.1664 117C61.0685 117.085 60.9706 117.169 60.8792 117.261C60.4947 117.616 60.1308 117.993 59.7893 118.39L59.6066 118.605L59.3912 118.873L59.1823 119.147L58.98 119.434C58.7058 119.825 58.4531 120.23 58.2229 120.648L58.1316 120.811C58.0664 120.923 58.0076 121.039 57.9554 121.157C57.8705 121.327 57.7857 121.496 57.7074 121.666C56.7211 123.975 56.1383 126.437 55.9844 128.943C55.2469 137.695 58.1642 169.042 61.2055 171.535C61.2055 171.535 61.8582 168.924 66.7922 164.897C71.5713 161.102 76.6602 157.714 82.0053 154.768C92.0561 149.103 95.1431 149.997 95.1431 149.997C90.5419 147.23 87.853 125.804 84.6681 115.707Z" fill="#EBEBEB"/>
<path d="M70.9038 237.693C70.7818 237.693 70.6612 237.667 70.5491 237.619C70.437 237.571 70.3357 237.501 70.2512 237.413L37.4427 202.692L4.69949 237.282C4.61892 237.368 4.52227 237.437 4.41504 237.485C4.30781 237.534 4.1921 237.56 4.07453 237.564C3.95696 237.568 3.83982 237.548 3.72981 237.506C3.6198 237.465 3.51906 237.402 3.43335 237.321C3.34765 237.241 3.27865 237.144 3.2303 237.037C3.18195 236.93 3.15519 236.814 3.15155 236.696C3.14791 236.579 3.16747 236.462 3.2091 236.352C3.25074 236.242 3.31363 236.141 3.3942 236.055L36.7901 200.812C36.8734 200.723 36.9745 200.652 37.0868 200.603C37.1992 200.555 37.3204 200.531 37.4427 200.532C37.565 200.531 37.6862 200.555 37.7986 200.603C37.9109 200.652 38.012 200.723 38.0953 200.812L71.5565 236.218C71.6734 236.347 71.7509 236.506 71.7795 236.677C71.8081 236.848 71.7866 237.024 71.7177 237.183C71.6487 237.343 71.5352 237.478 71.3909 237.575C71.2465 237.671 71.0773 237.724 70.9038 237.726V237.693Z" fill="#263238"/>
<path d="M37.4492 263.982C37.2155 263.982 36.991 263.891 36.8238 263.727C36.6567 263.564 36.5602 263.341 36.5551 263.108V205.609C36.5551 205.492 36.5782 205.376 36.6232 205.267C36.6681 205.159 36.734 205.06 36.817 204.977C36.9 204.894 36.9986 204.828 37.1071 204.783C37.2156 204.738 37.3318 204.715 37.4492 204.715C37.5667 204.715 37.6829 204.738 37.7914 204.783C37.8999 204.828 37.9985 204.894 38.0815 204.977C38.1645 205.06 38.2304 205.159 38.2753 205.267C38.3202 205.376 38.3434 205.492 38.3434 205.609V263.108C38.3382 263.341 38.2418 263.564 38.0747 263.727C37.9075 263.891 37.683 263.982 37.4492 263.982Z" fill="#37474F"/>
<path d="M73.025 243.052C72.8447 243.052 72.6685 242.998 72.5194 242.897C72.3703 242.796 72.2554 242.652 72.1896 242.484L54.5681 197.856C54.5253 197.747 54.5043 197.631 54.5064 197.514C54.5084 197.397 54.5335 197.282 54.5802 197.174C54.6268 197.067 54.6942 196.97 54.7783 196.889C54.8625 196.808 54.9618 196.744 55.0707 196.701C55.1795 196.658 55.2958 196.637 55.4127 196.639C55.5297 196.641 55.6451 196.666 55.7524 196.713C55.8596 196.76 55.9566 196.827 56.0379 196.911C56.1191 196.995 56.183 197.095 56.2259 197.203L73.8473 241.831C73.8906 241.94 73.9119 242.056 73.9101 242.173C73.9082 242.291 73.8832 242.406 73.8365 242.513C73.7898 242.621 73.7223 242.718 73.6379 242.799C73.5535 242.88 73.4539 242.944 73.3447 242.986C73.2433 243.029 73.1348 243.051 73.025 243.052Z" fill="#37474F"/>
<path d="M1.87355 243.052C1.76143 243.053 1.65031 243.031 1.54723 242.986C1.32679 242.9 1.14943 242.731 1.05401 242.514C0.958593 242.297 0.952893 242.052 1.03816 241.831L18.6596 197.203C18.7503 196.989 18.9213 196.818 19.1361 196.727C19.351 196.637 19.5926 196.634 19.8096 196.719C20.0266 196.804 20.2018 196.971 20.2979 197.183C20.3939 197.395 20.4032 197.637 20.3238 197.856L2.70241 242.484C2.63703 242.651 2.52306 242.794 2.37527 242.895C2.22748 242.996 2.05269 243.051 1.87355 243.052Z" fill="#37474F"/>
<path d="M71.8045 236.349L74.1344 242.497C74.1439 242.549 74.1439 242.602 74.1344 242.653V242.764C74.0676 242.933 73.9426 243.072 73.782 243.156C73.5618 243.269 73.318 243.328 73.0706 243.328C72.8232 243.328 72.5794 243.269 72.3592 243.156C72.2393 243.089 72.1433 242.987 72.0851 242.862V242.777L69.9314 237.002L71.8045 236.349Z" fill="#E0E0E0"/>
<path d="M3.08748 236.349L0.757534 242.497C0.751246 242.549 0.751246 242.601 0.757534 242.653C0.751069 242.69 0.751069 242.728 0.757534 242.764C0.81998 242.936 0.946288 243.076 1.10996 243.156C1.32897 243.269 1.57174 243.328 1.81808 243.328C2.06442 243.328 2.30719 243.269 2.5262 243.156C2.64826 243.092 2.74493 242.988 2.80031 242.862V242.777L4.96709 237.002L3.08748 236.349Z" fill="#E0E0E0"/>
<path d="M38.4804 258.637V263.721C38.4718 263.813 38.4388 263.9 38.3849 263.975C38.3309 264.049 38.258 264.108 38.1736 264.145C37.9476 264.258 37.6985 264.316 37.4459 264.316C37.1934 264.316 36.9443 264.258 36.7182 264.145C36.6347 264.108 36.5628 264.049 36.5099 263.974C36.4571 263.9 36.4254 263.812 36.418 263.721V258.637C36.7351 258.467 37.0893 258.377 37.4492 258.377C37.8091 258.377 38.1633 258.467 38.4804 258.637Z" fill="#E0E0E0"/>
<path d="M70.943 200.571C70.943 199.331 69.8466 197.993 67.5297 196.499C63.2614 193.725 47.8328 184.751 41.8546 181.416C41.8522 181.403 41.8459 181.391 41.8366 181.382C41.8273 181.372 41.8153 181.366 41.8024 181.364C37.2339 178.577 34.5123 157.151 31.3274 147.054C31.1411 146.424 30.9233 145.803 30.6748 145.194L30.616 145.057L30.4333 144.646C30.4333 144.581 30.3746 144.509 30.3419 144.444C29.8384 143.291 29.1158 142.247 28.2143 141.37C27.9002 141.081 27.549 140.835 27.1701 140.639C26.6545 140.345 25.5646 139.745 25.297 139.581C22.1708 137.715 14.7894 141.696 9.68571 144.496C6.50733 146.238 3.81191 148.307 2.14766 152.164C1.25142 154.379 0.718115 156.724 0.568259 159.109C0.111408 164.434 1.87355 184.118 2.92431 191.826C4.49066 204.709 6.40944 204.735 9.20276 206.889C14.0062 210.602 27.8097 217.873 32.3717 219.667C40.6407 222.931 47.3825 217.905 52.434 215.412C58.1359 212.485 63.6841 209.268 69.0569 205.773C70.3165 204.859 70.9691 203.932 70.9561 202.953C70.9299 202.562 70.943 200.982 70.943 200.571Z" fill="#E0E0E0"/>
<path d="M52.4013 213.01C58.1019 210.08 63.65 206.863 69.0242 203.371C71.8893 201.289 71.6348 199.161 67.5166 196.498C61.8125 192.798 38.5587 179.601 38.5587 179.601C38.5587 179.601 5.89383 198.691 7.15996 201.889C8.4261 205.087 26.6218 215.007 32.3521 217.265C40.6537 220.516 47.376 215.503 52.4013 213.01Z" fill="#F5F5F5"/>
<path d="M27.157 140.639C24.0635 139.014 16.7604 142.962 11.7872 145.69C8.59578 147.433 5.88078 149.508 4.23611 153.378L2.14764 152.158C3.79884 148.301 6.50731 146.232 9.6857 144.489C14.7894 141.689 22.1708 137.708 25.297 139.575C25.5515 139.758 26.6414 140.345 27.157 140.639Z" fill="#F5F5F5"/>
<path d="M31.3274 147.054C31.2622 146.839 30.1983 143.138 28.2013 141.369C27.2709 140.533 26.0651 140.068 24.814 140.064C22.1121 140.064 15.5856 143.588 11.7611 145.67C11.4413 145.847 11.1085 146.023 10.8213 146.206C10.6973 146.271 10.5798 146.343 10.4624 146.414L10.0447 146.682C9.93851 146.743 9.83609 146.811 9.73792 146.884C9.06679 147.324 8.42578 147.808 7.81914 148.333C7.72124 148.418 7.62987 148.503 7.53198 148.601C7.14802 148.955 6.7862 149.332 6.44859 149.73L6.26585 149.945C6.19405 150.03 6.11574 150.121 6.05047 150.213C5.98521 150.304 5.91342 150.396 5.84163 150.487C5.76984 150.578 5.70457 150.67 5.63931 150.768C5.36296 151.16 5.10806 151.568 4.87571 151.988C4.84139 152.04 4.81086 152.095 4.78434 152.151L4.60813 152.491C4.52328 152.66 4.44497 152.836 4.36012 153.006C3.37227 155.315 2.78942 157.777 2.63714 160.283C1.89965 169.035 4.81697 200.382 7.8583 202.875C7.8583 202.875 8.51095 200.264 13.4515 196.237C18.2326 192.442 23.3262 189.058 28.6777 186.121C38.7219 180.456 41.8089 181.344 41.8089 181.344C37.2078 178.577 34.5123 157.15 31.3274 147.054Z" fill="#EBEBEB"/>
<path d="M149.776 292C179.437 292 203.482 278.118 203.482 260.993C203.482 243.868 179.437 229.986 149.776 229.986C120.115 229.986 96.0699 243.868 96.0699 260.993C96.0699 278.118 120.115 292 149.776 292Z" fill="#E0E0E0"/>
<path d="M65.3172 282.158L49.2817 272.897C46.4753 271.279 46.4753 268.655 49.2817 267.023L98.6543 238.516C100.228 237.718 101.967 237.302 103.732 237.302C105.496 237.302 107.236 237.718 108.809 238.516L124.845 247.79C127.651 249.408 127.651 252.032 124.845 253.664L75.4724 282.171C73.8978 282.967 72.1576 283.381 70.3932 283.379C68.6288 283.376 66.8898 282.958 65.3172 282.158Z" fill="#E0E0E0"/>
<path d="M114.879 186.709L102.603 179.621H102.557L102.466 179.569C96.4092 176.136 88.1075 176.664 78.8856 181.977C60.3766 192.622 45.3658 218.636 45.3658 240.004C45.3658 250.629 49.0793 258.102 55.0771 261.632L55.1685 261.685H55.2142L67.4905 268.772L69.6246 263.166C72.8796 262.328 75.9997 261.034 78.8922 259.322C97.4012 248.638 112.406 222.65 112.406 201.276C112.432 197.94 111.993 194.616 111.1 191.401L114.879 186.709Z" fill="#FF3D3D"/>
<path opacity="0.4" d="M114.879 186.709L102.603 179.621H102.557L102.466 179.569C96.4092 176.136 88.1075 176.664 78.8856 181.977C60.3766 192.622 45.3658 218.636 45.3658 240.004C45.3658 250.629 49.0793 258.102 55.0771 261.632L55.1685 261.685H55.2142L67.4905 268.772L69.6246 263.166C72.8796 262.328 75.9997 261.034 78.8922 259.322C97.4012 248.638 112.406 222.65 112.406 201.276C112.432 197.94 111.993 194.616 111.1 191.401L114.879 186.709Z" fill="white"/>
<path opacity="0.4" d="M45.6595 234.783C45.472 236.517 45.374 238.26 45.3658 240.004C45.3658 250.629 49.0793 258.102 55.0771 261.633L55.1685 261.685H55.2142L67.4905 268.772L69.6246 263.166C70.3164 262.99 71.0213 262.788 71.7392 262.553L74.9045 251.627L45.6595 234.783Z" fill="#FF3D3D"/>
<path d="M114.999 241.507C128.087 218.838 128.086 194.336 114.997 186.779C101.909 179.222 80.6885 191.473 67.6007 214.142C54.513 236.81 54.5137 261.313 67.6023 268.87C80.691 276.426 101.911 264.176 114.999 241.507Z" fill="#FF3D3D"/>
<path d="M76.3273 265.829C68.0126 265.829 63.0525 258.852 63.0525 247.176C63.0525 227.845 77.1953 203.351 93.9291 193.692C98.3214 191.16 102.583 189.822 106.264 189.822C114.579 189.822 119.539 196.792 119.539 208.474C119.539 227.799 105.396 252.293 88.6623 261.959C84.2765 264.491 80.0082 265.829 76.3273 265.829Z" fill="#FF3D3D"/>
<path opacity="0.15" d="M76.3273 265.829C68.0126 265.829 63.0525 258.852 63.0525 247.176C63.0525 227.845 77.1953 203.351 93.9291 193.692C98.3214 191.16 102.583 189.822 106.264 189.822C114.579 189.822 119.539 196.792 119.539 208.474C119.539 227.799 105.396 252.293 88.6623 261.959C84.2765 264.491 80.0082 265.829 76.3273 265.829Z" fill="black"/>
<path d="M116.452 206.641C116.452 199.2 114.435 193.686 110.826 190.651C109.369 190.088 107.819 189.807 106.258 189.822C102.577 189.822 98.3149 191.16 93.9226 193.692C77.2018 203.351 63.0525 227.865 63.0525 247.176C63.0525 254.61 65.0692 260.131 68.6783 263.166C70.1363 263.724 71.6857 264.005 73.2468 263.995C76.9277 263.995 81.1895 262.657 85.5753 260.125C102.316 250.459 116.452 225.965 116.452 206.641Z" fill="#FAFAFA"/>
<path d="M99.9334 232.009C99.7549 232.008 99.5779 231.975 99.4113 231.911L86.0321 226.761L99.3918 201.706C99.4754 201.526 99.5949 201.365 99.7429 201.233C99.891 201.1 100.064 200.999 100.253 200.936C100.441 200.873 100.64 200.849 100.838 200.865C101.036 200.882 101.228 200.938 101.404 201.031C101.579 201.125 101.734 201.253 101.858 201.408C101.982 201.562 102.074 201.741 102.127 201.933C102.18 202.124 102.193 202.324 102.166 202.521C102.139 202.718 102.072 202.907 101.97 203.077L90.2221 225.221L100.462 229.17C100.781 229.293 101.046 229.523 101.213 229.821C101.379 230.12 101.436 230.467 101.373 230.802C101.31 231.138 101.132 231.441 100.869 231.659C100.606 231.877 100.275 231.996 99.9334 231.996V232.009Z" fill="#37474F"/>
<path d="M88.2119 231.506C89.6027 230.6 90.7602 229.378 91.5902 227.94C92.4203 226.502 92.8996 224.889 92.9893 223.231C92.9893 220.183 90.8486 218.949 88.2119 220.47C86.8206 221.378 85.663 222.601 84.8329 224.04C84.0028 225.479 83.5238 227.093 83.4346 228.752C83.4346 231.78 85.5752 233.034 88.2119 231.506Z" fill="#455A64"/>
<path d="M88.2119 255.276C87.8203 255.504 87.5005 255.276 87.5005 254.812V249.187C87.5073 248.928 87.5753 248.675 87.699 248.448C87.8226 248.221 87.9984 248.027 88.2119 247.881C88.6035 247.659 88.9233 247.881 88.9233 248.351V253.97C88.9171 254.229 88.8493 254.482 88.7256 254.709C88.6019 254.936 88.4258 255.13 88.2119 255.276Z" fill="#FF3D3D"/>
<path d="M88.1532 206.079C87.7616 206.308 87.4484 206.079 87.4484 205.616V199.984C87.4538 199.726 87.5206 199.473 87.6432 199.246C87.7657 199.019 87.9406 198.824 88.1532 198.678C88.5448 198.456 88.8646 198.678 88.8646 199.148V204.774C88.8579 205.032 88.7899 205.285 88.6662 205.512C88.5425 205.739 88.3667 205.934 88.1532 206.079Z" fill="#FF3D3D"/>
<path d="M64.3578 241.002C64.3768 240.748 64.456 240.501 64.5887 240.284C64.7215 240.066 64.904 239.883 65.1214 239.749L70.0227 236.936C70.4469 236.695 70.7798 236.864 70.7798 237.315C70.7592 237.569 70.6794 237.814 70.5468 238.032C70.4142 238.249 70.2325 238.433 70.0162 238.568L65.1475 241.381C64.6906 241.629 64.3512 241.459 64.3578 241.002Z" fill="#FF3D3D"/>
<path d="M106.727 216.482C106.748 216.228 106.828 215.983 106.96 215.765C107.093 215.547 107.275 215.364 107.491 215.229L112.366 212.41C112.784 212.168 113.123 212.338 113.117 212.795C113.098 213.049 113.019 213.295 112.886 213.513C112.753 213.731 112.571 213.914 112.353 214.048L107.485 216.861C107.067 217.102 106.727 216.933 106.727 216.482Z" fill="#FF3D3D"/>
<path d="M122.182 249.33C122.835 240.48 121.765 230.756 122.495 216.946C122.561 213.409 122.691 209.617 122.926 206.242C123.729 194.913 125.478 191.036 125.635 188.85C125.635 188.85 126.496 167.123 127.234 142.322C127.586 130.653 130.967 127.122 133.669 120.929H165.779C169.368 136.207 170.387 169.538 170.282 185.286C170.223 193.314 166.986 236.271 166.921 237.256C166.693 240.761 166.999 242.145 168.37 243.619C171.248 246.707 175.418 249.65 179.021 252.339C178.499 253.716 174.165 253.644 172.018 252.619C169.203 251.154 166.522 249.447 164.004 247.516C161.041 245.323 157.255 243.561 157.203 240.226C157.19 240.025 157.157 239.826 157.105 239.632C157.053 237.674 152.537 208.957 152.132 202.281C151.806 196.544 152.504 186.82 152.504 186.82L148.804 162.535C148.804 162.535 145.965 180.972 143.661 190.775C141.781 198.75 138.681 212.364 136.573 222.18C134.543 233.497 131.626 244.488 131.11 250.152C130.96 251.503 129.427 264.772 128.793 267.813C128.16 270.854 121.582 270.939 121.125 265.718C120.844 262.226 122.065 250.994 122.182 249.33Z" fill="#9E6767"/>
<path d="M185.156 255.863C185.339 255.863 185.639 257.88 184.653 258.748C183.511 259.753 180.157 261.417 175.693 260.888C171.228 260.36 168.801 259.009 166.999 257.534C165.198 256.059 162.679 253.977 160.656 253.559C158.776 253.161 156.74 252.339 156.126 251.764C155.513 251.19 155.578 248.619 155.578 248.619L185.156 255.863Z" fill="#263238"/>
<path d="M157.027 238.685C157.027 238.685 156.688 238.685 156.583 239.299C156.453 240.01 156.329 242.073 156.041 243.215C155.605 245.271 155.48 247.38 155.669 249.474C155.93 250.779 158.998 251.673 160.956 252.397C163.262 253.375 165.407 254.695 167.319 256.313C169.434 258.023 173.846 259.707 176.763 259.72C181.201 259.72 184.059 258.5 184.934 256.901C186.011 254.943 185.136 253.781 180.013 251.471C179.041 251.033 175.634 249.069 174.472 248.351C173.238 247.6 172.068 246.749 170.974 245.806C170.421 245.329 169.896 244.821 169.401 244.285C168.886 243.808 168.446 243.255 168.096 242.647C168.037 242.516 167.998 242.36 167.946 242.216C167.795 241.831 167.679 241.434 167.6 241.028C167.515 240.604 167.456 239.991 167.045 239.723C166.468 239.491 165.838 239.424 165.224 239.527C164.565 239.582 163.911 239.682 163.266 239.827C162.516 240.004 161.654 240.082 161.217 240.787C160.924 241.359 160.784 241.998 160.812 242.64C160.812 242.941 160.812 243.241 160.812 243.534C160.812 243.665 160.871 243.893 160.695 243.841C160.519 243.789 160.329 243.352 160.264 243.189C160.12 242.862 160.023 242.503 159.866 242.177C159.689 241.797 159.47 241.438 159.213 241.107C158.975 240.803 158.701 240.529 158.397 240.291C158.092 240.125 157.798 239.94 157.516 239.736C157.256 239.44 157.087 239.075 157.027 238.685Z" fill="#37474F"/>
<path d="M180.842 251.888C174.42 252.397 172.442 256.385 172.194 258.839C173.661 259.377 175.202 259.685 176.763 259.753C181.201 259.753 184.242 258.532 185.117 256.933C186.128 255.06 185.41 253.566 180.842 251.888Z" fill="#FAFAFA"/>
<path d="M171.215 252.052C171.142 252.056 171.07 252.033 171.013 251.986C170.981 251.96 170.954 251.928 170.934 251.892C170.914 251.855 170.902 251.815 170.897 251.774C170.893 251.733 170.897 251.691 170.909 251.651C170.921 251.612 170.941 251.575 170.967 251.543C171.707 250.762 172.605 250.148 173.601 249.743C174.597 249.337 175.669 249.15 176.743 249.193C176.786 249.197 176.828 249.209 176.866 249.229C176.904 249.249 176.938 249.276 176.966 249.309C176.993 249.342 177.014 249.381 177.027 249.422C177.04 249.463 177.044 249.506 177.04 249.549C177.036 249.592 177.024 249.633 177.004 249.671C176.984 249.71 176.957 249.743 176.924 249.771C176.891 249.798 176.853 249.819 176.812 249.832C176.771 249.845 176.727 249.85 176.685 249.846C175.715 249.816 174.75 249.989 173.851 250.353C172.952 250.717 172.139 251.265 171.463 251.96C171.432 251.993 171.393 252.018 171.35 252.034C171.307 252.05 171.261 252.056 171.215 252.052Z" fill="#F0F0F0"/>
<path d="M168.429 250.472C168.358 250.474 168.289 250.451 168.233 250.407C168.168 250.354 168.126 250.279 168.116 250.196C168.107 250.113 168.13 250.029 168.181 249.963C168.92 249.181 169.819 248.566 170.817 248.161C171.814 247.756 172.887 247.569 173.963 247.614C174.007 247.613 174.051 247.622 174.091 247.639C174.132 247.656 174.168 247.682 174.198 247.714C174.228 247.747 174.25 247.785 174.265 247.827C174.279 247.868 174.284 247.913 174.28 247.956C174.275 248 174.262 248.043 174.24 248.081C174.219 248.119 174.189 248.153 174.154 248.179C174.118 248.205 174.078 248.223 174.035 248.233C173.992 248.242 173.947 248.243 173.904 248.234C172.935 248.206 171.97 248.381 171.071 248.746C170.172 249.111 169.359 249.659 168.683 250.355C168.653 250.394 168.615 250.425 168.57 250.445C168.526 250.465 168.477 250.475 168.429 250.472Z" fill="#F0F0F0"/>
<path d="M165.851 248.658C165.778 248.659 165.707 248.636 165.648 248.593C165.583 248.54 165.542 248.464 165.532 248.381C165.522 248.298 165.545 248.215 165.596 248.149C166.337 247.368 167.237 246.755 168.234 246.35C169.231 245.945 170.303 245.757 171.379 245.799C171.42 245.803 171.46 245.814 171.497 245.833C171.533 245.852 171.566 245.878 171.593 245.909C171.62 245.941 171.64 245.977 171.652 246.017C171.665 246.056 171.669 246.098 171.666 246.139C171.663 246.18 171.651 246.221 171.632 246.258C171.612 246.295 171.586 246.327 171.553 246.353C171.521 246.38 171.483 246.399 171.443 246.41C171.403 246.422 171.361 246.425 171.32 246.419C170.35 246.393 169.386 246.568 168.487 246.933C167.588 247.298 166.775 247.845 166.099 248.54C166.07 248.579 166.033 248.609 165.989 248.63C165.946 248.65 165.898 248.66 165.851 248.658Z" fill="#F0F0F0"/>
<path d="M163.351 246.844C163.28 246.845 163.211 246.822 163.155 246.778C163.09 246.728 163.047 246.654 163.036 246.572C163.025 246.49 163.047 246.407 163.097 246.341C164.31 244.775 167.078 243.73 169.414 243.952C169.457 243.956 169.499 243.968 169.537 243.988C169.575 244.008 169.609 244.036 169.636 244.069C169.664 244.102 169.685 244.14 169.697 244.181C169.71 244.222 169.715 244.265 169.711 244.308C169.707 244.351 169.695 244.393 169.675 244.431C169.655 244.469 169.628 244.503 169.595 244.53C169.562 244.558 169.524 244.579 169.483 244.591C169.441 244.604 169.398 244.609 169.355 244.605C167.254 244.403 164.669 245.369 163.593 246.759C163.561 246.79 163.523 246.813 163.481 246.828C163.44 246.843 163.395 246.848 163.351 246.844Z" fill="#F0F0F0"/>
<path d="M130.888 270.182C130.712 273.21 130.236 275.22 129.166 276.996C128.095 278.771 126.065 279.326 124.01 278.81C121.954 278.294 119.33 276.898 118.736 274.287C118.142 271.677 117.809 269.882 118.273 267.069L130.888 270.182Z" fill="#263238"/>
<path d="M122.234 248.247C121.393 248.312 121.138 252.378 120.655 256.45C120.133 260.817 118.828 262.624 118.358 266.201C117.823 270.293 118.501 272.114 119.937 274.587C121.373 277.061 126.464 279.489 128.937 275.945C130.973 273.06 131.058 269.856 130.895 265.777C130.786 262.324 130.877 258.868 131.169 255.426C131.332 252.365 132.011 249.278 131.274 248.938C131.215 249.389 131.163 249.957 131.104 250.4C131.075 250.953 130.983 251.5 130.83 252.032C130.745 252.26 130.556 252.502 130.477 252.13C130.438 251.877 130.438 251.619 130.477 251.366C130.601 250.237 130.034 250.146 129.727 250.061C128.433 249.805 127.125 249.62 125.811 249.506C125.158 249.46 122.933 249.363 122.639 249.735C122.45 250.099 122.354 250.505 122.358 250.916C122.287 251.529 122.143 251.98 122.123 251.784C122.084 251.347 122.169 250.198 122.182 249.924C122.195 249.65 122.234 249.271 122.241 249.03C122.247 248.788 122.234 248.508 122.234 248.247Z" fill="#37474F"/>
<path d="M118.142 268.57C117.989 270.758 118.546 272.936 119.728 274.783C121.158 277.257 126.64 279.691 129.139 276.147C130.386 274.385 130.719 272.303 130.889 270.175C129.414 267.447 120.505 266.247 118.142 268.57Z" fill="#FAFAFA"/>
<path d="M129.041 265.718C129.007 265.724 128.972 265.724 128.937 265.718C128.904 265.718 124.989 264.08 121.177 264.961C121.136 264.975 121.092 264.98 121.049 264.976C121.005 264.972 120.963 264.959 120.925 264.938C120.886 264.917 120.853 264.888 120.827 264.853C120.8 264.819 120.782 264.779 120.772 264.736C120.761 264.694 120.76 264.65 120.768 264.607C120.776 264.564 120.793 264.523 120.818 264.487C120.843 264.451 120.875 264.421 120.912 264.398C120.949 264.375 120.99 264.36 121.034 264.354C125.067 263.421 129.061 265.078 129.211 265.15C129.285 265.187 129.342 265.251 129.369 265.329C129.396 265.408 129.391 265.493 129.355 265.568C129.324 265.621 129.277 265.665 129.221 265.691C129.165 265.718 129.103 265.727 129.041 265.718Z" fill="#F0F0F0"/>
<path d="M121.366 261.907C121.306 261.901 121.248 261.877 121.2 261.839C121.153 261.801 121.118 261.749 121.099 261.691C121.074 261.612 121.08 261.527 121.116 261.453C121.153 261.378 121.217 261.321 121.295 261.293C125.093 259.988 129.303 261.946 129.459 262.017C129.522 262.062 129.566 262.128 129.584 262.203C129.602 262.279 129.592 262.358 129.557 262.426C129.521 262.494 129.462 262.547 129.39 262.576C129.318 262.604 129.238 262.605 129.166 262.579C129.133 262.579 125.028 260.686 121.497 261.887C121.456 261.904 121.411 261.91 121.366 261.907Z" fill="#F0F0F0"/>
<path d="M121.503 259.029C121.444 259.023 121.388 259.001 121.341 258.965C121.294 258.93 121.257 258.881 121.236 258.826C121.221 258.787 121.215 258.746 121.216 258.704C121.218 258.663 121.228 258.622 121.246 258.584C121.263 258.547 121.288 258.513 121.319 258.485C121.35 258.457 121.386 258.435 121.425 258.422C125.596 256.927 129.596 259.035 129.74 259.126C129.811 259.17 129.862 259.239 129.881 259.32C129.901 259.401 129.888 259.486 129.844 259.557C129.801 259.628 129.731 259.679 129.651 259.699C129.57 259.718 129.484 259.705 129.413 259.662C129.381 259.662 125.498 257.625 121.64 259.009C121.597 259.025 121.55 259.032 121.503 259.029Z" fill="#F0F0F0"/>
<path d="M121.706 256.202C121.648 256.194 121.594 256.171 121.548 256.136C121.503 256.1 121.467 256.053 121.445 256C121.43 255.961 121.423 255.92 121.424 255.879C121.426 255.838 121.435 255.797 121.452 255.76C121.469 255.722 121.493 255.688 121.523 255.66C121.553 255.632 121.589 255.61 121.627 255.595C125.543 254.133 129.838 256.294 130.001 256.385C130.073 256.427 130.125 256.496 130.147 256.577C130.169 256.657 130.159 256.743 130.118 256.816C130.097 256.851 130.07 256.883 130.037 256.908C130.004 256.933 129.966 256.951 129.926 256.961C129.886 256.971 129.844 256.974 129.803 256.968C129.763 256.962 129.723 256.948 129.688 256.927C129.648 256.927 125.478 254.819 121.856 256.183C121.808 256.2 121.757 256.206 121.706 256.202Z" fill="#EBEBEB"/>
<path d="M130.392 120.929C126.862 129.622 125.648 134.562 125.263 155.192C124.878 175.823 124.917 184.757 124.832 187.244C124.747 189.73 123.305 194.175 122.032 206.432C120.759 218.688 121.928 233.027 121.928 233.027C121.928 233.027 123.142 235.253 127.801 235.638C132.122 236.029 134.263 234.404 134.263 234.404C134.263 234.404 140.189 210.543 141.833 203.168C143.478 195.794 148.791 167.436 148.791 167.436L151.616 187.113C151.616 187.113 150.311 193.875 151.616 204.624C152.922 215.373 155.258 226.37 155.258 226.37C157.391 227.115 159.637 227.484 161.896 227.46C163.941 227.491 165.957 226.963 167.724 225.933C167.724 225.933 171.392 193.953 171.392 181.788C171.392 169.622 171.242 138.922 167.404 120.896L130.392 120.929Z" fill="#455A64"/>
<path d="M143.015 190.742C143.015 190.742 141.155 188.053 136.586 187.479C132.018 186.904 129.648 189.404 129.648 189.404C129.648 189.404 138.126 188.536 143.015 190.742ZM129.133 191.231C135.007 192.4 137.709 192.158 140.398 191.623C140.398 191.623 131.926 190.553 129.133 191.231Z" fill="#9E6767"/>
<path d="M171.359 184.999L171.398 183.693C167.482 183.171 161.197 184.444 159.513 185.41C163.437 184.867 167.407 184.729 171.359 184.999ZM162.307 186.924C164.917 187.629 171.222 187.949 171.222 187.949L171.287 186.709C171.287 186.709 166.797 186.572 162.307 186.924Z" fill="#9E6767"/>
<path d="M123.076 234.162C123.282 234.318 123.5 234.455 123.729 234.574C122.535 215.321 124.93 204.265 126.522 196.896C126.679 196.185 126.823 195.513 126.96 194.873C128.167 189.11 128.709 177.545 128.689 168.076C128.689 165.224 128.689 162.28 128.689 159.147C128.689 155.486 128.826 151.694 129.126 147.948C135.842 147.145 137.297 140.514 139.131 132.147C139.379 130.999 139.643 129.818 139.921 128.604L139.327 128.467C139.047 129.68 138.786 130.868 138.531 132.017C136.697 140.403 135.346 146.493 129.179 147.308C129.91 138.824 131.665 130.542 135.842 124.577L135.346 124.224C129.126 133.1 128.167 146.858 128.076 159.141C128.076 162.274 128.076 165.224 128.076 168.076C128.076 177.513 127.553 189.052 126.359 194.749L125.928 196.766C124.323 204.108 121.941 215.099 123.076 234.162ZM152.674 144.045L148.817 167.469L151.643 187.146L151.271 168.03L153.881 153.509C153.979 154.951 154.084 156.432 154.181 157.94C155.036 170.392 155.996 184.503 155.35 187.472C153.561 195.611 154.084 200.747 155.036 210.073C155.134 211.02 155.239 212.031 155.343 213.049C155.865 218.316 156.446 223.492 156.838 226.879L157.49 227.023C157.099 223.642 156.505 218.368 155.97 212.991C155.865 211.946 155.767 210.961 155.669 210.015C154.723 200.754 154.201 195.656 155.963 187.603C156.616 184.548 155.709 170.999 154.814 157.901C154.651 155.519 154.495 153.221 154.351 151.029L155.095 146.904C158.032 146.199 164.5 142.786 165.361 138.733C160.819 143.464 152.674 144.045 152.674 144.045Z" fill="#37474F"/>
<path d="M186.011 110.689C185.521 110.421 184.601 111.231 183.4 112.373C183.1 112.655 182.867 113 182.717 113.384C182.568 113.768 182.507 114.181 182.539 114.592C183.372 114.437 184.128 114.002 184.68 113.358C185.321 112.582 185.777 111.669 186.011 110.689Z" fill="#263238"/>
<path d="M188.804 120.041C188.334 119.891 188.152 119.689 188.804 119.082C189.457 118.475 191.611 116.915 191.611 116.915L192.152 117.828C192.152 117.828 189.62 120.224 188.804 120.041Z" fill="black"/>
<path d="M202.66 105.239C202.353 103.895 200.878 102.903 198.215 101.421L198.144 101.382L197.772 101.173C193.353 98.9149 171.614 89.0796 168.096 87.7286C165.402 86.5918 162.557 85.8552 159.651 85.5422L164.526 102.7C164.526 102.7 180.679 107.758 187.368 109.814C185.534 111.987 183.74 114.089 182.089 114.846L188.615 120.374C190.064 118.135 198.875 113.645 200.826 110.584C202.216 108.339 202.954 106.551 202.66 105.239Z" fill="#9E6767"/>
<path d="M196.153 102.909C191.702 102.433 188.015 106.251 186.279 108.241C186.102 108.444 185.737 108.894 185.443 109.233L187.323 109.814C187.421 109.703 188.165 108.718 188.628 108.098C190.422 105.511 193.097 103.666 196.153 102.909Z" fill="#874C4C"/>
<path d="M188.054 115.492C187.316 114.84 185.515 113.188 184.366 113.671C182.565 114.435 181.716 115.153 179.008 116.419C177.05 117.339 174.668 118.566 174.152 119.173C172.847 120.727 173.291 124.695 173.813 126.352C173.873 126.564 173.979 126.76 174.123 126.927C174.267 127.094 174.445 127.228 174.645 127.319C174.846 127.41 175.064 127.457 175.284 127.456C175.504 127.454 175.722 127.405 175.921 127.312C176.078 127.658 176.515 128.402 177.879 128.121C177.983 128.637 178.773 129.257 179.994 129.009C180.15 129.576 181.247 129.779 181.984 129.439C183.009 128.982 184.073 127.521 184.719 126.966C185.365 126.411 185.672 126.202 185.685 125.856C185.685 125.386 185.182 124.91 184.321 124.988C185.337 124.705 186.245 124.126 186.931 123.324C187.458 122.591 187.897 121.798 188.236 120.961C188.5 120.264 188.902 119.627 189.418 119.088C190.371 118.018 188.948 116.413 188.178 115.662L188.054 115.492Z" fill="#9E6767"/>
<path d="M184.34 125.008C184.043 125.163 183.765 125.351 183.511 125.569C183.391 125.68 183.281 125.802 183.185 125.935C183.081 126.065 183.009 126.209 182.891 126.352L182.833 126.424L182.754 126.385C182.248 126.187 181.702 126.113 181.162 126.17C181.704 125.951 182.31 125.951 182.852 126.17H182.715C182.889 125.877 183.11 125.615 183.368 125.393C183.663 125.2 183.993 125.069 184.34 125.008Z" fill="#874C4C"/>
<path d="M182.448 127.768C182.513 127.501 182.604 127.272 182.656 127.031C182.72 126.784 182.768 126.533 182.8 126.28C182.926 126.529 182.954 126.815 182.878 127.083C182.814 127.352 182.662 127.593 182.448 127.768Z" fill="#874C4C"/>
<path d="M180.013 129.028C179.695 128.379 179.507 127.674 179.458 126.953C179.385 126.233 179.453 125.505 179.661 124.812C179.616 125.519 179.627 126.228 179.693 126.933C179.742 127.639 179.849 128.34 180.013 129.028Z" fill="#874C4C"/>
<path d="M177.899 128.14C177.6 127.328 177.405 126.482 177.318 125.621C177.211 124.751 177.249 123.869 177.429 123.01C177.415 123.867 177.455 124.724 177.546 125.575C177.624 126.45 177.775 127.292 177.899 128.14Z" fill="#874C4C"/>
<path d="M175.921 127.357C175.144 125.728 174.986 123.872 175.477 122.136C175.4 123.004 175.4 123.878 175.477 124.747C175.55 125.628 175.698 126.501 175.921 127.357Z" fill="#874C4C"/>
<path d="M175.595 120.752C175.579 120.529 175.617 120.305 175.706 120.1C175.798 119.898 175.934 119.72 176.104 119.578C176.454 119.331 176.86 119.174 177.285 119.121C177.102 119.232 176.92 119.33 176.743 119.428C176.565 119.519 176.397 119.628 176.241 119.754C175.927 120.012 175.701 120.361 175.595 120.752Z" fill="#874C4C"/>
<path d="M177.618 121.542C177.596 121.319 177.632 121.095 177.722 120.89C177.815 120.686 177.953 120.508 178.127 120.367C178.472 120.116 178.877 119.959 179.302 119.911L178.76 120.211C178.584 120.307 178.416 120.416 178.257 120.537C177.945 120.798 177.721 121.149 177.618 121.542Z" fill="#874C4C"/>
<path d="M180.006 122.632C179.984 122.409 180.02 122.184 180.111 121.979C180.203 121.776 180.341 121.597 180.515 121.457C180.862 121.208 181.266 121.051 181.69 121C181.507 121.111 181.325 121.209 181.148 121.307C180.97 121.398 180.802 121.507 180.646 121.633C180.33 121.888 180.106 122.238 180.006 122.632Z" fill="#874C4C"/>
<path d="M190.286 111.256L187.545 110.336C187.233 110.249 186.905 110.237 186.587 110.301C186.27 110.364 185.972 110.502 185.717 110.702L183.544 112.614C183.449 112.682 183.374 112.774 183.327 112.881C183.28 112.988 183.263 113.105 183.276 113.221C183.276 113.358 183.407 113.874 183.44 114.024C183.473 114.135 183.535 114.235 183.62 114.314C183.705 114.394 183.809 114.449 183.923 114.474L186.664 115.401C186.976 115.487 187.303 115.499 187.621 115.435C187.938 115.372 188.236 115.235 188.491 115.035L190.658 113.116C190.751 113.052 190.826 112.965 190.875 112.863C190.924 112.761 190.946 112.648 190.938 112.536C190.938 112.386 190.801 111.883 190.769 111.713C190.737 111.601 190.675 111.499 190.59 111.419C190.505 111.338 190.4 111.282 190.286 111.256Z" fill="#37474F"/>
<path d="M183.544 112.614L185.717 110.702C185.972 110.502 186.27 110.364 186.587 110.301C186.905 110.237 187.233 110.249 187.545 110.336L190.286 111.256C190.405 111.27 190.516 111.321 190.604 111.402C190.692 111.483 190.752 111.59 190.776 111.707C190.8 111.824 190.786 111.946 190.737 112.055C190.688 112.164 190.605 112.255 190.501 112.314L188.328 114.226C188.073 114.426 187.775 114.563 187.458 114.627C187.14 114.69 186.812 114.678 186.5 114.591L183.759 113.671C183.64 113.657 183.529 113.606 183.441 113.525C183.353 113.445 183.293 113.338 183.269 113.221C183.245 113.103 183.259 112.982 183.308 112.873C183.357 112.764 183.44 112.673 183.544 112.614Z" fill="#455A64"/>
<path d="M187.408 114.363C187.138 114.433 186.855 114.433 186.585 114.363L183.844 113.443C183.668 113.384 183.557 113.293 183.537 113.188C183.518 113.084 183.583 112.966 183.727 112.842L185.893 110.93C186.11 110.757 186.365 110.641 186.637 110.591C186.907 110.521 187.19 110.521 187.46 110.591L190.201 111.511C190.377 111.57 190.488 111.661 190.508 111.766C190.527 111.87 190.462 111.987 190.318 112.111L188.152 114.024C187.936 114.197 187.68 114.313 187.408 114.363Z" fill="#263238"/>
<path d="M186.194 114.957H186.148L184.19 114.304C184.178 114.301 184.168 114.295 184.158 114.287C184.149 114.279 184.141 114.269 184.136 114.258C184.13 114.247 184.127 114.235 184.126 114.223C184.126 114.211 184.127 114.199 184.131 114.187C184.139 114.163 184.155 114.143 184.177 114.131C184.199 114.119 184.225 114.116 184.249 114.122L186.207 114.774C186.219 114.777 186.23 114.783 186.24 114.79C186.25 114.798 186.258 114.808 186.264 114.819C186.27 114.83 186.273 114.843 186.273 114.855C186.273 114.868 186.271 114.88 186.265 114.892C186.26 114.908 186.25 114.922 186.238 114.933C186.225 114.945 186.21 114.953 186.194 114.957Z" fill="#455A64"/>
<path d="M188.504 114.533C188.915 114.657 189.809 115.218 190.194 116.856C190.579 118.494 189.718 119.852 188.785 120.041C189.118 120.263 189.907 119.937 190.88 119.206L191.689 118.599C192.011 118.359 192.269 118.044 192.44 117.681C192.611 117.317 192.689 116.918 192.668 116.517C192.655 116.27 192.617 116.025 192.557 115.786C192.459 115.163 192.23 114.567 191.885 114.04C191.539 113.512 191.085 113.064 190.553 112.725L188.504 114.533Z" fill="#263238"/>
<path d="M125.498 135.887C126.999 129.048 129.283 118.964 129.335 117.45C129.557 111.328 127.978 106.766 127.41 102.961C126.17 94.6662 129.276 87.7025 131.208 86.0643C131.208 86.0643 133.218 85.6075 135.614 85.0332C136.977 84.7022 138.358 84.4537 139.751 84.2891C143.427 83.7743 147.148 83.6736 150.846 83.9889C151.747 84.0803 156.009 84.8113 156.009 84.8113C157.314 85.1115 159.657 85.5422 159.664 85.5422C161.948 87.6492 163.857 90.1299 165.309 92.8779C167.41 96.6372 168.448 99.7829 168.168 107.837C168.089 110.258 167.991 114.585 168.089 118.037C168.292 125.432 168.853 128.48 169.793 135.189C161.315 140.41 139.928 142.818 125.498 135.887Z" fill="#263238"/>
<path d="M140.404 79.7141C141.043 79.5563 141.666 79.3378 142.264 79.0614C143.127 78.6164 144.087 78.3922 145.057 78.4088C146.252 78.5328 147.231 79.3356 148.366 79.6423C149.007 79.7996 149.673 79.8262 150.324 79.7206C150.729 79.6619 151.114 79.5314 151.512 79.44C152.163 79.2825 152.838 79.2449 153.503 79.329C154.179 79.4825 154.882 79.4825 155.558 79.329C156.616 78.9636 157.223 77.8279 158.241 77.3711C159.376 76.849 160.721 77.2993 161.948 77.0709C162.498 76.9514 163.016 76.7147 163.467 76.3768C163.917 76.0389 164.29 75.6078 164.558 75.1129C165.084 74.1112 165.289 72.972 165.146 71.8497C164.96 71.093 164.96 70.3026 165.146 69.5459C165.386 69.0744 165.708 68.6499 166.099 68.2928C166.81 67.5096 167.404 66.4328 167.071 65.4277C166.784 64.5466 165.838 63.9331 165.766 63.0064C165.765 62.7933 165.811 62.5827 165.901 62.3897C165.991 62.1968 166.124 62.0263 166.288 61.8908C166.452 61.7552 166.645 61.6579 166.851 61.6059C167.058 61.5539 167.273 61.5485 167.482 61.5901C167.685 61.656 167.87 61.7652 168.026 61.9101C168.181 62.055 168.303 62.2321 168.384 62.4291C168.464 62.6261 168.5 62.8382 168.49 63.0506C168.479 63.263 168.423 63.4707 168.324 63.659C168.775 63.3732 169.156 62.9906 169.441 62.5391C169.725 62.0875 169.906 61.5783 169.969 61.0484C169.9 60.1331 169.474 59.2818 168.781 58.6793C168.128 58.0267 167.397 57.498 166.823 56.7932C166.518 56.4079 166.295 55.9634 166.17 55.4879C166.111 55.2558 166.086 55.0159 166.099 54.7765C166.099 54.3523 166.294 53.9346 166.36 53.5104C166.474 52.6384 166.274 51.7543 165.796 51.0164C165.317 50.2785 164.592 49.7351 163.749 49.4836C162.835 49.2421 161.739 49.3073 161.139 48.5894C160.688 48.0673 160.675 47.2841 160.421 46.6707C159.768 45.0456 157.543 44.5561 155.904 45.1957C155.095 45.5089 154.279 46.0441 153.437 45.8483C152.868 45.639 152.357 45.2993 151.943 44.8563C151.177 44.2172 150.289 43.7419 149.332 43.4596C148.856 43.3173 148.366 43.2233 147.87 43.179C147.622 43.179 147.374 43.179 147.126 43.179C146.938 43.1994 146.748 43.2103 146.559 43.2116C146.399 43.1846 146.237 43.1671 146.076 43.1594C145.87 43.1614 145.665 43.1767 145.462 43.2051C144.655 43.3125 143.879 43.5811 143.178 43.9948C142.608 44.3271 142.1 44.7555 141.677 45.2609C141.393 45.6505 141.076 46.0151 140.73 46.3509C139.797 47.1406 138.466 47.1275 137.252 47.2776C135.846 47.4207 134.505 47.9392 133.369 48.7787C132.811 49.2065 132.348 49.7462 132.011 50.3633C131.674 50.9803 131.469 51.661 131.411 52.3617C131.468 52.9888 131.39 53.6209 131.182 54.2152C130.922 54.6278 130.548 54.9564 130.105 55.1616C129.081 55.6267 128.083 56.1474 127.116 56.7214C126.635 57.0156 126.237 57.4278 125.959 57.9189C125.682 58.4099 125.534 58.9637 125.53 59.5278C125.609 60.4741 126.261 61.2573 126.836 62.0339C127.41 62.8106 127.886 63.77 127.599 64.6771C127.335 65.2188 127.02 65.7345 126.659 66.2174C126.329 66.8846 126.274 67.6553 126.507 68.3625C126.741 69.0698 127.243 69.6567 127.906 69.9962C128.748 70.3878 129.942 70.4922 130.184 71.3863C130.218 71.9027 130.144 72.4205 129.968 72.907C129.707 74.4407 131.182 75.8439 132.729 76.0527C133.597 76.1768 134.576 76.0527 135.274 76.5814C135.868 77.0382 136.057 77.8475 136.475 78.4741C136.896 79.093 137.534 79.5309 138.263 79.701C138.616 79.7859 138.988 79.7337 139.334 79.825C139.694 79.865 140.059 79.8271 140.404 79.7141Z" fill="#263238"/>
<path d="M140.156 81.7569C140.156 80.3994 139.986 73.5793 139.986 73.5793C139.928 74.0883 137.448 75.472 135.242 72.8418C133.036 70.2116 132.892 67.4118 134.223 65.6627C135.692 63.7048 139.529 63.7504 139.895 67.0724C141.801 67.0006 142.721 66.1783 141.964 63.0391C142.134 61.2117 143.922 60.4285 144.431 57.4981C144.601 56.3823 145.146 55.3577 145.976 54.5935C146.807 53.8294 147.873 53.3713 148.999 53.2951C149.902 53.2238 150.808 53.3543 151.654 53.6772C152.5 54 153.263 54.5071 153.888 55.1616C154.116 54.7158 154.44 54.3264 154.838 54.0216C155.235 53.7168 155.695 53.5043 156.185 53.3995C157.424 53.2344 158.68 53.5473 159.697 54.2746C160.714 55.002 161.416 56.0891 161.661 57.3154C162.328 60.463 162.609 63.6805 162.496 66.8962C162.228 74.134 160.284 77.6257 157.967 78.8396C156.407 79.6489 155.004 79.8381 152.295 79.6097L152.413 81.8809C152.465 83.0231 152.36 83.8389 153.47 84.237C154.207 84.485 155.97 84.8244 155.97 84.8244C155.97 84.8244 158.548 89.2754 151.447 89.6735C140.13 90.3262 135.594 85.0463 135.594 85.0463L138.1 84.2761C139.947 83.6888 140.143 83.121 140.156 81.7569Z" fill="#9E6767"/>
<path d="M153.868 71.7062C153.684 71.4672 153.427 71.2934 153.137 71.2102C152.878 71.1335 152.611 71.0853 152.341 71.0666C152.079 71.0458 151.815 71.0612 151.558 71.1123C151.414 71.1406 151.272 71.1799 151.134 71.2298C151.017 71.2833 150.91 71.3537 150.814 71.4386C150.755 71.4843 150.67 71.7388 150.814 71.7388C150.951 71.7519 151.088 71.7519 151.225 71.7388L151.584 71.7062C151.838 71.6932 152.093 71.6932 152.347 71.7062C152.595 71.7205 152.841 71.7643 153.078 71.8367C153.183 71.8694 153.287 71.8824 153.392 71.9085C153.496 71.9346 153.509 71.9412 153.568 71.9477C153.644 71.9542 153.72 71.9542 153.796 71.9477C153.888 71.9346 153.914 71.7649 153.868 71.7062Z" fill="#874C4C"/>
<path opacity="0.2" d="M153.868 71.7062C153.684 71.4672 153.427 71.2934 153.137 71.2102C152.878 71.1335 152.611 71.0853 152.341 71.0666C152.079 71.0458 151.815 71.0612 151.558 71.1123C151.414 71.1406 151.272 71.1799 151.134 71.2298C151.017 71.2833 150.91 71.3537 150.814 71.4386C150.755 71.4843 150.67 71.7388 150.814 71.7388C150.951 71.7519 151.088 71.7519 151.225 71.7388L151.584 71.7062C151.838 71.6932 152.093 71.6932 152.347 71.7062C152.595 71.7205 152.841 71.7643 153.078 71.8367C153.183 71.8694 153.287 71.8824 153.392 71.9085C153.496 71.9346 153.509 71.9412 153.568 71.9477C153.644 71.9542 153.72 71.9542 153.796 71.9477C153.888 71.9346 153.914 71.7649 153.868 71.7062Z" fill="black"/>
<path d="M160.395 60.4807L157.549 59.3451C157.613 59.1539 157.716 58.9779 157.851 58.8281C157.986 58.6782 158.151 58.5577 158.334 58.4739C158.518 58.3901 158.717 58.3448 158.918 58.3409C159.12 58.3369 159.32 58.3744 159.507 58.451C159.886 58.6118 160.19 58.9118 160.355 59.2893C160.52 59.6667 160.534 60.0931 160.395 60.4807Z" fill="#263238"/>
<path d="M150.677 59.5474L147.642 58.8948C147.59 59.0899 147.578 59.2937 147.607 59.4936C147.636 59.6935 147.705 59.8854 147.811 60.0576C147.917 60.2298 148.056 60.3787 148.221 60.4952C148.386 60.6117 148.573 60.6934 148.771 60.7352C149.18 60.8205 149.607 60.7447 149.962 60.5234C150.317 60.3022 150.573 59.9526 150.677 59.5474Z" fill="#263238"/>
<path d="M157.288 63.2219C157.262 63.562 157.371 63.8986 157.591 64.1596C157.81 64.4207 158.123 64.5854 158.463 64.6185C158.628 64.6375 158.795 64.6231 158.954 64.5762C159.114 64.5293 159.262 64.4508 159.39 64.3455C159.519 64.2402 159.625 64.1102 159.702 63.9631C159.779 63.816 159.826 63.655 159.84 63.4895C159.865 63.1493 159.757 62.8127 159.537 62.5517C159.318 62.2907 159.005 62.126 158.665 62.0928C158.5 62.0739 158.333 62.0883 158.174 62.1352C158.014 62.1821 157.866 62.2605 157.737 62.3658C157.609 62.4711 157.503 62.6012 157.426 62.7482C157.349 62.8953 157.302 63.0564 157.288 63.2219Z" fill="#263238"/>
<path d="M148.02 63.398C147.995 63.7382 148.104 64.0748 148.323 64.3358C148.543 64.5968 148.856 64.7615 149.195 64.7947C149.36 64.8146 149.527 64.801 149.686 64.7549C149.845 64.7088 149.994 64.631 150.122 64.5262C150.251 64.4214 150.357 64.2917 150.434 64.145C150.512 63.9983 150.559 63.8374 150.572 63.6722C150.598 63.332 150.489 62.9954 150.27 62.7344C150.05 62.4734 149.737 62.3086 149.398 62.2755C149.233 62.2556 149.066 62.2692 148.907 62.3153C148.747 62.3614 148.599 62.4392 148.47 62.544C148.342 62.6488 148.236 62.7785 148.158 62.9252C148.081 63.0719 148.034 63.2328 148.02 63.398Z" fill="#263238"/>
<path d="M158.443 67.6729L154.266 69.2L153.157 61.9426C154.762 61.9818 156.825 64.5141 158.443 67.6729Z" fill="#874C4C"/>
<path d="M152.295 79.5966C147.433 79.0941 142.78 77.4951 141.696 75.2761C141.892 76.6688 142.588 77.9426 143.654 78.8591C146.917 81.5742 152.4 81.3131 152.4 81.3131L152.295 79.5966Z" fill="#874C4C"/>
<path d="M123.318 147.302C121.269 147.883 118.645 145.344 117.927 144.45C117.209 143.556 118.129 141.455 118.58 139.679C119.03 137.904 118.58 134.895 120.779 135.763C122.978 136.632 127.586 142.512 123.318 147.302Z" fill="#874C4C"/>
<path d="M131.189 86.0645C125.485 86.9129 122.841 88.2769 119.702 94.588C116.047 101.937 110.134 112.157 109.221 115.349C108.366 118.318 106.669 120.439 109.919 124.949C112.889 129.08 122.234 139.901 123.625 141.487C124.838 142.89 124.166 146.917 119.989 146.317C119.989 146.317 123.168 149.13 124.91 148.816C126.418 148.549 128.787 147.23 130.96 142.662C132.331 139.777 131.182 137.519 129.1 134.308C126.607 130.477 121.223 119.793 121.223 119.793L130.856 102.7C130.856 102.7 136.044 91.1355 131.189 86.0645Z" fill="#9E6767"/>
<path d="M189.02 254.623C188.953 253.704 188.537 252.844 187.858 252.221C187.268 251.567 186.466 251.144 185.593 251.027C185.443 251.027 185.365 251.242 185.358 251.36C185.347 251.443 185.359 251.528 185.391 251.606C185.423 251.684 185.475 251.752 185.541 251.804C186.186 252.14 186.788 252.552 187.336 253.03C187.556 253.265 187.743 253.528 187.891 253.814C187.929 253.886 187.964 253.96 187.995 254.036V254.075L188.047 254.212C188.106 254.381 188.184 254.551 188.23 254.727C188.285 255.049 188.313 255.374 188.315 255.7C188.313 255.806 188.338 255.912 188.387 256.007C188.556 256.255 188.791 255.804 188.856 255.635C188.979 255.312 189.035 254.968 189.02 254.623Z" fill="#FAFAFA"/>
<path d="M190.325 250.557C189.688 249.808 188.901 249.201 188.015 248.775C187.125 248.265 186.07 248.125 185.078 248.384C184.83 248.475 184.856 249.037 185.078 249.095C185.98 249.29 186.866 249.554 187.727 249.885C188.407 250.193 189.016 250.637 189.516 251.19C190.762 252.567 191.154 254.486 191.16 256.294C191.16 256.424 191.297 256.411 191.343 256.294C192.322 254.414 191.617 252.104 190.325 250.557Z" fill="#FAFAFA"/>
<path d="M57.0351 63.6265C60.5986 70.8578 68.9786 76.9861 83.637 76.9992C90.1634 76.9992 95.4433 75.7722 99.6137 73.7816C102.414 77.2276 108.098 78.5068 112.242 76.9013C112.364 76.8532 112.469 76.7696 112.542 76.6613C112.616 76.5531 112.655 76.4252 112.655 76.2943C112.655 76.1634 112.616 76.0355 112.542 75.9273C112.469 75.8191 112.364 75.7355 112.242 75.6874C108.059 73.9383 106.852 70.9687 106.525 68.8737C108.024 67.3362 109.275 65.5747 110.232 63.6526C112.155 59.8568 113.026 55.6158 112.757 51.3696C112.487 47.1234 111.086 43.0267 108.699 39.5047C103.973 32.293 93.5833 27.7571 83.6304 27.7571C73.6776 27.7571 63.2875 32.2864 58.5623 39.5047C56.1824 43.025 54.786 47.117 54.5175 51.3578C54.249 55.5986 55.1182 59.8342 57.0351 63.6265Z" fill="white"/>
<path d="M108.392 77.8279C105.031 77.8279 101.565 76.4508 99.5484 74.0817C95.0909 76.1702 89.7587 77.234 83.663 77.234H83.6174C66.0873 77.234 59.3063 68.7496 56.8197 63.7373C54.8826 59.9048 54.0047 55.6243 54.2766 51.3387C54.5485 47.0531 55.9605 42.9179 58.3665 39.361C63.0133 32.2668 73.1685 27.5024 83.6369 27.5024C94.1054 27.5024 104.261 32.2602 108.907 39.3545C111.322 42.9083 112.741 47.0434 113.019 51.3307C113.297 55.6181 112.422 59.9017 110.487 63.7373C109.533 65.6521 108.297 67.4122 106.819 68.9585C107.178 71.0404 108.444 73.8207 112.373 75.4849C112.539 75.5534 112.68 75.6706 112.778 75.8209C112.875 75.9711 112.925 76.1475 112.921 76.3268C112.924 76.5042 112.871 76.6781 112.771 76.8243C112.67 76.9704 112.526 77.0817 112.36 77.1426C111.091 77.6155 109.746 77.8479 108.392 77.8279ZM99.679 73.4813L99.7964 73.6314C102.472 76.8946 108.013 78.2848 112.158 76.6727C112.233 76.6451 112.298 76.5941 112.342 76.5273C112.387 76.4604 112.409 76.381 112.406 76.3007C112.41 76.2177 112.389 76.1353 112.344 76.0651C112.3 75.9949 112.235 75.9403 112.158 75.9091C107.948 74.147 106.643 71.1318 106.284 68.9128V68.7953L106.369 68.7105C107.856 67.1717 109.093 65.4101 110.036 63.4893C111.932 59.7368 112.792 55.5465 112.527 51.3508C112.262 47.1551 110.881 43.1062 108.529 39.6221C104.039 32.7758 93.8182 27.9919 83.663 27.9919C73.5079 27.9919 63.2875 32.7758 58.7973 39.6221C56.4365 43.1086 55.0506 47.1629 54.7833 51.365C54.5159 55.5671 55.3767 59.7643 57.2766 63.5219C59.711 68.4625 66.3745 76.7445 83.663 76.7576C89.7653 76.7576 95.1039 75.6807 99.5354 73.5661L99.679 73.4813Z" fill="#455A64"/>
<path d="M89.7065 57.2826C91.4426 59.1948 91.5992 61.5183 91.5992 64.3051H75.629C75.629 61.5183 75.7856 59.1948 77.5216 57.2826C79.2577 55.3703 80.6543 54.7112 81.3657 54.0194C81.635 53.8408 81.8558 53.5983 82.0086 53.3136C82.1614 53.0289 82.2414 52.7109 82.2414 52.3878C82.2414 52.0647 82.1614 51.7466 82.0086 51.4619C81.8558 51.1772 81.635 50.9347 81.3657 50.7561C80.6543 50.0643 79.2512 49.3986 77.5216 47.4929C75.7921 45.5872 75.629 43.2573 75.629 40.4705H91.5992C91.5992 43.2573 91.4426 45.5872 89.7065 47.4929C87.9705 49.3986 86.5738 50.0643 85.8624 50.7561C85.5932 50.9347 85.3723 51.1772 85.2195 51.4619C85.0668 51.7466 84.9868 52.0647 84.9868 52.3878C84.9868 52.7109 85.0668 53.0289 85.2195 53.3136C85.3723 53.5983 85.5932 53.8408 85.8624 54.0194C86.2475 54.3914 86.8414 54.7634 87.5724 55.3247C88.3417 55.9112 89.056 56.5666 89.7065 57.2826Z" fill="#FF3D3D"/>
<path opacity="0.6" d="M89.7065 57.2826C91.4426 59.1948 91.5992 61.5183 91.5992 64.3051H75.629C75.629 61.5183 75.7856 59.1948 77.5216 57.2826C79.2577 55.3703 80.6543 54.7112 81.3657 54.0194C81.635 53.8408 81.8558 53.5983 82.0086 53.3136C82.1614 53.0289 82.2414 52.7109 82.2414 52.3878C82.2414 52.0647 82.1614 51.7466 82.0086 51.4619C81.8558 51.1772 81.635 50.9347 81.3657 50.7561C80.6543 50.0643 79.2512 49.3986 77.5216 47.4929C75.7921 45.5872 75.629 43.2573 75.629 40.4705H91.5992C91.5992 43.2573 91.4426 45.5872 89.7065 47.4929C87.9705 49.3986 86.5738 50.0643 85.8624 50.7561C85.5932 50.9347 85.3723 51.1772 85.2195 51.4619C85.0668 51.7466 84.9868 52.0647 84.9868 52.3878C84.9868 52.7109 85.0668 53.0289 85.2195 53.3136C85.3723 53.5983 85.5932 53.8408 85.8624 54.0194C86.2475 54.3914 86.8414 54.7634 87.5724 55.3247C88.3417 55.9112 89.056 56.5666 89.7065 57.2826Z" fill="white"/>
<path opacity="0.5" d="M76.0793 63.9789C76.036 63.9789 75.9945 63.9618 75.9639 63.9312C75.9333 63.9006 75.9161 63.8591 75.9161 63.8158C75.9161 61.4728 76.0858 59.2473 77.737 57.3938C78.5863 56.4641 79.5388 55.6342 80.576 54.9202C80.9265 54.6848 81.2602 54.4253 81.5746 54.1436C81.8667 53.9404 82.1054 53.6696 82.2702 53.3543C82.435 53.0389 82.5211 52.6883 82.5211 52.3325C82.5211 51.9767 82.435 51.6261 82.2702 51.3107C82.1054 50.9954 81.8667 50.7246 81.5746 50.5214C81.2612 50.2411 80.9298 49.9817 80.5825 49.7448C79.5434 49.0282 78.5888 48.1962 77.737 47.2647C76.0858 45.4438 75.9357 43.1922 75.9161 40.8492C75.9161 40.8059 75.9333 40.7644 75.9639 40.7338C75.9945 40.7032 76.036 40.686 76.0793 40.686C76.1208 40.686 76.1607 40.7025 76.1901 40.7319C76.2194 40.7613 76.2359 40.8011 76.2359 40.8427C76.2359 43.1269 76.3991 45.3133 77.972 47.0559C78.8079 47.9666 79.7451 48.7789 80.7653 49.4772C81.1182 49.7263 81.454 49.9989 81.7704 50.293C82.0913 50.5274 82.3524 50.8344 82.5324 51.1887C82.7124 51.5431 82.8062 51.935 82.8062 52.3325C82.8062 52.73 82.7124 53.1218 82.5324 53.4762C82.3524 53.8306 82.0913 54.1375 81.7704 54.372C81.4457 54.6652 81.1011 54.9356 80.7392 55.1813C79.7176 55.8801 78.7802 56.6948 77.9459 57.6091C76.373 59.3452 76.2294 61.525 76.2098 63.8158C76.2106 63.854 76.198 63.8912 76.1741 63.921C76.1503 63.9508 76.1167 63.9713 76.0793 63.9789Z" fill="white"/>
<path d="M89.0017 57.8834C90.307 59.3127 90.5811 61.1466 90.6268 63.2546H76.6471C76.6928 61.114 76.9212 59.2996 78.2722 57.8834C79.6232 56.4671 81.2874 55.8471 83.6369 55.8471C84.6215 55.8134 85.603 55.9761 86.5241 56.3257C87.4452 56.6753 88.2874 57.2048 89.0017 57.8834Z" fill="#FAFAFA"/>
<path d="M90.5615 42.7093C90.5126 44.2033 89.9633 45.6375 89.0017 46.7818C88.1855 47.6728 87.2702 48.4676 86.2736 49.1509C85.8955 49.4109 85.5357 49.6966 85.1968 50.0059C84.8544 50.293 84.5746 50.6474 84.3748 51.047C84.1749 51.4467 84.0593 51.8831 84.0351 52.3293C84.0351 53.1125 83.9045 53.3148 83.637 53.3148C83.3694 53.3148 83.2388 53.1321 83.2388 52.3293C83.2146 51.8831 83.099 51.4467 82.8992 51.047C82.6993 50.6474 82.4195 50.293 82.0771 50.0059C81.7405 49.6965 81.3829 49.4109 81.0068 49.1509C80.0068 48.4695 79.0892 47.6745 78.2722 46.7818C77.9724 46.451 77.7138 46.085 77.5021 45.6919C77.4877 45.6632 77.4818 45.6309 77.485 45.5989C77.4882 45.567 77.5004 45.5365 77.5203 45.5112C77.5401 45.4859 77.5667 45.4668 77.597 45.456C77.6273 45.4453 77.66 45.4433 77.6914 45.4504C78.9515 45.7509 80.2482 45.8695 81.542 45.8029C84.1134 45.6462 85.2686 45.2155 86.8806 43.8449C87.8465 43.0356 88.5775 41.887 89.2236 41.639C89.3842 41.5503 89.5676 41.5112 89.7504 41.5268C89.9333 41.5424 90.1074 41.6119 90.2507 41.7265C90.394 41.8412 90.5 41.9958 90.5553 42.1707C90.6107 42.3457 90.6128 42.5331 90.5615 42.7093Z" fill="#FAFAFA"/>
<path d="M83.637 54.9333C83.9001 54.9333 84.1134 54.72 84.1134 54.4569C84.1134 54.1938 83.9001 53.9805 83.637 53.9805C83.3738 53.9805 83.1605 54.1938 83.1605 54.4569C83.1605 54.72 83.3738 54.9333 83.637 54.9333Z" fill="#FAFAFA"/>
<path opacity="0.3" d="M87.5724 55.3247C88.3417 55.9113 89.056 56.5666 89.7065 57.2826C91.4426 59.1949 91.5992 61.5183 91.5992 64.3051H77.4629C79.597 64.3051 85.5687 63.3066 87.7029 61.2181C89.961 58.9926 88.8516 57.1064 87.5724 55.3247Z" fill="#FF3D3D"/>
<path opacity="0.3" d="M91.5992 40.4902C91.5992 43.277 91.4426 45.607 89.7065 47.5127C87.9705 49.4184 86.5738 50.0841 85.8625 50.7759C85.5932 50.9545 85.3723 51.197 85.2196 51.4817C85.0668 51.7664 84.9868 52.0844 84.9868 52.4075C84.9868 52.7306 85.0668 53.0487 85.2196 53.3334C85.3723 53.6181 85.5932 53.8606 85.8625 54.0392C83.5195 52.6164 83.9045 51.1871 84.3353 50.2342C84.766 49.2814 87.6899 47.4801 87.5267 44.8434C87.3636 42.2067 83.2584 40.5098 79.3556 40.5098L91.5992 40.4902Z" fill="#FF3D3D"/>
<path d="M93.0415 38.3496C93.0415 38.7252 92.8923 39.0854 92.6267 39.351C92.3611 39.6166 92.0009 39.7658 91.6253 39.7658H75.6551C75.2795 39.7658 74.9192 39.6166 74.6536 39.351C74.388 39.0854 74.2388 38.7252 74.2388 38.3496H93.0415Z" fill="#FF3D3D"/>
<path opacity="0.2" d="M86.5803 38.3496C86.5786 38.7258 86.428 39.086 86.1613 39.3514C85.8947 39.6168 85.5338 39.7659 85.1576 39.7658H75.6551C75.2795 39.7658 74.9192 39.6166 74.6536 39.351C74.388 39.0854 74.2388 38.7252 74.2388 38.3496H86.5803Z" fill="white"/>
<path d="M94.1706 36.594V37.1422C94.1706 37.4624 94.0434 37.7695 93.817 37.996C93.5905 38.2224 93.2834 38.3496 92.9632 38.3496H74.3302C74.01 38.3496 73.7029 38.2224 73.4764 37.996C73.25 37.7695 73.1228 37.4624 73.1228 37.1422V36.594C73.1245 36.5276 73.1521 36.4645 73.1996 36.4182C73.2472 36.3719 73.3109 36.346 73.3773 36.346H93.903C93.9372 36.3433 93.9716 36.3477 94.004 36.3589C94.0363 36.3702 94.066 36.388 94.0912 36.4113C94.1163 36.4346 94.1364 36.4629 94.15 36.4943C94.1637 36.5258 94.1707 36.5597 94.1706 36.594Z" fill="#FF3D3D"/>
<path opacity="0.15" d="M94.1314 36.594V37.1422C94.1314 37.4624 94.0042 37.7695 93.7778 37.9959C93.5514 38.2224 93.2443 38.3496 92.924 38.3496H74.3106C73.9904 38.3496 73.6833 38.2224 73.4568 37.9959C73.2304 37.7695 73.1032 37.4624 73.1032 37.1422V36.594C73.1032 36.5282 73.1293 36.4651 73.1758 36.4186C73.2224 36.3721 73.2854 36.3459 73.3512 36.3459H93.8769C93.9433 36.3459 94.0071 36.3718 94.0546 36.4182C94.1022 36.4645 94.1297 36.5276 94.1314 36.594Z" fill="black"/>
<path d="M88.7993 36.594V37.1422C88.7993 37.4624 88.6721 37.7695 88.4457 37.9959C88.2193 38.2224 87.9122 38.3496 87.5919 38.3496H74.3302C74.01 38.3496 73.7029 38.2224 73.4764 37.9959C73.25 37.7695 73.1228 37.4624 73.1228 37.1422V36.594C73.1245 36.5276 73.1521 36.4645 73.1996 36.4182C73.2472 36.3718 73.3109 36.3459 73.3773 36.3459H88.5513C88.6171 36.3459 88.6802 36.3721 88.7267 36.4186C88.7732 36.4651 88.7993 36.5282 88.7993 36.594Z" fill="#FF3D3D"/>
<path opacity="0.2" d="M76.3208 38.3496C76.0867 38.0682 75.9585 37.7138 75.9585 37.3478C75.9585 36.9817 76.0867 36.6273 76.3208 36.3459H80.5956C80.8333 36.6256 80.9639 36.9807 80.9639 37.3478C80.9639 37.7148 80.8333 38.0699 80.5956 38.3496H76.3208Z" fill="white"/>
<path opacity="0.2" d="M77.0452 39.7658C76.888 39.5633 76.8027 39.3141 76.8027 39.0577C76.8027 38.8013 76.888 38.5522 77.0452 38.3496H79.8777C80.0349 38.5522 80.1202 38.8013 80.1202 39.0577C80.1202 39.3141 80.0349 39.5633 79.8777 39.7658H77.0452Z" fill="white"/>
<path d="M74.2388 66.3088C74.2388 65.9332 74.388 65.573 74.6536 65.3074C74.9192 65.0418 75.2795 64.8926 75.6551 64.8926H91.6253C92.0009 64.8926 92.3611 65.0418 92.6267 65.3074C92.8923 65.573 93.0415 65.9332 93.0415 66.3088H74.2388Z" fill="#FF3D3D"/>
<path opacity="0.2" d="M80.7 66.3088C80.7 65.9332 80.8492 65.573 81.1148 65.3074C81.3804 65.0418 81.7406 64.8926 82.1163 64.8926H91.6253C92.0009 64.8926 92.3611 65.0418 92.6267 65.3074C92.8923 65.573 93.0415 65.9332 93.0415 66.3088H80.7Z" fill="white"/>
<path d="M73.1228 68.0645V67.5162C73.1228 67.196 73.25 66.8889 73.4764 66.6625C73.7029 66.436 74.01 66.3088 74.3302 66.3088H92.9436C93.2639 66.3088 93.571 66.436 93.7974 66.6625C94.0238 66.8889 94.151 67.196 94.151 67.5162V68.0645C94.1519 68.0976 94.1461 68.1305 94.1341 68.1614C94.122 68.1922 94.1039 68.2203 94.0807 68.2441C94.0576 68.2678 94.03 68.2866 93.9995 68.2995C93.9689 68.3124 93.9362 68.319 93.903 68.319H73.3773C73.3098 68.319 73.2451 68.2922 73.1974 68.2444C73.1496 68.1967 73.1228 68.132 73.1228 68.0645Z" fill="#FF3D3D"/>
<path opacity="0.15" d="M73.1228 68.0645V67.5162C73.1228 67.196 73.25 66.8889 73.4764 66.6625C73.7029 66.436 74.01 66.3088 74.3302 66.3088H92.9436C93.2639 66.3088 93.571 66.436 93.7974 66.6625C94.0238 66.8889 94.151 67.196 94.151 67.5162V68.0645C94.1519 68.0976 94.1461 68.1305 94.1341 68.1614C94.122 68.1922 94.1039 68.2203 94.0807 68.2441C94.0576 68.2678 94.03 68.2866 93.9995 68.2995C93.9689 68.3124 93.9362 68.319 93.903 68.319H73.3773C73.3098 68.319 73.2451 68.2922 73.1974 68.2444C73.1496 68.1967 73.1228 68.132 73.1228 68.0645Z" fill="black"/>
<path d="M78.5071 68.0645V67.5162C78.5071 67.196 78.6344 66.8889 78.8608 66.6625C79.0872 66.436 79.3943 66.3088 79.7145 66.3088H92.9763C93.2965 66.3088 93.6036 66.436 93.83 66.6625C94.0565 66.8889 94.1837 67.196 94.1837 67.5162V68.0645C94.1846 68.0976 94.1788 68.1305 94.1667 68.1614C94.1546 68.1922 94.1365 68.2203 94.1134 68.2441C94.0903 68.2678 94.0626 68.2866 94.0321 68.2995C94.0016 68.3124 93.9688 68.319 93.9357 68.319H78.729C78.6667 68.3124 78.6092 68.2825 78.5681 68.2353C78.5269 68.1881 78.5052 68.1271 78.5071 68.0645Z" fill="#FF3D3D"/>
<path opacity="0.2" d="M90.9531 66.3088C91.1901 66.5901 91.3201 66.9461 91.3201 67.3139C91.3201 67.6817 91.1901 68.0377 90.9531 68.319H86.6783C86.4437 68.0366 86.3152 67.681 86.3152 67.3139C86.3152 66.9468 86.4437 66.5912 86.6783 66.3088H90.9531Z" fill="white"/>
<path opacity="0.2" d="M90.2548 64.8926C90.4119 65.0952 90.4972 65.3443 90.4972 65.6007C90.4972 65.8571 90.4119 66.1062 90.2548 66.3088H87.4157C87.2596 66.1058 87.175 65.8568 87.175 65.6007C87.175 65.3446 87.2596 65.0956 87.4157 64.8926H90.2548Z" fill="white"/>
</svg>
