<svg width="100" height="100" viewBox="0 0 100 100" fill="none" xmlns="http://www.w3.org/2000/svg">
<g clip-path="url(#clip0_2856_387)">
<path d="M88.8889 11.1111H11.1111C9.63767 11.1111 8.22459 11.6964 7.18273 12.7383C6.14086 13.7801 5.55554 15.1932 5.55554 16.6666V83.3333C5.55554 84.8067 6.14086 86.2198 7.18273 87.2617C8.22459 88.3036 9.63767 88.8889 11.1111 88.8889H88.8889C90.3623 88.8889 91.7754 88.3036 92.8172 87.2617C93.8591 86.2198 94.4444 84.8067 94.4444 83.3333V16.6666C94.4444 15.1932 93.8591 13.7801 92.8172 12.7383C91.7754 11.6964 90.3623 11.1111 88.8889 11.1111ZM11.1111 83.3333V16.6666H88.8889V83.3333H11.1111Z" fill="#F5F5F5"/>
<path d="M24.7778 38.8888C26.426 38.8888 28.0371 38.4001 29.4075 37.4844C30.778 36.5687 31.8461 35.2673 32.4768 33.7445C33.1075 32.2218 33.2725 30.5463 32.951 28.9298C32.6295 27.3132 31.8358 25.8284 30.6703 24.6629C29.5049 23.4975 28.0201 22.7038 26.4035 22.3823C24.787 22.0608 23.1115 22.2258 21.5888 22.8565C20.066 23.4872 18.7646 24.5553 17.8489 25.9258C16.9332 27.2962 16.4445 28.9073 16.4445 30.5555C16.4445 32.7656 17.3224 34.8853 18.8852 36.4481C20.448 38.0109 22.5677 38.8888 24.7778 38.8888ZM24.7778 26.1111C25.658 26.1056 26.52 26.3615 27.2545 26.8465C27.989 27.3316 28.563 28.0237 28.9037 28.8354C29.2443 29.647 29.3363 30.5415 29.168 31.4054C28.9996 32.2694 28.5785 33.0639 27.9581 33.6882C27.3377 34.3126 26.5458 34.7387 25.6829 34.9124C24.82 35.0862 23.925 34.9998 23.1112 34.6642C22.2975 34.3287 21.6017 33.759 21.1121 33.0276C20.6225 32.2961 20.3611 31.4357 20.3611 30.5555C20.3684 29.3864 20.8361 28.2672 21.6628 27.4405C22.4895 26.6138 23.6087 26.1461 24.7778 26.1388V26.1111Z" fill="#F5F5F5"/>
<path d="M63.2778 42.6945L48.2778 57.6945L37.1667 46.5834C36.6462 46.066 35.9422 45.7756 35.2083 45.7756C34.4745 45.7756 33.7705 46.066 33.25 46.5834L16.4445 63.6111V71.4723L35.3056 52.6111L44.4445 61.6111L34.0278 72.0278H41.6667L65.1389 48.5556L83.3333 66.6667V58.8334L67.1945 42.6945C66.674 42.1771 65.97 41.8867 65.2361 41.8867C64.5023 41.8867 63.7982 42.1771 63.2778 42.6945Z" fill="#F5F5F5"/>
</g>
<defs>
<clipPath id="clip0_2856_387">
<rect width="100" height="100" fill="white"/>
</clipPath>
</defs>
</svg>
