<svg width="24" height="24" viewBox="0 0 24 24" fill="none" xmlns="http://www.w3.org/2000/svg">
<path d="M19.5789 16.5C18.6947 16.5 18.0632 15.75 18.0632 15C18.0632 14.125 18.8211 13.5 19.5789 13.5C20.3368 13.5 21.0947 14.25 21.0947 15C21.2211 15.75 20.4632 16.5 19.5789 16.5ZM19.5789 10.5C17.1789 10.5 15.1579 12.5 15.1579 14.875C15.1579 18.125 19.5789 23 19.5789 23C19.5789 23 24 18.125 24 14.875C24 12.5 21.9789 10.5 19.5789 10.5ZM15.0316 9.625C14.6526 8 13.1368 6.75 11.3684 6.75C9.22105 6.75 7.57895 8.375 7.57895 10.5C7.57895 12.625 9.22105 14.25 11.3684 14.25C11.8737 14.25 12.2526 14.125 12.6316 14C12.8842 12.25 13.7684 10.75 15.0316 9.625ZM12.6316 15.5H5.05263C5.05263 14.837 4.78647 14.2011 4.31269 13.7322C3.83891 13.2634 3.19634 13 2.52632 13V8C3.19634 8 3.83891 7.73661 4.31269 7.26777C4.78647 6.79893 5.05263 6.16304 5.05263 5.5H17.6842C17.6842 6.16304 17.9504 6.79893 18.4242 7.26777C18.8979 7.73661 19.5405 8 20.2105 8C20.2105 8 21.4737 8 22.7368 8.75V3H0V18H13.2632C13.0105 17.125 12.7579 16.375 12.6316 15.5Z" fill="#FF3D3D"/>
</svg>
