<svg width="24" height="8" viewBox="0 0 24 8" fill="none" xmlns="http://www.w3.org/2000/svg">
<path fill-rule="evenodd" clip-rule="evenodd" d="M4.13488 0.711548H4.04262C3.2759 0.727874 2.52071 1.03806 1.96389 1.57168C1.31112 2.18273 0.936526 3.07318 0.928223 3.97063V4.05412C0.943908 4.93291 1.30789 5.80284 1.94175 6.40736C2.50318 6.9559 3.27267 7.27542 4.05369 7.28848H4.14411C5.19962 7.27636 6.21545 6.67883 6.76442 5.77066C7.23405 5.01781 7.37845 4.07092 7.16993 3.20752C6.99509 2.4626 6.55406 1.78391 5.94327 1.33053C5.42428 0.938709 4.78212 0.723676 4.13488 0.711548ZM2.70155 3.3839C2.99956 3.47206 3.31741 3.41842 3.60759 3.32373C3.76748 3.27044 3.92488 3.20951 4.08228 3.14858L4.08229 3.14858L4.0823 3.14858L4.08231 3.14857L4.08232 3.14857C4.33681 3.05006 4.59132 2.95155 4.85639 2.88527C5.21115 2.80131 5.60973 2.86894 5.89391 3.10683C5.95013 3.16143 5.95 3.24033 5.94988 3.31514V3.31516C5.94985 3.33365 5.94983 3.35188 5.95065 3.36944C5.94748 3.61022 5.94861 3.85108 5.94973 4.09192V4.09199C5.95139 4.44693 5.95305 4.80184 5.94096 5.15641C5.89815 5.138 5.85556 5.11845 5.81292 5.09888L5.81289 5.09886L5.81289 5.09886C5.63729 5.01825 5.46074 4.9372 5.26328 4.93345C4.85148 4.91056 4.47081 5.04875 4.08942 5.18721C3.77908 5.29987 3.46826 5.41271 3.13981 5.43908C2.84179 5.46007 2.5304 5.3887 2.28866 5.20725C2.23914 5.13795 2.24161 5.0512 2.24403 4.96628C2.24501 4.93175 2.24599 4.89751 2.24345 4.86488C2.24805 4.64936 2.24601 4.43344 2.24398 4.2175V4.21749V4.21749V4.21749V4.21748C2.2407 3.86931 2.23742 3.52109 2.26191 3.17447C2.31628 3.19896 2.36861 3.22811 2.42091 3.25724L2.42091 3.25725L2.42092 3.25725C2.51105 3.30746 2.60113 3.35763 2.70155 3.3839ZM8.9557 2.34969C8.79253 2.35073 8.62937 2.35177 8.46629 2.34981C8.46606 2.90348 8.46606 3.45727 8.46606 4.01112C8.46606 4.56497 8.46606 5.11888 8.46583 5.67279C8.64722 5.67302 8.82849 5.67302 9.00977 5.67302H9.01088C9.19253 5.67302 9.37417 5.67302 9.55593 5.67326C9.82027 5.67372 10.0874 5.62241 10.3236 5.4988C10.9519 5.18722 11.3159 4.4381 11.1955 3.74356C11.0958 3.02056 10.4712 2.40625 9.74554 2.35727C9.48236 2.34633 9.21901 2.34801 8.9557 2.34969ZM9.15297 4.68609C9.15433 4.14555 9.15568 3.605 9.15094 3.06446C9.22142 3.06665 9.29231 3.0654 9.36325 3.06415C9.51844 3.06142 9.67389 3.05869 9.82585 3.09198C10.2046 3.17967 10.4966 3.5365 10.5234 3.92645C10.5635 4.31454 10.3407 4.71522 9.98639 4.87381C9.79435 4.96557 9.58328 4.96111 9.37439 4.9567C9.29976 4.95512 9.22542 4.95355 9.15232 4.95637L9.15297 4.68609ZM12.4162 3.69359C12.4383 2.97293 13.08 2.32549 13.8015 2.35022C14.5087 2.34275 15.1297 2.97619 15.1578 3.68286C15.1651 4.08885 15.164 4.495 15.1629 4.90112V4.90114V4.90115V4.90117C15.1622 5.15808 15.1614 5.41498 15.1629 5.6718L15.1625 5.6718C14.9334 5.67227 14.7047 5.67273 14.476 5.6718C14.4748 5.55285 14.4749 5.4339 14.475 5.31501V5.31499V5.31498V5.31496C14.4752 5.1961 14.4753 5.07729 14.4741 4.9586C14.2044 4.95997 13.9349 4.95973 13.6654 4.95949H13.6652C13.4766 4.95932 13.288 4.95915 13.0994 4.95953C13.0987 5.04822 13.099 5.13697 13.0994 5.22573V5.22581C13.0999 5.37559 13.1005 5.52542 13.0961 5.67507C12.9439 5.67134 12.7919 5.67175 12.6399 5.67216H12.6399H12.6399H12.6399H12.6398C12.5639 5.67237 12.4879 5.67258 12.412 5.67227C12.4128 5.43243 12.4122 5.19252 12.4116 4.95262V4.95246V4.95246V4.95245C12.4105 4.53269 12.4094 4.11295 12.4162 3.69359ZM13.2751 3.30274C13.0879 3.50728 13.0933 3.78329 13.0986 4.04778C13.0999 4.11502 13.1012 4.18151 13.0993 4.2459C13.2824 4.24608 13.4655 4.24597 13.6487 4.24586H13.6487H13.6487H13.6492C13.9242 4.24569 14.1992 4.24552 14.4741 4.24636C14.4724 4.18222 14.4738 4.11605 14.4753 4.04915C14.4811 3.79063 14.487 3.52138 14.3108 3.3172C14.0649 2.99068 13.5297 2.98322 13.2751 3.30274ZM16.3645 3.70117C16.3848 3.0668 16.8752 2.47814 17.4976 2.37133C17.9607 2.2813 18.4571 2.46555 18.7588 2.83031C18.9922 3.09013 19.1113 3.44183 19.1113 3.79073C19.1122 4.20895 19.1119 4.62695 19.1116 5.04503V5.04508C19.1114 5.25416 19.1113 5.46325 19.1113 5.67239C19.0335 5.67287 18.9556 5.67258 18.8777 5.6723H18.8777H18.8777C18.7275 5.67175 18.5772 5.67121 18.4271 5.67612C18.4222 5.32072 18.423 4.96516 18.4237 4.60963C18.4244 4.33616 18.425 4.0627 18.423 3.78933C18.4267 3.53558 18.2924 3.28277 18.0728 3.15683C17.8449 3.01876 17.5363 3.03928 17.3273 3.20534C17.1465 3.34201 17.0455 3.56964 17.0487 3.79633C17.0476 4.15371 17.0478 4.51093 17.0479 4.86818C17.048 5.13621 17.0482 5.40426 17.0478 5.67239C16.964 5.67205 16.8803 5.6722 16.7966 5.67236C16.6501 5.67263 16.5036 5.6729 16.3572 5.67052C16.3621 5.3541 16.3612 5.03756 16.3603 4.72102C16.3593 4.38104 16.3583 4.04104 16.3645 3.70117ZM20.5331 2.99399C20.7984 2.57605 21.2883 2.30644 21.7833 2.35402C22.3429 2.38901 22.8393 2.82001 22.9943 3.35875C23.0515 3.54065 23.0542 3.73066 23.0569 3.9205V3.92059C23.0585 4.02915 23.06 4.13765 23.0718 4.24454V5.66861C22.896 5.67351 22.7202 5.6729 22.5445 5.67228C22.4859 5.67208 22.4273 5.67188 22.3687 5.67188C22.3684 5.59527 22.3685 5.51861 22.3687 5.44193V5.44172C22.369 5.27991 22.3692 5.11802 22.3655 4.95634C22.0872 4.9606 21.8088 4.96002 21.5304 4.95944H21.5303H21.5301C21.3511 4.95907 21.1721 4.9587 20.993 4.95961C20.9928 5.07832 20.9928 5.19702 20.9928 5.31579C20.9928 5.43456 20.9928 5.55339 20.9926 5.67234H20.3052C20.305 5.36612 20.305 5.06001 20.305 4.75396C20.305 4.44791 20.305 4.14192 20.3047 3.83593C20.3015 3.54114 20.3712 3.24168 20.5331 2.99399ZM21.1652 3.30737C20.9816 3.51116 20.9871 3.78495 20.9923 4.04742V4.04752C20.9936 4.11484 20.995 4.18141 20.9931 4.24587C21.2987 4.24618 21.6043 4.24607 21.9097 4.24597H21.9102L22.3683 4.24587C22.3662 4.18007 22.3677 4.11215 22.3691 4.04352C22.3746 3.78612 22.3802 3.51867 22.2036 3.31577C21.9554 2.98879 21.418 2.98459 21.1652 3.30737Z" fill="#108EE9"/>
</svg>
