<svg width="24" height="24" viewBox="0 0 24 24" fill="none" xmlns="http://www.w3.org/2000/svg">
<path fill-rule="evenodd" clip-rule="evenodd" d="M0.7032 3.71157C-7.15256e-08 4.42314 0 5.567 0 7.85714V15.1429C0 17.433 -7.15256e-08 18.5769 0.7032 19.2884C1.4064 20 2.5368 20 4.8 20H19.2C21.4632 20 22.5936 20 23.2968 19.2884C24 18.5769 24 17.433 24 15.1429V7.85714C24 5.567 24 4.42314 23.2968 3.71157C22.5936 3 21.4632 3 19.2 3H4.8C2.5368 3 1.4064 3 0.7032 3.71157ZM3.6 5.42857C3.28174 5.42857 2.97652 5.55651 2.75147 5.78423C2.52643 6.01195 2.4 6.32081 2.4 6.64286C2.4 6.96491 2.52643 7.27376 2.75147 7.50149C2.97652 7.72921 3.28174 7.85714 3.6 7.85714H6C6.31826 7.85714 6.62348 7.72921 6.84853 7.50149C7.07357 7.27376 7.2 6.96491 7.2 6.64286C7.2 6.32081 7.07357 6.01195 6.84853 5.78423C6.62348 5.55651 6.31826 5.42857 6 5.42857H3.6ZM16.8 16.3571C16.8 16.0351 16.9264 15.7262 17.1515 15.4985C17.3765 15.2708 17.6817 15.1429 18 15.1429H20.4C20.7183 15.1429 21.0235 15.2708 21.2485 15.4985C21.4736 15.7262 21.6 16.0351 21.6 16.3571C21.6 16.6792 21.4736 16.9881 21.2485 17.2158C21.0235 17.4435 20.7183 17.5714 20.4 17.5714H18C17.6817 17.5714 17.3765 17.4435 17.1515 17.2158C16.9264 16.9881 16.8 16.6792 16.8 16.3571ZM13.2 11.5C13.2 11.822 13.0736 12.1309 12.8485 12.3586C12.6235 12.5864 12.3183 12.7143 12 12.7143C11.6817 12.7143 11.3765 12.5864 11.1515 12.3586C10.9264 12.1309 10.8 11.822 10.8 11.5C10.8 11.178 10.9264 10.8691 11.1515 10.6414C11.3765 10.4136 11.6817 10.2857 12 10.2857C12.3183 10.2857 12.6235 10.4136 12.8485 10.6414C13.0736 10.8691 13.2 11.178 13.2 11.5ZM15.6 11.5C15.6 12.4661 15.2207 13.3927 14.5456 14.0759C13.8705 14.7591 12.9548 15.1429 12 15.1429C11.0452 15.1429 10.1295 14.7591 9.45442 14.0759C8.77928 13.3927 8.4 12.4661 8.4 11.5C8.4 10.5339 8.77928 9.60728 9.45442 8.92411C10.1295 8.24094 11.0452 7.85714 12 7.85714C12.9548 7.85714 13.8705 8.24094 14.5456 8.92411C15.2207 9.60728 15.6 10.5339 15.6 11.5Z" fill="#FF3D3D"/>
</svg>
