<svg width="22" height="6" viewBox="0 0 22 6" fill="none" xmlns="http://www.w3.org/2000/svg">
<path fill-rule="evenodd" clip-rule="evenodd" d="M2.21179 0.646619C2.46126 0.605974 2.7172 0.610687 2.96784 0.635722C3.20023 0.68373 3.43467 0.737333 3.64791 0.844836C4.07939 1.05071 4.44666 1.38441 4.69142 1.79527C4.89435 2.17492 5.03395 2.60081 5.01304 3.03582C5.01893 3.92883 4.45314 4.77972 3.65174 5.15936C3.13219 5.40647 2.52782 5.44034 1.97264 5.30486C1.59712 5.1894 1.23485 5.00267 0.961232 4.7158C0.700576 4.474 0.503832 4.16592 0.378952 3.83428C0.216079 3.42636 0.201352 2.97279 0.270566 2.54308C0.397213 1.90484 0.791584 1.31961 1.34971 0.980318C1.60949 0.809198 1.90814 0.707586 2.21179 0.646619ZM1.8784 1.79262C1.69049 1.81177 1.4852 1.87774 1.38124 2.04739C1.26638 2.20988 1.25439 2.41312 1.24301 2.60621L1.24016 2.65353C1.23782 2.70223 1.23347 2.75087 1.22912 2.79952C1.22034 2.89768 1.21157 2.99587 1.21925 3.09473C1.22497 3.16148 1.22901 3.22845 1.23305 3.29544L1.23305 3.29544C1.24315 3.46281 1.25325 3.63024 1.28964 3.79452C1.3347 4.00158 1.52114 4.16209 1.72672 4.19979C2.10986 4.26887 2.50017 4.2628 2.88813 4.25676H2.88814L2.99466 4.25516C3.15341 4.24633 3.31216 4.23013 3.46914 4.20509C3.70417 4.17446 3.91181 3.98302 3.9504 3.7474C4.01784 3.45847 4.02992 3.16041 4.00989 2.86558C3.97219 2.6765 3.83848 2.50597 3.65675 2.43675C3.57488 2.39719 3.48407 2.39744 3.39499 2.39767C3.37928 2.39772 3.36363 2.39776 3.34809 2.39758C3.17287 2.3978 2.99765 2.3977 2.82245 2.3976H2.82244C2.51584 2.39743 2.20928 2.39726 1.90284 2.39876C1.86762 2.3994 1.83474 2.38736 1.80215 2.37542L1.80215 2.37542C1.79006 2.37099 1.77801 2.36657 1.76589 2.36283C1.76501 2.29685 1.76736 2.19819 1.85601 2.19642C2.08685 2.19121 2.3179 2.19274 2.54894 2.19428H2.54895C2.85324 2.1963 3.1575 2.19833 3.46119 2.18493C3.4282 2.03178 3.33483 1.87185 3.17402 1.82944C3.02882 1.79056 2.87861 1.77083 2.72929 1.75698C2.68669 1.75645 2.64404 1.75564 2.60134 1.75482C2.35945 1.7502 2.11648 1.74556 1.8784 1.79262ZM3.52302 3.07914C3.44556 3.05823 3.35278 3.08886 3.32569 3.16868C3.30868 3.26056 3.33593 3.34908 3.363 3.43703C3.37437 3.47396 3.38571 3.5108 3.39372 3.54773L3.46441 3.58867C3.49474 3.571 3.52567 3.5551 3.55777 3.54125C3.56124 3.46353 3.57997 3.38877 3.59869 3.31404C3.607 3.28088 3.6153 3.24773 3.62227 3.21433C3.60784 3.15925 3.57162 3.10889 3.52302 3.07914Z" fill="#01ACD7"/>
<path fill-rule="evenodd" clip-rule="evenodd" d="M7.91169 1.01824C7.68461 0.929292 7.43249 0.939306 7.19451 0.968758C6.67968 1.04828 6.22788 1.44118 6.07531 1.93922C6.0061 2.13656 6.00757 2.3495 6.02583 2.55537C6.08739 3.08199 6.48353 3.5444 6.98628 3.7055C7.34266 3.8133 7.75382 3.81683 8.08281 3.62392C8.12577 3.60015 8.16479 3.57079 8.20383 3.54142C8.24026 3.51401 8.2767 3.48659 8.31637 3.4637L8.31697 3.49106C8.32185 3.70814 8.32737 3.95365 8.16262 4.11755C8.05218 4.25244 7.88518 4.32342 7.71641 4.34934C7.3515 4.4162 6.96567 4.29161 6.69441 4.04185C6.63411 4.10328 6.57093 4.16195 6.50776 4.22062L6.50775 4.22062L6.50775 4.22062C6.40555 4.31554 6.30336 4.41044 6.21344 4.51692C6.49737 4.78553 6.85699 4.97933 7.24694 5.03087C7.62806 5.07888 8.03804 5.05561 8.37763 4.85975C8.66568 4.69983 8.89246 4.4268 8.98141 4.10842C9.03662 3.94976 9.03586 3.78028 9.03513 3.61448L9.03501 3.58651C9.03472 2.70853 9.03472 1.83084 9.03501 0.952854C8.897 0.951144 8.75899 0.951221 8.62098 0.951298C8.52131 0.951354 8.42164 0.95141 8.32196 0.950792L8.3223 1.02313C8.32274 1.10151 8.32318 1.17989 8.32137 1.25828C8.19856 1.15784 8.06278 1.06919 7.91169 1.01824ZM7.00718 1.78341C7.12529 1.67856 7.28198 1.63851 7.43484 1.61583C7.73908 1.56959 8.08132 1.7089 8.23713 1.98134C8.29995 2.09172 8.29734 2.21649 8.29475 2.34007V2.34008V2.34009V2.3401V2.3401C8.29385 2.38336 8.29294 2.42648 8.29485 2.46878C8.32048 2.72855 8.11814 2.95769 7.88635 3.04605C7.60625 3.15149 7.26077 3.15856 7.01631 2.96388C6.64992 2.68909 6.64256 2.06204 7.00718 1.78341ZM14.1692 0.951388C13.8647 0.949327 13.5472 1.04034 13.3277 1.26005L13.3221 1.17589L13.3221 1.17578L13.3221 1.17568C13.319 1.1274 13.3159 1.07925 13.3121 1.03121C13.0724 1.02826 12.8326 1.02738 12.5929 1.03121C12.5932 1.7581 12.5932 2.48499 12.5931 3.21188V3.21667C12.5931 3.76024 12.5931 4.30382 12.5932 4.84739C12.7616 4.85825 12.9305 4.8573 13.0993 4.85636H13.0993H13.0994H13.0994H13.0994H13.0994C13.1779 4.85592 13.2564 4.85548 13.3348 4.85623C13.3403 4.51944 13.3391 4.18248 13.3379 3.84549L13.3378 3.84489C13.3374 3.73001 13.337 3.61512 13.3369 3.50023C13.8658 3.92052 14.7079 3.87427 15.1836 3.39213C15.7013 2.87288 15.7311 1.94748 15.2324 1.40555C14.97 1.10395 14.5671 0.937251 14.1692 0.951388ZM13.3716 2.04468C13.4491 1.81171 13.6859 1.6727 13.9159 1.62705C14.153 1.57904 14.4181 1.63883 14.6013 1.80023C14.9117 2.08238 14.9141 2.62461 14.6213 2.92002C14.3276 3.20424 13.8081 3.19894 13.5162 2.91472C13.3919 2.80486 13.3268 2.63286 13.3377 2.46851C13.3402 2.42519 13.339 2.38123 13.3379 2.33722V2.33722V2.33721V2.3372V2.3372C13.3352 2.23762 13.3326 2.13782 13.3716 2.04468ZM10.4423 0.987612C10.8608 0.903377 11.3188 0.954036 11.6831 1.18701C11.9603 1.3543 12.1711 1.62556 12.2654 1.93511C12.3947 2.34185 12.3367 2.8072 12.0946 3.16122C11.8539 3.51789 11.4431 3.73643 11.019 3.77737C10.7577 3.79504 10.4876 3.78621 10.2405 3.69108C9.83112 3.55353 9.48771 3.21571 9.36695 2.79836C9.23736 2.40723 9.29744 1.95955 9.51952 1.61319C9.7251 1.28921 10.0697 1.06802 10.4423 0.987612ZM10.6175 1.63084C10.5132 1.66059 10.4158 1.71243 10.3303 1.77869C10.0346 2.01166 9.96248 2.4723 10.1731 2.78421C10.4137 3.18094 11.0346 3.25928 11.3603 2.92705C11.5196 2.78067 11.5953 2.56214 11.5741 2.34801C11.5921 1.87324 11.0655 1.49065 10.6175 1.63084ZM17.4544 0.969053C17.0258 0.912798 16.5616 0.972587 16.2062 1.23442C16.0009 1.39759 15.8253 1.62202 15.7906 1.88886C15.8929 1.90639 15.9944 1.92852 16.0959 1.95066C16.2281 1.9795 16.3604 2.00833 16.4945 2.02699C16.5525 1.79402 16.7546 1.60877 16.9917 1.57048C17.1451 1.54397 17.3047 1.55192 17.4541 1.59728C17.5845 1.63969 17.6838 1.78254 17.6267 1.91861C17.5202 2.01565 17.3754 2.04499 17.2375 2.07295C17.2197 2.07655 17.202 2.08014 17.1846 2.08384L17.1128 2.09403C16.7626 2.14349 16.3987 2.1949 16.1007 2.39721C15.7323 2.65493 15.7308 3.26136 16.0716 3.54292C16.3528 3.78473 16.749 3.81242 17.1018 3.76559C17.346 3.71994 17.5919 3.6142 17.7477 3.41304C17.7486 3.46267 17.7486 3.51229 17.7486 3.56196C17.7486 3.61162 17.7486 3.66132 17.7495 3.7111L17.9108 3.71068C18.0813 3.71014 18.2519 3.70959 18.4228 3.71228C18.4234 3.37995 18.4233 3.04771 18.4232 2.71552V2.7143V2.71429V2.71427C18.4232 2.46484 18.4231 2.21543 18.4233 1.96603C18.426 1.76369 18.3521 1.56665 18.2407 1.39995C18.0599 1.14606 17.753 1.01794 17.4544 0.969053ZM16.5272 2.98481C16.4883 2.89262 16.5634 2.80161 16.6385 2.75625C16.79 2.67277 16.9605 2.64163 17.1307 2.61054C17.3357 2.57308 17.5403 2.53571 17.7106 2.40695C17.709 2.44737 17.7103 2.48969 17.7116 2.53259V2.53263V2.53266C17.716 2.6776 17.7206 2.82923 17.6143 2.93739C17.4087 3.14238 17.0956 3.18008 16.8191 3.16241C16.7042 3.15563 16.5531 3.11587 16.5272 2.98481ZM18.7192 1.02915C18.64 1.0293 18.5609 1.02944 18.4817 1.02944C18.6906 1.466 18.9042 1.90036 19.1177 2.33476C19.3181 2.74234 19.5185 3.14995 19.7151 3.55943C19.6185 3.77191 19.5134 3.98049 19.4084 4.18907C19.2973 4.40954 19.1863 4.63 19.0852 4.85505C19.1702 4.85469 19.2554 4.85534 19.3405 4.856C19.5298 4.85745 19.7192 4.85891 19.9084 4.84916C20.5289 3.57739 21.1489 2.30563 21.7683 1.03327C21.49 1.0262 21.2119 1.02738 20.9339 1.03209C20.6671 1.6179 20.397 2.20254 20.1254 2.786C20.0454 2.6131 19.9644 2.44058 19.8835 2.26807C19.7513 1.98628 19.6192 1.70451 19.4907 1.42116C19.4701 1.37503 19.4475 1.32981 19.4248 1.2846C19.3833 1.20167 19.3417 1.11877 19.3131 1.03032C19.1152 1.02843 18.9172 1.02879 18.7192 1.02915Z" fill="#010101"/>
</svg>
