<svg width="200" height="200" viewBox="0 0 200 200" fill="none" xmlns="http://www.w3.org/2000/svg">
<path d="M200 133.932H123.274V89.5321H200V133.932ZM123.743 133.464H199.532V90.0003H123.743V133.464Z" fill="#E0E0E0"/>
<path d="M184.172 113.207H133.55V114.691H184.172V113.207Z" fill="#F0F0F0"/>
<path d="M187.66 118.74H133.55V120.36H187.66V118.74Z" fill="#F0F0F0"/>
<path d="M187.66 124.339H133.55V125.959H187.66V124.339Z" fill="#F0F0F0"/>
<path d="M151.242 105.168H133.55V109.021H151.242V105.168Z" fill="#F0F0F0"/>
<path d="M199.766 89.7661H123.522V96.8352H199.766V89.7661Z" fill="#E0E0E0"/>
<path d="M193.9 95.7773C193.802 95.6837 194.785 94.4992 196.091 93.1322C197.397 91.7652 198.544 90.7306 198.638 90.8195C198.731 90.9085 197.753 92.0976 196.447 93.4693C195.14 94.841 193.993 95.8709 193.9 95.7773Z" fill="white"/>
<path d="M198.647 95.7773C198.553 95.8709 197.411 94.841 196.1 93.4693C194.789 92.0976 193.811 90.9131 193.909 90.8195C194.007 90.7259 195.145 91.7558 196.456 93.1322C197.767 94.5086 198.736 95.6836 198.647 95.7773Z" fill="white"/>
<path d="M105.587 1.84216H29.3438V45.7784H105.587V1.84216Z" fill="#E6E6E6"/>
<path d="M89.9979 25.2874H39.3765V26.7714H89.9979V25.2874Z" fill="#F0F0F0"/>
<path d="M93.4857 30.8209H39.3765V32.4407H93.4857V30.8209Z" fill="#F0F0F0"/>
<path d="M93.4857 36.42H39.3765V38.0399H93.4857V36.42Z" fill="#F0F0F0"/>
<path d="M57.068 17.2491H39.3765V21.1021H57.068V17.2491Z" fill="#F0F0F0"/>
<path d="M105.587 1.84216H29.3438V8.91129H105.587V1.84216Z" fill="#E0E0E0"/>
<path d="M99.4638 7.82052C99.3655 7.73158 100.349 6.54246 101.655 5.17545C102.961 3.80845 104.108 2.77383 104.202 2.86746C104.295 2.96109 103.317 4.14552 102.011 5.51253C100.704 6.87954 99.5574 7.90479 99.4638 7.82052Z" fill="white"/>
<path d="M104.202 7.82055C104.108 7.91418 102.966 6.88424 101.655 5.51255C100.344 4.14086 99.3655 2.96111 99.4638 2.86748C99.5621 2.77385 100.7 3.80379 102.011 5.17548C103.321 6.54717 104.3 7.7316 104.202 7.82055Z" fill="white"/>
<path d="M76.7117 83.4601H0V39.0557H76.7117V83.4601ZM0.468154 82.9919H76.2435V39.5238H0.468154V82.9919Z" fill="#E0E0E0"/>
<path d="M60.8881 62.735H10.2666V64.219H60.8881V62.735Z" fill="#F0F0F0"/>
<path d="M64.3758 68.2686H10.2666V69.8884H64.3758V68.2686Z" fill="#F0F0F0"/>
<path d="M64.3758 73.8677H10.2666V75.4875H64.3758V73.8677Z" fill="#F0F0F0"/>
<path d="M27.9581 54.6968H10.2666V58.5497H27.9581V54.6968Z" fill="#F0F0F0"/>
<path d="M76.4774 39.2898H0.233887V46.3589H76.4774V39.2898Z" fill="#E0E0E0"/>
<path d="M165.244 93.6331H75.2183V174.23H165.244V93.6331Z" fill="#E6E6E6"/>
<path d="M79.7453 68.2451H9.22266V141.516H79.7453V68.2451Z" fill="#F0F0F0"/>
<path d="M79.7453 68.2451H9.22266V76.2271H79.7453V68.2451Z" fill="#E0E0E0"/>
<path d="M15.0466 72.1542C15.0338 72.4436 14.9362 72.7229 14.7661 72.9574C14.5959 73.1919 14.3607 73.3713 14.0895 73.4733C13.8183 73.5753 13.5231 73.5954 13.2406 73.5311C12.958 73.4669 12.7006 73.321 12.5002 73.1118C12.2998 72.9025 12.1653 72.639 12.1133 72.354C12.0614 72.0689 12.0943 71.7749 12.2079 71.5084C12.3215 71.2419 12.5109 71.0146 12.7526 70.8547C12.9943 70.6949 13.2775 70.6095 13.5673 70.6093C13.9679 70.6191 14.3484 70.7871 14.6256 71.0765C14.9028 71.366 15.0542 71.7534 15.0466 72.1542Z" fill="white"/>
<path d="M21.0528 72.1542C21.0408 72.445 20.9437 72.7259 20.7733 72.9619C20.6029 73.1979 20.3669 73.3786 20.0947 73.4815C19.8224 73.5844 19.5259 73.605 19.242 73.5406C18.9581 73.4763 18.6994 73.3299 18.4981 73.1197C18.2968 72.9095 18.1618 72.6447 18.1098 72.3583C18.0578 72.0719 18.0912 71.7765 18.2058 71.509C18.3204 71.2414 18.5112 71.0135 18.7543 70.8535C18.9975 70.6935 19.2823 70.6086 19.5734 70.6093C19.9741 70.6191 20.3546 70.7871 20.6318 71.0766C20.909 71.366 21.0603 71.7534 21.0528 72.1542Z" fill="white"/>
<path d="M27.0591 72.1542C27.0472 72.445 26.95 72.7259 26.7796 72.9619C26.6093 73.1979 26.3733 73.3786 26.101 73.4815C25.8287 73.5844 25.5322 73.605 25.2483 73.5406C24.9645 73.4763 24.7058 73.3299 24.5045 73.1197C24.3032 72.9095 24.1681 72.6447 24.1161 72.3583C24.0642 72.0719 24.0976 71.7765 24.2122 71.509C24.3268 71.2414 24.5175 71.0135 24.7607 70.8535C25.0039 70.6935 25.2887 70.6086 25.5798 70.6093C25.9804 70.6191 26.3609 70.7871 26.6381 71.0766C26.9153 71.366 27.0667 71.7534 27.0591 72.1542Z" fill="white"/>
<path d="M189.93 17.8671H99.9038V107.593H189.93V17.8671Z" fill="#F0F0F0"/>
<path d="M189.93 17.8671H99.9038V28.3771H189.93V17.8671Z" fill="#E0E0E0"/>
<path d="M107.573 23.0168C107.556 23.3989 107.428 23.7677 107.203 24.0775C106.979 24.3872 106.669 24.6243 106.311 24.7592C105.953 24.8942 105.563 24.921 105.19 24.8364C104.817 24.7518 104.478 24.5596 104.213 24.2835C103.948 24.0074 103.77 23.6597 103.702 23.2835C103.633 22.9073 103.676 22.5191 103.826 22.1673C103.976 21.8155 104.226 21.5154 104.545 21.3044C104.864 21.0934 105.238 20.9807 105.62 20.9803C106.149 20.9926 106.651 21.2138 107.017 21.5955C107.383 21.9771 107.583 22.4882 107.573 23.0168Z" fill="white"/>
<path d="M114.908 21.6403C115.168 21.9222 115.339 22.2742 115.4 22.6525C115.461 23.0307 115.409 23.4186 115.251 23.7676C115.093 24.1167 114.836 24.4115 114.511 24.6155C114.187 24.8194 113.81 24.9234 113.427 24.9144C113.044 24.9055 112.672 24.784 112.357 24.5652C112.043 24.3464 111.8 24.0398 111.658 23.6838C111.517 23.3277 111.483 22.9379 111.561 22.5629C111.64 22.1879 111.827 21.8442 112.099 21.5748C112.481 21.2117 112.991 21.0147 113.517 21.027C114.044 21.0393 114.544 21.2599 114.908 21.6403Z" fill="white"/>
<path d="M123.386 23.0168C123.37 23.3989 123.242 23.7677 123.017 24.0775C122.793 24.3872 122.483 24.6243 122.125 24.7592C121.767 24.8942 121.377 24.921 121.004 24.8364C120.631 24.7518 120.291 24.5596 120.027 24.2835C119.762 24.0074 119.584 23.6597 119.516 23.2835C119.447 22.9073 119.49 22.5191 119.64 22.1673C119.79 21.8155 120.04 21.5154 120.359 21.3044C120.678 21.0934 121.052 20.9807 121.434 20.9803C121.963 20.9926 122.465 21.2138 122.831 21.5955C123.197 21.9771 123.397 22.4882 123.386 23.0168Z" fill="white"/>
<path d="M170.483 198.036C170.483 198.102 137.975 198.158 97.8865 198.158C57.7985 198.158 25.2759 198.102 25.2759 198.036C25.2759 197.97 57.7798 197.914 97.8865 197.914C137.993 197.914 170.483 197.975 170.483 198.036Z" fill="#263238"/>
<path d="M138.808 140.725C131.575 135.673 129.936 126.296 130.222 117.865C130.269 116.46 130.114 114.972 130.784 113.74C131.453 112.509 133.017 111.662 134.276 112.252C135.32 112.743 135.774 113.96 136.359 114.967C137.14 116.308 138.284 117.4 139.66 118.118C140.554 118.586 141.664 118.867 142.548 118.38C143.766 117.71 143.906 116.039 143.897 114.634C143.897 112.022 143.881 109.413 143.85 106.807C143.766 105.408 143.908 104.004 144.271 102.65C144.707 101.32 145.676 100.089 147 99.7144C148.325 99.3399 149.978 100.112 150.278 101.479C150.329 102.058 150.343 102.64 150.32 103.221C150.357 103.806 150.629 104.447 151.176 104.625C151.724 104.803 152.295 104.396 152.717 103.984C154.159 102.58 155.142 100.749 156.055 98.942C156.967 97.1349 157.862 95.2763 159.172 93.7361C160.483 92.1959 162.295 90.974 164.322 90.857C166.349 90.7399 168.461 91.9852 168.966 93.9515C169.472 95.9177 168.325 97.9261 167.094 99.5225C165.236 101.892 163.046 103.981 160.591 105.726C160.112 105.987 159.729 106.396 159.5 106.891C159.196 107.828 160.081 108.764 161.003 109.059C162.047 109.405 163.18 109.298 164.28 109.429C165.38 109.56 166.551 110.037 166.967 111.067C167.538 112.5 166.34 113.998 165.165 114.981C162.805 116.947 160.126 118.494 157.244 119.555C156.214 119.929 155.132 120.262 154.299 120.983C153.466 121.704 152.969 122.963 153.47 123.951C153.971 124.939 155.259 125.252 156.34 125.051C157.422 124.85 158.381 124.269 159.411 123.881C161.335 123.155 163.817 123.286 165.029 124.948C165.405 125.52 165.642 126.172 165.724 126.852C165.805 127.532 165.727 128.221 165.497 128.866C165.029 130.15 164.308 131.326 163.376 132.326C160.31 135.989 156.326 138.773 151.832 140.392C147.37 141.937 143.237 142.359 138.803 140.734" fill="#FF3D3D"/>
<path d="M166.906 92.0133C166.906 92.0133 166.864 92.0601 166.77 92.1444L166.354 92.5142C165.988 92.8419 165.45 93.3195 164.771 93.9515C162.847 95.7385 161.059 97.6681 159.425 99.7238C158.381 101.021 157.3 102.491 156.148 104.087C154.996 105.683 153.807 107.406 152.627 109.237C151.37 111.167 150.218 113.164 149.177 115.22C148.634 116.292 148.156 117.411 147.665 118.553L146.214 122.041C144.301 126.434 142.635 130.93 141.223 135.509C140.086 139.256 139.303 143.101 138.882 146.993C138.61 149.62 138.566 152.266 138.751 154.9C138.826 155.837 138.896 156.553 138.962 157.04C138.99 157.274 139.009 157.461 139.027 157.597V157.789C139.007 157.728 138.993 157.665 138.985 157.602C138.962 157.466 138.934 157.283 138.896 157.049C138.812 156.581 138.723 155.841 138.639 154.905C138.413 152.266 138.429 149.611 138.686 146.975C139.08 143.065 139.846 139.203 140.975 135.439C142.375 130.847 144.036 126.339 145.951 121.938L147.44 118.464C147.932 117.326 148.414 116.198 148.962 115.121C150.01 113.06 151.171 111.058 152.44 109.124C153.639 107.252 154.846 105.557 155.984 103.975C157.122 102.392 158.222 100.913 159.261 99.6208C160.912 97.5705 162.723 95.6544 164.678 93.8906C165.37 93.268 165.923 92.7998 166.297 92.4861L166.733 92.135C166.786 92.0886 166.844 92.0478 166.906 92.0133Z" fill="#263238"/>
<path d="M149.023 115.112C148.957 114.919 148.911 114.72 148.887 114.517C148.812 114.129 148.728 113.581 148.629 112.869C148.428 111.465 148.222 109.541 148.002 107.411C147.782 105.281 147.534 103.352 147.328 101.961C147.22 101.269 147.127 100.712 147.061 100.323C147.01 100.124 146.983 99.9197 146.981 99.7144C147.062 99.9019 147.12 100.098 147.155 100.3C147.258 100.683 147.375 101.236 147.506 101.933C147.773 103.338 148.035 105.248 148.255 107.383C148.475 109.517 148.662 111.39 148.807 112.846C148.877 113.501 148.938 114.059 148.985 114.503C149.022 114.704 149.034 114.908 149.023 115.112Z" fill="#263238"/>
<path d="M167.037 111.751C166.81 111.8 166.578 111.829 166.345 111.835C165.876 111.877 165.212 111.933 164.388 112.027C162.74 112.205 160.474 112.533 157.988 113.001C155.502 113.469 153.269 113.998 151.663 114.405C150.863 114.611 150.217 114.798 149.791 114.925C149.563 115.006 149.328 115.062 149.088 115.093C149.305 114.985 149.53 114.895 149.763 114.826C150.203 114.672 150.839 114.457 151.635 114.227C153.232 113.759 155.465 113.202 157.96 112.724C160.074 112.32 162.206 112.023 164.35 111.835C165.179 111.765 165.848 111.737 166.316 111.727C166.557 111.711 166.798 111.719 167.037 111.751Z" fill="#263238"/>
<path d="M141.205 135.111C141.155 135.044 141.114 134.97 141.083 134.891L140.774 134.241C140.507 133.674 140.147 132.836 139.716 131.811C138.845 129.751 137.736 126.867 136.556 123.665C135.376 120.463 134.29 117.579 133.466 115.496C133.064 114.485 132.731 113.656 132.483 113.038L132.221 112.369C132.185 112.291 132.159 112.209 132.146 112.125C132.196 112.193 132.237 112.267 132.268 112.345L132.577 112.996C132.839 113.562 133.204 114.4 133.635 115.426C134.505 117.485 135.615 120.369 136.795 123.571C137.975 126.774 139.061 129.657 139.885 131.741C140.287 132.752 140.62 133.581 140.863 134.199C140.971 134.465 141.06 134.667 141.13 134.868C141.166 134.945 141.191 135.027 141.205 135.111Z" fill="#263238"/>
<path d="M165.118 127.401C165.043 127.444 164.962 127.477 164.879 127.499L164.186 127.733L161.625 128.562C159.462 129.264 156.476 130.266 153.198 131.371C149.921 132.476 146.921 133.459 144.744 134.114C143.658 134.447 142.773 134.7 142.159 134.868L141.452 135.051C141.37 135.077 141.286 135.094 141.2 135.102C141.275 135.059 141.355 135.026 141.438 135.004L142.131 134.77L144.692 133.941C146.855 133.239 149.842 132.237 153.119 131.132C156.396 130.027 159.392 129.044 161.569 128.389C162.66 128.056 163.54 127.804 164.158 127.635L164.865 127.452C164.947 127.426 165.032 127.409 165.118 127.401Z" fill="#263238"/>
<path d="M155.361 13.8409L152.95 14.7024L151.916 11.5517C150.015 5.74189 143.957 2.65675 138.391 4.61832C132.825 6.57988 129.861 12.9515 131.762 18.7612L132.796 21.9119L130.376 22.778C129.453 23.136 128.704 23.8358 128.283 24.7321C127.863 25.6284 127.804 26.6522 128.12 27.5906L134.828 48.0911C134.967 48.5556 135.199 48.9875 135.508 49.3609C135.818 49.7343 136.199 50.0418 136.629 50.2649C137.06 50.4881 137.531 50.6224 138.015 50.6599C138.498 50.6975 138.984 50.6374 139.444 50.4833L164.43 41.5463C165.365 41.1889 166.125 40.4829 166.55 39.5766C166.975 38.6703 167.032 37.6344 166.709 36.6869L159.996 16.1864C159.853 15.7231 159.619 15.2934 159.306 14.9228C158.993 14.5523 158.609 14.2485 158.177 14.0296C157.744 13.8107 157.272 13.6812 156.788 13.6488C156.305 13.6164 155.819 13.6817 155.361 13.8409ZM136.317 17.118C135.804 15.6074 135.896 13.957 136.574 12.5127C137.251 11.0684 138.461 9.94222 139.95 9.37008C140.685 9.11851 141.464 9.01763 142.239 9.07345C143.014 9.12928 143.77 9.34067 144.461 9.69501C145.153 10.0494 145.766 10.5394 146.264 11.1359C146.762 11.7324 147.135 12.4231 147.361 13.1668L148.391 16.3175L137.347 20.2687L136.317 17.118ZM150.362 35.3105L152.075 40.5444C152.106 40.6494 152.096 40.7624 152.047 40.8601C151.997 40.9577 151.912 41.0325 151.808 41.0688L149.407 41.9255C149.311 41.952 149.209 41.9405 149.122 41.8933C149.034 41.8462 148.969 41.7671 148.938 41.6727L147.211 36.4621C146.258 36.4102 145.344 36.0686 144.591 35.4829C143.838 34.8973 143.282 34.0955 142.997 33.1851C142.59 31.9814 142.665 30.6669 143.205 29.5168C143.745 28.3666 144.709 27.4701 145.895 27.0148C146.481 26.8147 147.101 26.7345 147.718 26.7791C148.336 26.8237 148.938 26.9921 149.489 27.2743C150.04 27.5566 150.528 27.9468 150.925 28.4218C151.322 28.8968 151.619 29.4468 151.799 30.0391C152.1 30.9639 152.125 31.9566 151.87 32.8954C151.616 33.8342 151.093 34.6784 150.366 35.3245L150.362 35.3105Z" fill="#FF3D3D"/>
<path d="M152.843 14.6462C152.843 14.7117 148.372 16.3924 142.811 18.3914C137.249 20.3904 132.712 21.9962 132.689 21.9494C132.666 21.9026 137.16 20.2079 142.726 18.2042C148.293 16.2005 152.82 14.5853 152.843 14.6462Z" fill="#263238"/>
<path d="M158.152 15.5076C158.173 15.5482 158.19 15.5905 158.203 15.634C158.241 15.7276 158.283 15.8493 158.339 15.9991C158.461 16.3409 158.629 16.8137 158.84 17.4036L160.638 22.6376C161.387 24.8566 162.281 27.4876 163.274 30.4089C163.742 31.8742 164.294 33.4004 164.809 35.0062C165.085 35.8337 165.204 36.7052 165.16 37.5763C165.121 38.0294 164.992 38.4701 164.781 38.8731C164.556 39.2748 164.256 39.6293 163.896 39.9171C163.173 40.4451 162.37 40.8544 161.518 41.1296L159.107 41.9957L154.543 43.6296L146.813 46.3823L141.593 48.2175L140.189 48.6856L139.814 48.8073C139.774 48.8252 139.732 48.8362 139.688 48.8401C139.688 48.8401 139.725 48.8401 139.805 48.7839L140.17 48.6388L141.575 48.1098L146.766 46.1997L154.482 43.3908L159.037 41.7429L161.448 40.8721C162.276 40.6081 163.055 40.2112 163.756 39.6971C164.09 39.43 164.37 39.101 164.58 38.728C164.778 38.3552 164.897 37.9457 164.931 37.5248C164.974 36.6855 164.86 35.8456 164.594 35.0483C164.088 33.4566 163.554 31.9164 163.072 30.451C162.099 27.5251 161.2 24.8847 160.488 22.6656C159.776 20.4466 159.177 18.6629 158.765 17.4083C158.569 16.795 158.419 16.3175 158.297 15.971L158.185 15.5965C158.171 15.5681 158.16 15.5383 158.152 15.5076Z" fill="#263238"/>
<path d="M144.969 9.05173C144.969 9.05173 144.72 8.93001 144.262 8.74275C143.608 8.49148 142.916 8.3522 142.216 8.33077C141.178 8.29518 140.145 8.49025 139.192 8.90192C138.032 9.41454 137.041 10.2437 136.331 11.2942C135.617 12.3417 135.234 13.5796 135.231 14.8475C135.241 15.8866 135.398 16.9191 135.699 17.9139C135.943 18.7659 136.195 19.4447 136.364 19.9176C136.463 20.1578 136.545 20.405 136.607 20.6573C136.474 20.4327 136.363 20.196 136.275 19.9504C136.083 19.4822 135.807 18.8174 135.535 17.9607C135.202 16.9555 135.02 15.9062 134.997 14.8475C134.984 13.5317 135.377 12.2439 136.12 11.1584C136.855 10.0695 137.887 9.21476 139.093 8.69593C140.076 8.28201 141.142 8.09942 142.206 8.16224C142.922 8.1987 143.625 8.36527 144.28 8.6538C144.456 8.73468 144.625 8.82857 144.786 8.93469C144.853 8.96395 144.914 9.00344 144.969 9.05173Z" fill="#263238"/>
<path d="M145.184 27.3706C145.259 27.3253 145.337 27.2862 145.418 27.2536C145.652 27.1478 145.895 27.0617 146.144 26.9961C146.538 26.8796 146.945 26.8105 147.356 26.7901C147.915 26.7601 148.474 26.8445 148.999 27.0382C150.198 27.4596 151.298 28.6814 151.841 30.3153C152.101 31.1921 152.101 32.1257 151.841 33.0025C151.552 33.9542 151.035 34.8205 150.334 35.5259L150.362 35.3995C150.984 37.1082 151.663 38.9621 152.365 40.8956L152.408 41.0126L152.291 41.0547L151.218 41.4105L148.878 42.1924L148.761 42.2298L148.723 42.1128C148.082 40.1746 147.38 38.3675 146.851 36.5932L146.954 36.6728C146.038 36.5968 145.166 36.2533 144.444 35.685C143.792 35.1823 143.256 34.5432 142.876 33.8124C142.533 33.1643 142.362 32.4389 142.38 31.7057C142.401 30.9564 142.588 30.2212 142.928 29.5526C143.267 28.8841 143.749 28.2989 144.341 27.8388C144.585 27.641 144.858 27.483 145.151 27.3706C144.887 27.5275 144.63 27.6978 144.383 27.8809C143.733 28.4309 143.235 29.1385 142.937 29.9361C142.681 30.5375 142.561 31.1882 142.586 31.8414C142.611 32.4946 142.78 33.1341 143.082 33.7141C143.456 34.4172 143.978 35.0306 144.613 35.5118C145.301 36.052 146.133 36.3776 147.005 36.4481H147.085L147.108 36.5183C147.623 38.2599 148.33 40.081 148.981 42.0285L148.826 41.9536L151.167 41.1718L152.234 40.8113L152.159 40.9705C151.462 39.037 150.788 37.1784 150.17 35.4697V35.3995L150.226 35.3433C150.907 34.6672 151.414 33.8369 151.705 32.9229C151.954 32.0842 151.954 31.1915 151.705 30.3528C151.195 28.7798 150.142 27.586 148.999 27.1646C148.494 26.9697 147.954 26.8789 147.412 26.8978C147.008 26.907 146.606 26.962 146.214 27.0616C145.516 27.2348 145.189 27.394 145.184 27.3706Z" fill="#263238"/>
<path d="M130.713 162.545L83.9496 162.33C81.249 162.315 78.6647 161.229 76.7643 159.31C74.864 157.391 73.8028 154.797 73.8141 152.096L74.3103 34.8657C74.3158 33.5277 74.585 32.204 75.1024 30.9701C75.6198 29.7362 76.3753 28.6164 77.3257 27.6747C78.2761 26.7329 79.4028 25.9878 80.6414 25.4817C81.88 24.9757 83.2062 24.7187 84.5441 24.7255L131.303 24.9408C134.004 24.9545 136.589 26.0394 138.49 27.9573C140.391 29.8753 141.454 32.4694 141.444 35.17L140.947 152.396C140.942 153.734 140.673 155.058 140.155 156.293C139.638 157.527 138.883 158.648 137.932 159.59C136.982 160.532 135.856 161.279 134.617 161.786C133.378 162.293 132.052 162.551 130.713 162.545Z" fill="#455A64"/>
<path d="M131.233 28.9717H122.17C121.874 28.9772 121.582 29.0408 121.311 29.1591C121.04 29.2774 120.795 29.4479 120.59 29.6609C120.384 29.8739 120.223 30.1253 120.115 30.4006C120.007 30.676 119.954 30.9699 119.96 31.2656V32.9089C119.966 33.2043 119.913 33.498 119.805 33.7731C119.697 34.0482 119.535 34.2993 119.33 34.5119C119.125 34.7246 118.88 34.8946 118.609 35.0124C118.337 35.1301 118.046 35.1932 117.75 35.1981L100.082 35.1185C99.4845 35.1026 98.9176 34.8501 98.5059 34.4165C98.0942 33.9829 97.8715 33.4036 97.8866 32.8059V31.1626C97.9017 30.5657 97.6796 29.9871 97.2689 29.5536C96.8582 29.1201 96.2925 28.8671 95.6956 28.85H92.5075L84.5723 28.8125C82.6849 28.8013 80.8699 29.5384 79.5248 30.8624C78.1797 32.1865 77.414 33.9896 77.3955 35.8769L76.9273 150.303C76.923 151.239 77.1032 152.167 77.4575 153.034C77.8118 153.901 78.3334 154.689 78.9925 155.354C79.6515 156.02 80.4351 156.548 81.2985 156.911C82.1619 157.273 83.0882 157.462 84.0245 157.466L130.69 157.681C131.627 157.686 132.556 157.505 133.423 157.151C134.29 156.796 135.079 156.274 135.745 155.615C136.41 154.955 136.939 154.171 137.302 153.307C137.664 152.443 137.853 151.516 137.858 150.579L138.326 36.1532C138.337 34.2605 137.596 32.4408 136.266 31.0941C134.936 29.7475 133.126 28.9841 131.233 28.9717Z" fill="white"/>
<path d="M124.955 142.415L90.2555 142.265C89.895 142.265 89.6047 141.872 89.6094 141.394L89.6469 132.317C89.6469 131.848 89.9418 131.446 90.3023 131.446L125.002 131.605C125.202 131.64 125.38 131.75 125.501 131.913C125.621 132.076 125.674 132.279 125.648 132.48L125.615 141.549C125.615 142.031 125.316 142.419 124.955 142.415Z" fill="#FF3D3D"/>
<path d="M99.9026 138.877C99.6726 138.877 99.4659 138.837 99.2826 138.757C99.1026 138.674 98.9609 138.56 98.8576 138.417C98.7543 138.27 98.7009 138.102 98.6976 137.912H99.1826C99.1993 138.075 99.2659 138.214 99.3826 138.327C99.5026 138.437 99.6759 138.492 99.9026 138.492C100.119 138.492 100.289 138.439 100.413 138.332C100.539 138.222 100.603 138.082 100.603 137.912C100.603 137.779 100.566 137.67 100.493 137.587C100.419 137.504 100.328 137.44 100.218 137.397C100.108 137.354 99.9593 137.307 99.7726 137.257C99.5426 137.197 99.3576 137.137 99.2176 137.077C99.0809 137.017 98.9626 136.924 98.8626 136.797C98.7659 136.667 98.7176 136.494 98.7176 136.277C98.7176 136.087 98.7659 135.919 98.8626 135.772C98.9593 135.625 99.0943 135.512 99.2676 135.432C99.4443 135.352 99.6459 135.312 99.8726 135.312C100.199 135.312 100.466 135.394 100.673 135.557C100.883 135.72 101.001 135.937 101.028 136.207H100.528C100.511 136.074 100.441 135.957 100.318 135.857C100.194 135.754 100.031 135.702 99.8276 135.702C99.6376 135.702 99.4826 135.752 99.3626 135.852C99.2426 135.949 99.1826 136.085 99.1826 136.262C99.1826 136.389 99.2176 136.492 99.2876 136.572C99.3609 136.652 99.4493 136.714 99.5526 136.757C99.6593 136.797 99.8076 136.844 99.9976 136.897C100.228 136.96 100.413 137.024 100.553 137.087C100.693 137.147 100.813 137.242 100.913 137.372C101.013 137.499 101.063 137.672 101.063 137.892C101.063 138.062 101.018 138.222 100.928 138.372C100.838 138.522 100.704 138.644 100.528 138.737C100.351 138.83 100.143 138.877 99.9026 138.877ZM102.187 135.357V138.842H101.732V135.357H102.187ZM105.603 136.367C105.506 136.164 105.366 136.007 105.183 135.897C104.999 135.784 104.786 135.727 104.543 135.727C104.299 135.727 104.079 135.784 103.883 135.897C103.689 136.007 103.536 136.167 103.423 136.377C103.313 136.584 103.258 136.824 103.258 137.097C103.258 137.37 103.313 137.61 103.423 137.817C103.536 138.024 103.689 138.184 103.883 138.297C104.079 138.407 104.299 138.462 104.543 138.462C104.883 138.462 105.163 138.36 105.383 138.157C105.603 137.954 105.731 137.679 105.768 137.332H104.378V136.962H106.253V137.312C106.226 137.599 106.136 137.862 105.983 138.102C105.829 138.339 105.628 138.527 105.378 138.667C105.128 138.804 104.849 138.872 104.543 138.872C104.219 138.872 103.924 138.797 103.658 138.647C103.391 138.494 103.179 138.282 103.023 138.012C102.869 137.742 102.793 137.437 102.793 137.097C102.793 136.757 102.869 136.452 103.023 136.182C103.179 135.909 103.391 135.697 103.658 135.547C103.924 135.394 104.219 135.317 104.543 135.317C104.913 135.317 105.239 135.409 105.523 135.592C105.809 135.775 106.018 136.034 106.148 136.367H105.603ZM109.594 138.842H109.139L107.309 136.067V138.842H106.854V135.352H107.309L109.139 138.122V135.352H109.594V138.842ZM112.148 135.357V137.562C112.148 137.872 112.223 138.102 112.373 138.252C112.526 138.402 112.738 138.477 113.008 138.477C113.275 138.477 113.483 138.402 113.633 138.252C113.786 138.102 113.863 137.872 113.863 137.562V135.357H114.318V137.557C114.318 137.847 114.26 138.092 114.143 138.292C114.026 138.489 113.868 138.635 113.668 138.732C113.471 138.829 113.25 138.877 113.003 138.877C112.756 138.877 112.533 138.829 112.333 138.732C112.136 138.635 111.98 138.489 111.863 138.292C111.75 138.092 111.693 137.847 111.693 137.557V135.357H112.148ZM117.407 136.377C117.407 136.667 117.307 136.909 117.107 137.102C116.91 137.292 116.609 137.387 116.202 137.387H115.532V138.842H115.077V135.357H116.202C116.595 135.357 116.894 135.452 117.097 135.642C117.304 135.832 117.407 136.077 117.407 136.377ZM116.202 137.012C116.455 137.012 116.642 136.957 116.762 136.847C116.882 136.737 116.942 136.58 116.942 136.377C116.942 135.947 116.695 135.732 116.202 135.732H115.532V137.012H116.202Z" fill="#E8E8E3"/>
<path d="M97.1765 62.6086L85.1357 62.554L85.1257 64.7636L97.1665 64.8183L97.1765 62.6086Z" fill="#FF3D3D"/>
<path opacity="0.1" d="M97.1765 62.6086L85.1357 62.554L85.1257 64.7636L97.1665 64.8183L97.1765 62.6086Z" fill="black"/>
<path d="M132.474 76.1756C132.568 76.166 132.661 76.144 132.75 76.11C132.879 76.0594 132.992 75.9732 133.075 75.8614C133.158 75.7496 133.207 75.6167 133.218 75.478C133.218 74.7337 133.218 73.6475 133.218 72.2524C133.218 71.5549 133.218 70.7731 133.218 69.9117C133.218 69.701 133.218 69.481 133.218 69.2609C133.248 69.0474 133.202 68.83 133.087 68.6477C133.022 68.5602 132.939 68.4889 132.842 68.4394C132.745 68.3898 132.638 68.3634 132.53 68.3621H131.799H125.035L85.8782 68.217C85.778 68.2153 85.6788 68.2378 85.5892 68.2826C85.4995 68.3274 85.422 68.3932 85.3632 68.4744C85.2502 68.6576 85.207 68.8753 85.2415 69.0877C85.2415 69.5559 85.2415 70.024 85.2415 70.4922C85.2415 71.4285 85.2415 72.3648 85.2415 73.3011C85.2415 73.7693 85.2415 74.2374 85.2415 74.7056C85.2221 74.9236 85.2221 75.1429 85.2415 75.361C85.2661 75.4545 85.3118 75.5411 85.3751 75.6141C85.4384 75.6871 85.5176 75.7447 85.6067 75.7823C85.6989 75.819 85.7977 75.8366 85.8969 75.8338H88.2798L98.6775 75.89L116.28 75.9977L128.148 76.0913L131.373 76.1288H132.211C132.403 76.1288 132.497 76.1288 132.497 76.1288H132.211H131.373H128.148H116.28L98.6775 76.0726L88.2798 76.0304H85.8969C85.7658 76.0357 85.635 76.0134 85.513 75.9649C85.3898 75.9123 85.2802 75.8322 85.1925 75.7308C85.1049 75.6294 85.0416 75.5093 85.0074 75.3797C84.9803 75.2568 84.9709 75.1307 84.9794 75.0052V74.6588C84.9794 74.1906 84.9794 73.7224 84.9794 73.2543C84.9794 72.318 84.9794 71.3817 84.9794 70.4454C84.9794 69.9772 84.9794 69.5091 84.9794 69.0409C84.9704 68.9162 84.9704 68.7911 84.9794 68.6664C84.9969 68.5287 85.0502 68.3979 85.1338 68.2872C85.2146 68.1742 85.3215 68.0824 85.4454 68.0196C85.5693 67.9568 85.7066 67.925 85.8454 67.9267L125.002 68.142L131.767 68.1889H132.497C132.626 68.189 132.752 68.2201 132.866 68.2796C132.981 68.3391 133.079 68.4252 133.152 68.5306C133.284 68.7342 133.338 68.9788 133.302 69.2188C133.302 69.4388 133.302 69.6589 133.302 69.8695C133.302 70.7216 133.302 71.5034 133.302 72.2103C133.302 73.6148 133.269 74.6915 133.26 75.4406C133.249 75.5846 133.196 75.7223 133.109 75.8376C133.022 75.9529 132.904 76.0409 132.768 76.0913C132.68 76.1462 132.578 76.1754 132.474 76.1756Z" fill="#E0E0E0"/>
<path d="M110.774 70.5671H88.7524V72.6317H110.774V70.5671Z" fill="#FF3D3D"/>
<path opacity="0.2" d="M110.774 70.5671H88.7524V72.6317H110.774V70.5671Z" fill="white"/>
<path d="M97.0945 82.7668L85.0537 82.7122L85.0437 84.9218L97.0845 84.9765L97.0945 82.7668Z" fill="#FF3D3D"/>
<path opacity="0.1" d="M97.0945 82.7668L85.0537 82.7122L85.0437 84.9218L97.0845 84.9765L97.0945 82.7668Z" fill="black"/>
<path d="M132.305 96.1974C132.4 96.1857 132.493 96.1686 132.586 96.1459C132.717 96.1043 132.837 96.0351 132.939 95.943C133.04 95.851 133.121 95.7381 133.176 95.6122C133.249 95.4232 133.278 95.2197 133.26 95.0176C133.26 94.7929 133.26 94.5495 133.26 94.2779C133.26 93.7349 133.26 93.1169 133.26 92.4053V89.4325C133.282 89.2173 133.235 89.0006 133.124 88.8146C133.009 88.6238 132.827 88.4821 132.614 88.4167C132.381 88.375 132.143 88.3625 131.907 88.3792H125.17L86.1497 88.2341C85.9398 88.2346 85.7372 88.3113 85.5797 88.4499C85.4221 88.5885 85.3202 88.7797 85.293 88.9878C85.293 89.4326 85.293 89.9241 85.293 90.3923C85.293 91.3286 85.293 92.2649 85.293 93.2012C85.293 93.6693 85.293 94.1375 85.293 94.6057C85.2755 94.8244 85.285 95.0446 85.321 95.2611C85.3795 95.4509 85.4998 95.6157 85.6628 95.7292C85.8357 95.839 86.0389 95.8914 86.2433 95.879H86.894H88.247L98.6073 95.9305L116.149 96.0382L127.975 96.1318L131.191 96.1693H127.975H116.149L98.5979 96.1506L88.2376 96.1131H86.2012C85.948 96.1281 85.6967 96.0608 85.4849 95.9212C85.2719 95.7736 85.1164 95.5569 85.0448 95.3079C85.0029 95.07 84.9903 94.8279 85.0074 94.5869C85.0074 94.1188 85.0074 93.6506 85.0074 93.1825C85.0074 92.2462 85.0074 91.3098 85.0074 90.3735C85.0074 89.9054 85.0074 89.4372 85.0074 88.9691C85.0415 88.7014 85.1721 88.4553 85.3746 88.2769C85.5771 88.0986 85.8377 88.0001 86.1076 88L125.128 88.2153L131.865 88.2668C132.116 88.2515 132.368 88.2688 132.614 88.3183C132.857 88.3978 133.062 88.5646 133.19 88.7865C133.311 88.9927 133.363 89.232 133.34 89.47C133.34 89.69 133.34 89.9054 133.34 90.1207C133.34 90.9681 133.34 91.7452 133.34 92.4615C133.34 93.1778 133.34 93.7817 133.34 94.3341C133.34 94.601 133.34 94.8491 133.34 95.0785C133.357 95.2878 133.323 95.4982 133.241 95.6918C133.181 95.8209 133.093 95.9355 132.984 96.0276C132.874 96.1197 132.747 96.1872 132.609 96.2255C132.507 96.2339 132.404 96.2244 132.305 96.1974Z" fill="#E0E0E0"/>
<path d="M97.0037 103.8L84.9629 103.746L84.9529 105.955L96.9937 106.01L97.0037 103.8Z" fill="#FF3D3D"/>
<path opacity="0.1" d="M97.0037 103.8L84.9629 103.746L84.9529 105.955L96.9937 106.01L97.0037 103.8Z" fill="black"/>
<path d="M132.076 117.359C132.17 117.348 132.264 117.331 132.357 117.308C132.487 117.266 132.607 117.198 132.708 117.107C132.81 117.015 132.891 116.904 132.947 116.779C133.02 116.59 133.049 116.386 133.031 116.184C133.031 115.955 133.031 115.716 133.031 115.44C133.031 114.901 133.031 114.279 133.031 113.567V110.594C133.053 110.379 133.006 110.162 132.895 109.976C132.777 109.789 132.596 109.65 132.385 109.583C132.152 109.54 131.914 109.526 131.678 109.541H124.941L85.9205 109.396C85.7107 109.396 85.5081 109.473 85.3505 109.612C85.1929 109.75 85.091 109.941 85.0638 110.15C85.0638 110.618 85.0638 111.086 85.0638 111.554C85.0638 112.49 85.0638 113.427 85.0638 114.363C85.0638 114.831 85.0638 115.299 85.0638 115.767C85.0464 115.985 85.0558 116.203 85.0919 116.418C85.148 116.609 85.2688 116.775 85.4337 116.886C85.6055 116.999 85.8095 117.051 86.0142 117.036H88.0506L98.4109 117.092L115.953 117.2L127.778 117.294L130.994 117.331H127.778H115.953L98.4109 117.28L88.0506 117.237H86.0142C85.7607 117.255 85.5088 117.187 85.2979 117.046C85.0849 116.898 84.9294 116.681 84.8578 116.432C84.8159 116.194 84.8033 115.952 84.8204 115.711C84.8204 115.243 84.8204 114.775 84.8204 114.307C84.8204 113.371 84.8204 112.434 84.8204 111.498C84.8204 111.03 84.8204 110.562 84.8204 110.07C84.8535 109.803 84.9831 109.557 85.1848 109.378C85.3865 109.2 85.6465 109.101 85.9159 109.101L124.936 109.316L131.673 109.368C131.924 109.352 132.176 109.37 132.422 109.419C132.665 109.499 132.871 109.666 132.998 109.887C133.119 110.094 133.172 110.333 133.148 110.571C133.148 110.791 133.148 111.011 133.148 111.222C133.148 112.069 133.148 112.846 133.148 113.562C133.148 114.279 133.148 114.883 133.148 115.435C133.148 115.702 133.148 115.95 133.148 116.179C133.166 116.389 133.132 116.599 133.05 116.793C132.989 116.922 132.901 117.036 132.792 117.129C132.683 117.221 132.555 117.288 132.418 117.326C132.308 117.364 132.191 117.375 132.076 117.359Z" fill="#E0E0E0"/>
<path d="M110.304 91.3095L88.2827 91.2096L88.2733 93.2741L110.295 93.3741L110.304 91.3095Z" fill="#FF3D3D"/>
<path opacity="0.2" d="M110.304 91.3095L88.2827 91.2096L88.2733 93.2741L110.295 93.3741L110.304 91.3095Z" fill="white"/>
<path d="M90.2744 113.539C90.2605 113.727 90.1917 113.907 90.0765 114.057C89.9613 114.207 89.8047 114.319 89.6261 114.38C89.4476 114.442 89.2549 114.449 89.072 114.402C88.8892 114.355 88.7242 114.256 88.5975 114.116C88.4708 113.976 88.388 113.801 88.3593 113.615C88.3307 113.428 88.3574 113.237 88.4363 113.066C88.5151 112.894 88.6426 112.749 88.8029 112.65C88.9632 112.55 89.1493 112.499 89.338 112.504C89.5989 112.519 89.8434 112.636 90.0187 112.829C90.194 113.023 90.2858 113.278 90.2744 113.539Z" fill="#FF3D3D"/>
<path d="M93.256 113.553C93.2653 113.685 93.2472 113.817 93.203 113.942C93.1589 114.067 93.0895 114.181 92.9993 114.278C92.909 114.375 92.7998 114.452 92.6785 114.505C92.5572 114.557 92.4263 114.585 92.294 114.585C92.1617 114.585 92.0308 114.557 91.9095 114.505C91.7881 114.452 91.6789 114.375 91.5887 114.278C91.4985 114.181 91.4291 114.067 91.3849 113.942C91.3408 113.817 91.3227 113.685 91.3319 113.553C91.3227 113.421 91.3408 113.289 91.3849 113.164C91.4291 113.039 91.4985 112.925 91.5887 112.828C91.6789 112.731 91.7881 112.654 91.9095 112.601C92.0308 112.549 92.1617 112.521 92.294 112.521C92.4263 112.521 92.5572 112.549 92.6785 112.601C92.7998 112.654 92.909 112.731 92.9993 112.828C93.0895 112.925 93.1589 113.039 93.203 113.164C93.2472 113.289 93.2653 113.421 93.256 113.553Z" fill="#FF3D3D"/>
<path d="M96.2431 113.567C96.2293 113.755 96.1605 113.935 96.0453 114.085C95.93 114.235 95.7734 114.347 95.5949 114.409C95.4163 114.47 95.2236 114.478 95.0408 114.43C94.8579 114.383 94.6929 114.284 94.5662 114.144C94.4395 114.004 94.3567 113.829 94.3281 113.643C94.2994 113.456 94.3262 113.265 94.405 113.094C94.4839 112.922 94.6114 112.778 94.7717 112.678C94.932 112.578 95.118 112.527 95.3068 112.532C95.5672 112.548 95.811 112.665 95.9861 112.859C96.1611 113.052 96.2534 113.306 96.2431 113.567Z" fill="#FF3D3D"/>
<path d="M99.225 113.581C99.2112 113.769 99.1424 113.95 99.0272 114.099C98.912 114.249 98.7554 114.361 98.5768 114.423C98.3982 114.484 98.2056 114.492 98.0227 114.444C97.8399 114.397 97.6749 114.298 97.5482 114.158C97.4215 114.018 97.3387 113.844 97.31 113.657C97.2813 113.47 97.3081 113.279 97.387 113.108C97.4658 112.936 97.5933 112.792 97.7536 112.692C97.9139 112.592 98.1 112.541 98.2887 112.546C98.5491 112.562 98.793 112.679 98.968 112.873C99.143 113.066 99.2353 113.32 99.225 113.581Z" fill="#FF3D3D"/>
<path d="M102.207 113.59C102.194 113.779 102.126 113.96 102.012 114.11C101.897 114.26 101.741 114.373 101.562 114.435C101.383 114.498 101.191 114.506 101.007 114.459C100.824 114.413 100.659 114.313 100.532 114.173C100.404 114.033 100.321 113.859 100.292 113.672C100.263 113.486 100.29 113.294 100.369 113.123C100.447 112.951 100.575 112.806 100.735 112.706C100.896 112.606 101.082 112.555 101.271 112.561C101.531 112.576 101.774 112.693 101.949 112.885C102.123 113.078 102.216 113.331 102.207 113.59Z" fill="#FF3D3D"/>
<path d="M105.194 113.605C105.181 113.792 105.114 113.972 105 114.122C104.887 114.272 104.732 114.385 104.555 114.448C104.377 114.511 104.186 114.52 104.003 114.476C103.82 114.431 103.655 114.334 103.526 114.196C103.398 114.059 103.313 113.887 103.281 113.701C103.25 113.516 103.273 113.325 103.348 113.153C103.423 112.981 103.547 112.834 103.705 112.731C103.862 112.629 104.046 112.574 104.234 112.575C104.498 112.584 104.747 112.698 104.927 112.891C105.107 113.084 105.203 113.341 105.194 113.605Z" fill="#FF3D3D"/>
<path d="M108.176 113.619C108.186 113.751 108.168 113.883 108.123 114.008C108.079 114.132 108.01 114.247 107.92 114.343C107.829 114.44 107.72 114.517 107.599 114.57C107.478 114.623 107.347 114.65 107.214 114.65C107.082 114.65 106.951 114.623 106.83 114.57C106.709 114.517 106.599 114.44 106.509 114.343C106.419 114.247 106.35 114.132 106.305 114.008C106.261 113.883 106.243 113.751 106.252 113.619C106.243 113.487 106.261 113.354 106.305 113.229C106.35 113.105 106.419 112.99 106.509 112.894C106.599 112.797 106.709 112.72 106.83 112.667C106.951 112.614 107.082 112.587 107.214 112.587C107.347 112.587 107.478 112.614 107.599 112.667C107.72 112.72 107.829 112.797 107.92 112.894C108.01 112.99 108.079 113.105 108.123 113.229C108.168 113.354 108.186 113.487 108.176 113.619Z" fill="#FF3D3D"/>
<path d="M111.158 113.633C111.146 113.82 111.078 114 110.965 114.15C110.851 114.3 110.696 114.413 110.519 114.476C110.342 114.539 110.15 114.549 109.967 114.504C109.785 114.459 109.619 114.362 109.491 114.225C109.363 114.087 109.277 113.915 109.246 113.73C109.214 113.544 109.237 113.354 109.312 113.181C109.388 113.009 109.512 112.862 109.669 112.759C109.827 112.657 110.011 112.602 110.199 112.603C110.462 112.612 110.712 112.726 110.891 112.919C111.071 113.112 111.167 113.369 111.158 113.633Z" fill="#FF3D3D"/>
<path d="M114.14 113.647C114.127 113.835 114.059 114.016 113.945 114.166C113.83 114.316 113.674 114.429 113.495 114.492C113.317 114.554 113.124 114.562 112.94 114.515C112.757 114.469 112.592 114.369 112.465 114.229C112.338 114.09 112.254 113.915 112.225 113.729C112.196 113.542 112.223 113.351 112.302 113.179C112.38 113.007 112.508 112.862 112.668 112.762C112.829 112.662 113.015 112.612 113.204 112.617C113.464 112.632 113.707 112.749 113.882 112.941C114.057 113.134 114.149 113.387 114.14 113.647Z" fill="#FF3D3D"/>
<g opacity="0.2">
<path d="M90.2744 113.539C90.2605 113.727 90.1917 113.907 90.0765 114.057C89.9613 114.207 89.8047 114.319 89.6261 114.38C89.4476 114.442 89.2549 114.449 89.072 114.402C88.8892 114.355 88.7242 114.256 88.5975 114.116C88.4708 113.976 88.388 113.801 88.3593 113.615C88.3307 113.428 88.3574 113.237 88.4363 113.066C88.5151 112.894 88.6426 112.749 88.8029 112.65C88.9632 112.55 89.1493 112.499 89.338 112.504C89.5989 112.519 89.8434 112.636 90.0187 112.829C90.194 113.023 90.2858 113.278 90.2744 113.539Z" fill="white"/>
<path d="M93.2565 113.553C93.2657 113.685 93.2477 113.817 93.2035 113.942C93.1593 114.067 93.09 114.181 92.9997 114.278C92.9095 114.375 92.8003 114.452 92.679 114.505C92.5577 114.557 92.4268 114.585 92.2945 114.585C92.1622 114.585 92.0313 114.557 91.9099 114.505C91.7886 114.452 91.6794 114.375 91.5892 114.278C91.499 114.181 91.4296 114.067 91.3854 113.942C91.3412 113.817 91.3232 113.685 91.3324 113.553C91.3232 113.421 91.3412 113.289 91.3854 113.164C91.4296 113.039 91.499 112.925 91.5892 112.828C91.6794 112.731 91.7886 112.654 91.9099 112.601C92.0313 112.549 92.1622 112.521 92.2945 112.521C92.4268 112.521 92.5577 112.549 92.679 112.601C92.8003 112.654 92.9095 112.731 92.9997 112.828C93.09 112.925 93.1593 113.039 93.2035 113.164C93.2477 113.289 93.2657 113.421 93.2565 113.553Z" fill="white"/>
<path d="M96.2431 113.567C96.2293 113.755 96.1605 113.935 96.0453 114.085C95.93 114.235 95.7734 114.347 95.5949 114.409C95.4163 114.47 95.2236 114.478 95.0408 114.43C94.8579 114.383 94.6929 114.284 94.5662 114.144C94.4395 114.004 94.3567 113.829 94.3281 113.643C94.2994 113.456 94.3262 113.265 94.405 113.094C94.4839 112.922 94.6114 112.778 94.7717 112.678C94.932 112.578 95.118 112.527 95.3068 112.532C95.5672 112.548 95.811 112.665 95.9861 112.859C96.1611 113.052 96.2534 113.306 96.2431 113.567Z" fill="white"/>
<path d="M99.225 113.581C99.2112 113.769 99.1424 113.95 99.0272 114.099C98.912 114.249 98.7554 114.361 98.5768 114.423C98.3982 114.484 98.2056 114.492 98.0227 114.444C97.8399 114.397 97.6749 114.298 97.5482 114.158C97.4215 114.018 97.3387 113.844 97.31 113.657C97.2813 113.47 97.3081 113.279 97.387 113.108C97.4658 112.936 97.5933 112.792 97.7536 112.692C97.9139 112.592 98.1 112.541 98.2887 112.546C98.5491 112.562 98.793 112.679 98.968 112.873C99.143 113.066 99.2353 113.32 99.225 113.581Z" fill="white"/>
<path d="M102.207 113.59C102.194 113.779 102.126 113.96 102.012 114.11C101.897 114.26 101.741 114.373 101.562 114.435C101.383 114.498 101.191 114.506 101.007 114.459C100.824 114.413 100.659 114.313 100.532 114.173C100.404 114.033 100.321 113.859 100.292 113.672C100.263 113.486 100.29 113.294 100.369 113.123C100.447 112.951 100.575 112.806 100.735 112.706C100.896 112.606 101.082 112.555 101.271 112.561C101.531 112.576 101.774 112.693 101.949 112.885C102.123 113.078 102.216 113.331 102.207 113.59Z" fill="white"/>
<path d="M105.194 113.605C105.181 113.792 105.114 113.972 105 114.122C104.887 114.272 104.732 114.385 104.555 114.448C104.377 114.511 104.186 114.52 104.003 114.476C103.82 114.431 103.655 114.334 103.526 114.196C103.398 114.059 103.313 113.887 103.281 113.701C103.25 113.516 103.273 113.325 103.348 113.153C103.423 112.981 103.547 112.834 103.705 112.731C103.862 112.629 104.046 112.574 104.234 112.575C104.498 112.584 104.747 112.698 104.927 112.891C105.107 113.084 105.203 113.341 105.194 113.605Z" fill="white"/>
<path d="M108.176 113.619C108.186 113.751 108.168 113.883 108.123 114.008C108.079 114.132 108.01 114.247 107.92 114.343C107.829 114.44 107.72 114.517 107.599 114.57C107.478 114.623 107.347 114.65 107.214 114.65C107.082 114.65 106.951 114.623 106.83 114.57C106.709 114.517 106.599 114.44 106.509 114.343C106.419 114.247 106.35 114.132 106.305 114.008C106.261 113.883 106.243 113.751 106.252 113.619C106.243 113.487 106.261 113.354 106.305 113.229C106.35 113.105 106.419 112.99 106.509 112.894C106.599 112.797 106.709 112.72 106.83 112.667C106.951 112.614 107.082 112.587 107.214 112.587C107.347 112.587 107.478 112.614 107.599 112.667C107.72 112.72 107.829 112.797 107.92 112.894C108.01 112.99 108.079 113.105 108.123 113.229C108.168 113.354 108.186 113.487 108.176 113.619Z" fill="white"/>
<path d="M111.158 113.633C111.146 113.82 111.078 114 110.965 114.15C110.851 114.3 110.696 114.413 110.519 114.476C110.342 114.539 110.15 114.549 109.967 114.504C109.785 114.459 109.619 114.362 109.491 114.225C109.363 114.087 109.277 113.915 109.246 113.73C109.214 113.544 109.237 113.354 109.312 113.181C109.388 113.009 109.512 112.862 109.669 112.759C109.827 112.657 110.011 112.602 110.199 112.603C110.462 112.612 110.712 112.726 110.891 112.919C111.071 113.112 111.167 113.369 111.158 113.633Z" fill="white"/>
<path d="M114.14 113.647C114.127 113.835 114.059 114.016 113.945 114.166C113.83 114.316 113.674 114.429 113.495 114.492C113.317 114.554 113.124 114.562 112.94 114.515C112.757 114.469 112.592 114.369 112.465 114.229C112.338 114.09 112.254 113.915 112.225 113.729C112.196 113.542 112.223 113.351 112.302 113.179C112.38 113.007 112.508 112.862 112.668 112.762C112.829 112.662 113.015 112.612 113.204 112.617C113.464 112.632 113.707 112.749 113.882 112.941C114.057 113.134 114.149 113.387 114.14 113.647Z" fill="white"/>
</g>
<path d="M109.904 46.064C110.229 45.9208 110.505 45.6851 110.697 45.3863C110.89 45.0874 110.99 44.7387 110.985 44.3833C110.997 44.1523 110.962 43.9213 110.882 43.7043C110.802 43.4873 110.679 43.2889 110.52 43.1211C110.361 42.9533 110.169 42.8197 109.956 42.7284C109.744 42.6371 109.515 42.59 109.284 42.59C109.052 42.59 108.823 42.6371 108.611 42.7284C108.398 42.8197 108.207 42.9533 108.047 43.1211C107.888 43.2889 107.765 43.4873 107.685 43.7043C107.605 43.9213 107.57 44.1523 107.582 44.3833C107.575 44.7422 107.674 45.0952 107.867 45.3976C108.061 45.7001 108.339 45.9385 108.668 46.0827C106.046 46.476 106.163 49.3224 106.163 49.3224L112.362 49.3504C112.362 49.3504 112.507 46.4526 109.904 46.064Z" fill="#FF3D3D"/>
<path opacity="0.1" d="M109.904 46.064C110.229 45.9208 110.505 45.6851 110.697 45.3863C110.89 45.0874 110.99 44.7387 110.985 44.3833C110.997 44.1523 110.962 43.9213 110.882 43.7043C110.802 43.4873 110.679 43.2889 110.52 43.1211C110.361 42.9533 110.169 42.8197 109.956 42.7284C109.744 42.6371 109.515 42.59 109.284 42.59C109.052 42.59 108.823 42.6371 108.611 42.7284C108.398 42.8197 108.207 42.9533 108.047 43.1211C107.888 43.2889 107.765 43.4873 107.685 43.7043C107.605 43.9213 107.57 44.1523 107.582 44.3833C107.575 44.7422 107.674 45.0952 107.867 45.3976C108.061 45.7001 108.339 45.9385 108.668 46.0827C106.046 46.476 106.163 49.3224 106.163 49.3224L112.362 49.3504C112.362 49.3504 112.507 46.4526 109.904 46.064Z" fill="black"/>
<path d="M119.976 51.1863L97.8838 51.0861L97.8718 53.7264L119.964 53.8267L119.976 51.1863Z" fill="#FF3D3D"/>
<path opacity="0.2" d="M119.976 51.1863L97.8838 51.0861L97.8718 53.7264L119.964 53.8267L119.976 51.1863Z" fill="white"/>
<path d="M38.7586 64.8697H38.5386L37.9019 64.9165C37.5574 64.9372 37.2147 64.9826 36.8767 65.0522C36.6577 65.083 36.4405 65.1252 36.2259 65.1786L35.5003 65.38C34.2652 65.7589 33.0999 66.336 32.05 67.0887C30.6628 68.0956 29.5045 69.3848 28.6512 70.8714C28.1497 71.7284 27.7506 72.6413 27.4621 73.5914C27.159 74.624 26.9844 75.6901 26.9424 76.7655C26.9145 77.3304 26.9239 77.8965 26.9705 78.4602C26.9705 78.7457 27.0501 79.0313 27.0876 79.3216C27.1191 79.6142 27.1739 79.9038 27.2514 80.1877C27.6724 82.0662 28.5266 83.8205 29.7458 85.3104C30.965 86.8002 32.5156 87.9846 34.2737 88.7689C35.5462 89.318 36.9101 89.6244 38.2952 89.6725C39.7257 89.7511 41.1577 89.5459 42.5086 89.0685L42.9205 88.914H42.9767L43.0235 88.9421L48.9269 91.9383L48.7537 92.0881C48.1217 90.1312 47.5131 88.2352 46.9232 86.4141V86.3439L46.9747 86.2924C48.4068 84.85 49.4699 83.0835 50.0739 81.1427C50.621 79.3684 50.7806 77.4973 50.5421 75.6559C50.3299 74.0195 49.8037 72.4394 48.9925 71.0025C48.2932 69.7681 47.3911 68.6603 46.324 67.7254C45.4436 66.9854 44.4692 66.3652 43.4261 65.8809C42.6369 65.5405 41.8149 65.2816 40.973 65.1084L40.0367 64.9539L39.3579 64.9024L38.9459 64.8743H38.8055C38.8521 64.8692 38.8992 64.8692 38.9459 64.8743H39.3626L40.0414 64.9024L40.9777 65.0382C41.8301 65.1987 42.6633 65.4482 43.4636 65.7826C44.5246 66.2612 45.5166 66.88 46.413 67.6224C47.4997 68.5531 48.4209 69.6611 49.1376 70.8995C49.9719 72.3519 50.5142 73.9533 50.734 75.6138C50.9924 77.4836 50.8438 79.3871 50.2986 81.1942C49.6907 83.1753 48.6112 84.9794 47.1526 86.4516L47.1807 86.3298C47.7706 88.151 48.3839 90.047 49.0206 91.9992L49.1095 92.2848L48.8427 92.149L42.9393 89.1575H43.0422L42.6209 89.312C41.244 89.7965 39.7856 90.0064 38.3279 89.9299C36.913 89.8761 35.5206 89.5585 34.2222 88.9936C31.7456 87.9329 29.685 86.0894 28.3563 83.7456C27.7448 82.6632 27.2983 81.4955 27.0314 80.2813C26.9583 79.9901 26.9036 79.6946 26.8675 79.3965C26.8301 79.1015 26.7692 78.8113 26.7552 78.521C26.6285 76.8553 26.8045 75.1803 27.2748 73.5773C27.5705 72.6142 27.9807 71.69 28.4967 70.8246C29.3703 69.3244 30.5528 68.0271 31.9657 67.0185C33.0329 66.2638 34.2178 65.6912 35.4722 65.3238L36.2072 65.1365C36.4235 65.0863 36.6423 65.0473 36.8626 65.0195C37.2042 64.9562 37.55 64.9187 37.8972 64.9071L38.5386 64.8837C38.6115 64.8739 38.6851 64.8692 38.7586 64.8697Z" fill="#FF3D3D"/>
<path d="M41.427 75.787H40.5609L38.6883 73.156V71.4285C38.6883 71.4285 37.3494 71.3442 37.5085 73.6054C37.6677 75.8666 37.5085 75.2908 37.5085 75.2908C37.5085 75.2908 34.6668 75.2908 34.4328 75.5483C34.1987 75.8057 34.1846 78.5491 34.1519 80.08C34.1339 80.449 34.2398 80.8135 34.4527 81.1154C34.6656 81.4174 34.9733 81.6395 35.3269 81.7466C35.426 81.7741 35.5284 81.7882 35.6312 81.7888C36.3428 81.7888 39.9616 81.2129 39.9616 81.2129H41.4551L41.427 75.787Z" fill="#FF3D3D"/>
<path d="M43.9037 75.3236L43.37 81.2411H41.8906V75.4453L43.9037 75.3236Z" fill="#FF3D3D"/>
<path d="M61.5482 195.794V191.791L54.3714 191.739L54.3105 197.793L54.7553 197.825C56.7356 197.952 64.83 198.139 66.1595 197.727C67.6389 197.268 61.5482 195.794 61.5482 195.794Z" fill="#FF3D3D"/>
<path d="M66.3281 197.353C66.3281 197.418 63.6409 197.474 60.331 197.474C57.0212 197.474 54.334 197.418 54.334 197.353C54.334 197.287 57.0212 197.231 60.331 197.231C63.6409 197.231 66.3281 197.287 66.3281 197.353Z" fill="#263238"/>
<path d="M61.6748 196.613C61.614 196.58 61.6748 196.369 61.8199 196.145C61.9651 195.92 62.1617 195.826 62.2085 195.873C62.2553 195.92 62.157 196.098 62.0166 196.29C61.8761 196.482 61.7357 196.646 61.6748 196.613Z" fill="#263238"/>
<path d="M62.1335 196.875C62.068 196.875 62.1007 196.613 62.2412 196.365C62.3816 196.117 62.5689 195.967 62.6204 196.004C62.6719 196.042 62.5876 196.252 62.4565 196.472C62.3254 196.692 62.1944 196.898 62.1335 196.875Z" fill="#263238"/>
<path d="M56.497 197.334C56.4689 197.334 56.3612 197.25 56.2067 197.072C56.0181 196.843 55.8081 196.633 55.5794 196.444C55.3545 196.265 55.0867 196.147 54.8023 196.103C54.5822 196.075 54.4418 196.103 54.4277 196.075C54.4137 196.046 54.5495 195.948 54.807 195.929C55.1468 195.922 55.4782 196.035 55.7433 196.248C55.9916 196.45 56.201 196.696 56.3612 196.973C56.4689 197.179 56.5251 197.315 56.497 197.334Z" fill="#263238"/>
<path d="M61.6982 195.859C61.7309 195.915 61.6092 196.056 61.4032 196.131C61.1973 196.206 61.0147 196.178 61.0053 196.131C60.9959 196.084 61.1411 195.986 61.319 195.92C61.4969 195.855 61.6607 195.803 61.6982 195.859Z" fill="#263238"/>
<path d="M61.5856 195.471C61.5856 195.541 61.3983 195.597 61.1549 195.602C60.9115 195.606 60.7195 195.55 60.7242 195.485C60.7289 195.419 60.9208 195.358 61.1549 195.354C61.389 195.349 61.5762 195.405 61.5856 195.471Z" fill="#263238"/>
<path d="M79.2211 195.794V191.791L72.0443 191.739L71.9834 197.732L72.4281 197.765C74.4084 197.891 82.5075 198.139 83.8324 197.727C85.3117 197.268 79.2211 195.794 79.2211 195.794Z" fill="#FF3D3D"/>
<path d="M84.0007 197.362C84.0007 197.427 81.3181 197.484 78.0036 197.484C74.6891 197.484 72.0112 197.427 72.0112 197.362C72.0112 197.296 74.6938 197.24 78.0036 197.24C81.3134 197.24 84.0007 197.296 84.0007 197.362Z" fill="#263238"/>
<path d="M79.3476 196.613C79.2914 196.58 79.3476 196.369 79.4927 196.145C79.6379 195.92 79.8345 195.826 79.8813 195.873C79.9281 195.92 79.8298 196.098 79.6894 196.29C79.5489 196.482 79.4085 196.646 79.3476 196.613Z" fill="#263238"/>
<path d="M79.8061 196.875C79.7452 196.875 79.7733 196.613 79.9184 196.365C80.0636 196.117 80.2461 195.967 80.2976 196.004C80.3491 196.042 80.2602 196.252 80.1291 196.472C79.998 196.692 79.8716 196.898 79.8061 196.875Z" fill="#263238"/>
<path d="M74.1698 197.334C74.1417 197.334 74.0388 197.25 73.8796 197.072C73.691 196.843 73.4809 196.633 73.2523 196.444C73.0274 196.265 72.7595 196.147 72.4751 196.103C72.2598 196.075 72.1146 196.103 72.1006 196.075C72.0866 196.046 72.2223 195.948 72.4798 195.929C72.8196 195.922 73.1511 196.035 73.4161 196.248C73.6657 196.449 73.8753 196.695 74.0341 196.973C74.1418 197.179 74.1979 197.315 74.1698 197.334Z" fill="#263238"/>
<path d="M79.371 195.859C79.4038 195.915 79.2821 196.056 79.0761 196.131C78.8701 196.206 78.6875 196.178 78.6782 196.131C78.6688 196.084 78.8139 195.986 78.9918 195.92C79.1697 195.855 79.3336 195.803 79.371 195.859Z" fill="#263238"/>
<path d="M79.2679 195.471C79.2679 195.541 79.0807 195.597 78.8372 195.602C78.5938 195.606 78.4065 195.55 78.4112 195.485C78.4159 195.419 78.6032 195.358 78.8372 195.354C79.0713 195.349 79.2679 195.405 79.2679 195.471Z" fill="#263238"/>
<path d="M105.662 76.9294C105.475 76.7374 105.012 76.831 105.012 76.831C105.058 76.5615 105.058 76.286 105.012 76.0165C104.927 75.7543 104.338 75.8058 104.338 75.8058C104.31 75.585 104.31 75.3618 104.338 75.141C104.342 75.0921 104.332 75.0429 104.307 75.0002C104.283 74.9574 104.246 74.9232 104.202 74.9023C103.923 74.7885 103.623 74.7342 103.322 74.7431C102.961 74.4856 104.422 72.4398 104.965 71.7844C105.508 71.1289 105.41 70.6187 104.927 70.6187C104.595 70.6187 102.891 72.5849 102.367 73.245C101.842 73.9051 100.452 75.7403 100.405 74.2749C100.358 72.8096 99.7684 71.7048 99.3985 71.5175C99.0287 71.3302 98.6355 71.7703 98.8368 72.1776C99.0136 72.6403 99.124 73.1258 99.1645 73.6195C99.2153 74.0128 99.1979 74.4119 99.113 74.7993C98.9578 75.52 98.7464 76.2275 98.481 76.9153H98.4435C98.4435 76.9153 88.2284 86.7138 87.4887 87.4113C86.8286 88.0387 73.5518 86.667 70.888 86.3861C69.9828 86.2536 69.0688 86.191 68.154 86.1988C66.9976 86.2503 66.7916 86.4142 65.64 86.4282C62.7315 86.4605 59.8299 86.7156 56.9604 87.1913C55.6611 87.4122 54.4474 87.9857 53.4518 88.8492C52.4562 89.7128 51.7168 90.8332 51.3145 92.0882C48.6319 100.468 42.5553 120.304 41.4832 131.446C40.6731 132.915 39.9418 134.426 39.2923 135.973C38.5386 138.023 38.7211 138.094 38.9739 138.14C39.6574 138.267 40.4346 134.587 40.7248 135.477C41.0151 136.366 39.2501 139.863 39.9664 139.966C40.9027 140.097 41.6471 136.221 41.736 135.912C41.825 135.603 42.2885 135.701 42.2042 135.992C42.0684 136.404 40.7529 140.771 41.6705 140.912C42.1761 140.987 42.2323 140.065 42.2323 140.065C42.2323 140.065 43.1686 135.884 43.5946 135.968C44.0206 136.053 43.5665 138.52 43.3512 139.344C43.1358 140.168 43.4354 140.584 43.8755 140.383C44.1751 140.242 44.8914 137.738 45.088 136.923C45.2847 136.109 45.7762 133.852 46.4363 135.158C47.0964 136.464 48.0983 137.223 48.5102 137.242C48.6031 137.231 48.6906 137.193 48.7615 137.132C48.8324 137.071 48.8835 136.99 48.9081 136.9C48.9328 136.81 48.93 136.715 48.8999 136.626C48.8699 136.538 48.8141 136.46 48.7396 136.404C48.3853 136.058 48.0811 135.664 47.8361 135.233C47.6177 134.898 47.4593 134.527 47.3679 134.138C47.1793 133.361 47.0695 132.568 47.0402 131.769L46.9653 131.301C48.014 126.109 51.0336 110.871 55.3921 101.138L57.1804 104.817L57.9576 107.542L53.1918 119.307L73.519 119.04L70.4854 107.364L74.1697 95.192C78.1537 95.281 88.3829 95.4308 90.087 94.6583C92.2311 93.722 103.322 79.7149 103.322 79.7149C104.045 79.1531 104.737 78.553 105.396 77.9172C105.396 77.9172 106.07 77.3507 105.662 76.9294Z" fill="#FFBE9D"/>
<path d="M52.2977 110.613C52.8876 108.6 55.9165 98.647 55.9165 98.647C55.9165 98.647 57.4053 106.76 57.012 107.739C56.6503 108.576 56.2229 109.384 55.734 110.154C52.2977 115.383 52.7471 118 52.7471 118L73.5098 117.368C73.5566 114.466 71.8384 107.715 71.4826 106.638C71.1268 105.562 72.3113 102.036 72.3113 102.036C72.3113 102.036 74.6521 99.6535 74.5678 98.427C74.5233 97.3252 74.3871 96.229 74.1605 95.1499L86.8006 95.618L86.4027 87.0508L68.2477 85.2344C67.6157 87.018 61.8995 86.1426 61.8995 86.1426C55.7293 86.3486 55.3454 87.4815 52.7799 89.4759C50.2144 91.4702 45.9683 108.586 45.9683 108.586L52.2977 110.613Z" fill="#FF3D3D"/>
<path d="M64.5724 108.586C64.2126 108.65 63.8461 108.669 63.4816 108.642C62.8028 108.642 61.8712 108.595 60.8459 108.492C59.8206 108.389 58.8937 108.244 58.2336 108.113C57.8696 108.066 57.5127 107.975 57.1709 107.842C57.5369 107.842 57.9021 107.876 58.2617 107.945C58.9265 108.029 59.8487 108.146 60.8693 108.249C61.8899 108.352 62.8168 108.422 63.4863 108.469C63.8512 108.473 64.2149 108.513 64.5724 108.586Z" fill="#263238"/>
<path d="M65.9958 106.821C65.6359 106.997 65.2553 107.128 64.8629 107.209C62.9951 107.7 61.0681 107.929 59.1373 107.888C58.7378 107.901 58.3383 107.864 57.9482 107.776C58.3426 107.726 58.74 107.706 59.1373 107.715C59.8724 107.692 60.8836 107.64 61.9978 107.509C63.112 107.378 64.1045 107.191 64.8067 107.041C65.1967 106.937 65.5943 106.863 65.9958 106.821Z" fill="#263238"/>
<path d="M72.9807 98.9467C72.9712 99.3036 72.9226 99.6584 72.8356 100.005C72.7139 100.655 72.5266 101.545 72.2878 102.519C72.0491 103.492 71.8197 104.391 71.6137 105C71.5309 105.348 71.4083 105.686 71.2485 106.006C71.2746 105.651 71.3406 105.299 71.4452 104.958C71.6231 104.227 71.8244 103.385 72.0491 102.462C72.2738 101.54 72.4891 100.698 72.667 99.9672C72.7304 99.6157 72.8357 99.2731 72.9807 98.9467Z" fill="#263238"/>
<path d="M52.5177 109.419C51.4347 109.252 50.3658 109.003 49.3202 108.675C48.2518 108.425 47.2034 108.096 46.1836 107.692C47.2661 107.862 48.3348 108.111 49.3811 108.436C50.4497 108.685 51.4982 109.014 52.5177 109.419Z" fill="#263238"/>
<path d="M74.3852 95.0469C74.2086 95.0773 74.0281 95.0773 73.8515 95.0469C73.3625 94.9967 72.8823 94.8818 72.4236 94.7051C71.6578 94.4173 70.9606 93.9725 70.3769 93.3993C69.7931 92.8261 69.3358 92.1371 69.0342 91.3765C68.7008 90.54 68.5585 89.6395 68.6175 88.7408C68.6384 87.9996 68.8601 87.278 69.2589 86.6529C69.5394 86.2318 69.9584 85.922 70.4433 85.7774C70.5729 85.7417 70.7068 85.7243 70.8412 85.7259C70.9349 85.7259 70.9817 85.7259 70.9817 85.7259C70.9817 85.7259 70.7851 85.7259 70.4714 85.8523C70.0266 86.0167 69.6493 86.3248 69.3993 86.7278C68.7626 87.7296 68.5847 89.5601 69.2636 91.2689C69.5795 92.0746 70.0741 92.7981 70.7102 93.3849C71.2313 93.8651 71.8316 94.2516 72.4845 94.5272C73.0971 94.7694 73.7345 94.9436 74.3852 95.0469Z" fill="#263238"/>
<path d="M85.2976 95.4495C85.1805 94.0139 85.143 92.5729 85.1853 91.1331C85.1486 89.6946 85.1923 88.2551 85.3163 86.8214C85.4335 88.2555 85.471 89.6949 85.4287 91.1331C85.4681 92.5732 85.4243 94.0144 85.2976 95.4495Z" fill="#263238"/>
<path d="M68.1257 85.7587C68.1772 84.7147 68.2849 83.5349 68.2849 83.5349C68.2849 83.5349 70.8691 83.2494 71.0236 80.5809C71.178 77.9124 71.0236 71.7562 71.0236 71.7562L66.342 69.3593L61.1455 73.4462L61.9461 86.7886L66.7119 87.0929C67.0761 87.103 67.4296 86.9682 67.6946 86.7181C67.9596 86.468 68.1147 86.1229 68.1257 85.7587Z" fill="#FFBE9D"/>
<path d="M68.5891 78.4695C68.5891 78.4695 68.5891 78.521 68.547 78.5819C68.5121 78.626 68.4671 78.6611 68.4157 78.6839C68.3643 78.7067 68.3081 78.7167 68.252 78.713C67.9524 78.713 67.6622 78.3665 67.5592 77.9639C67.5102 77.7688 67.5102 77.5645 67.5592 77.3694C67.5688 77.2842 67.5995 77.2028 67.6486 77.1325C67.6976 77.0621 67.7634 77.0052 67.8401 76.9668C67.903 76.9408 67.9737 76.9408 68.0367 76.9668C68.0834 76.99 68.1212 77.0278 68.1444 77.0744C68.1771 77.154 68.1444 77.2055 68.1444 77.2009C68.1444 77.1962 68.1444 77.154 68.0975 77.1072C68.0731 77.0737 68.0371 77.0504 67.9965 77.0417C67.9559 77.0331 67.9135 77.0397 67.8775 77.0604C67.8201 77.0951 67.7724 77.1438 67.7388 77.2019C67.7053 77.26 67.6869 77.3257 67.6856 77.3928C67.6462 77.5669 67.6462 77.7477 67.6856 77.9218C67.7792 78.287 68.032 78.5819 68.2567 78.61C68.3007 78.616 68.3454 78.6128 68.3881 78.6007C68.4308 78.5886 68.4705 78.5679 68.5048 78.5398C68.561 78.5023 68.5797 78.4649 68.5891 78.4695Z" fill="#EB996E"/>
<path d="M72.6295 70.3143C72.269 69.0877 70.9628 68.4791 69.7737 68.1421C67.962 67.6271 66.0051 67.4024 64.2355 68.0531C62.4658 68.7039 60.3404 69.8461 60.3404 71.7983C59.2964 71.7141 58.6972 72.627 58.2852 73.7599C58.0218 74.4501 57.864 75.1761 57.8171 75.9134C57.686 78.4695 56.9697 81.9994 55.3125 83.872C54.3761 84.916 53.0794 85.637 52.5457 86.9384C52.0775 88.0667 52.321 89.4056 51.8856 90.5479C51.497 91.5544 50.6403 92.2707 50.013 93.1462C49.3738 94.1393 48.9977 95.2786 48.9199 96.4571C48.8421 97.6355 49.0652 98.8144 49.5682 99.8829C50.0748 100.924 50.7881 101.851 51.6646 102.608C52.5411 103.364 53.5624 103.934 54.6664 104.284C56.8532 104.949 59.1851 104.972 61.3844 104.349C63.035 103.954 64.5748 103.191 65.8881 102.116C67.2318 101.019 68.1547 99.4904 68.5004 97.7902C68.8327 95.8802 68.299 93.9373 67.9011 92.0366C66.6558 86.0302 67.0116 85.7166 68.5846 80.1409C68.6221 80.0425 68.6408 79.9395 68.6689 79.8412C68.697 79.7429 68.711 79.6961 68.7297 79.6212C68.7744 79.4008 68.7979 79.1766 68.8 78.9517C68.5702 79.0372 68.3208 79.0553 68.0812 79.0038C67.8415 78.9524 67.6215 78.8336 67.447 78.6615C67.2721 78.4779 67.1502 78.2504 67.0941 78.0032C67.0381 77.7559 67.05 77.4981 67.1287 77.257C67.2391 76.9934 67.4037 76.7559 67.6118 76.5599C67.8198 76.364 68.0667 76.2139 68.3365 76.1194C68.8561 75.9041 69.4132 75.7917 69.9235 75.5529C71.005 75.038 71.754 73.9706 72.2643 72.8517C72.6838 72.0762 72.8133 71.1766 72.6295 70.3143Z" fill="#263238"/>
<path d="M68.7764 78.5959C68.8754 78.7421 68.9571 78.8992 69.0199 79.0641C69.1603 79.359 69.3476 79.7757 69.5536 80.2579L69.591 80.3468H69.4927L69.0246 80.389C68.7015 80.389 68.43 80.4498 68.1117 80.4452C68.0839 80.4389 68.0583 80.4258 68.037 80.407C68.0157 80.3881 67.9995 80.3642 67.9899 80.3375C67.976 80.2949 67.976 80.249 67.9899 80.2064C68.0008 80.1433 68.0148 80.0808 68.0321 80.0191L68.1163 79.6867C68.1587 79.465 68.2246 79.2484 68.313 79.0407C68.3043 79.2667 68.2713 79.4912 68.2147 79.7102L68.1491 80.0425C68.1257 80.1549 68.0836 80.3281 68.1491 80.3141C68.3832 80.3141 68.7156 80.2626 69.0246 80.2439L69.4927 80.2017L69.4319 80.3047C69.2306 79.8366 69.062 79.3965 68.9637 79.0922C68.8775 78.9368 68.8144 78.7696 68.7764 78.5959Z" fill="#FF3D3D"/>
<path d="M52.7467 118.001L73.5094 117.369L82.5447 152.639L80.8828 193.097H69.9046L71.2482 153.501L63.2193 128.946L64.4553 194.665L53.36 194.829L52.1943 133.056C52.1428 131.338 51.581 127.467 51.7917 125.763L52.7467 118.001Z" fill="#263238"/>
<path d="M65.9814 129.447C65.6416 129.468 65.3004 129.448 64.9655 129.386C64.3382 129.311 63.4815 129.18 62.5405 128.993C61.5995 128.805 60.7568 128.59 60.1482 128.417C59.8229 128.345 59.5082 128.232 59.2119 128.08C59.2119 128.01 60.7381 128.375 62.6107 128.754C64.4833 129.133 65.9908 129.377 65.9814 129.447Z" fill="#455A64"/>
<path d="M80.7704 190.878C80.7704 190.943 78.2845 191 75.2181 191C72.1517 191 69.6611 190.943 69.6611 190.878C69.6611 190.812 72.147 190.756 75.2181 190.756C78.2892 190.756 80.7704 190.808 80.7704 190.878Z" fill="#455A64"/>
<path d="M64.3573 192.957C64.3573 193.027 61.9416 193.078 58.9641 193.078C55.9867 193.078 53.5757 193.027 53.5757 192.957C53.5757 192.886 55.9914 192.835 58.9641 192.835C61.9369 192.835 64.3573 192.891 64.3573 192.957Z" fill="#455A64"/>
<path d="M62.9246 192.788C62.8591 192.788 62.5688 178.43 62.2739 160.72C61.979 143.009 61.8058 128.642 61.8666 128.642C61.9275 128.642 62.2271 142.995 62.5174 160.715C62.8076 178.434 62.9949 192.788 62.9246 192.788Z" fill="#455A64"/>
<path d="M79.2958 190.878C79.2907 190.814 79.2907 190.75 79.2958 190.686V190.124C79.2958 189.619 79.3333 188.893 79.3614 187.971C79.4269 186.098 79.5205 183.378 79.6376 180.045C79.8904 173.341 80.2462 164.1 80.6348 153.899C80.6348 153.8 80.6348 153.707 80.6348 153.622V153.655C78.1769 143.824 75.9532 134.901 74.3381 128.445L72.4655 120.809C72.2501 119.915 72.0863 119.218 71.9692 118.731C71.9131 118.501 71.8756 118.324 71.8428 118.188C71.8246 118.127 71.8136 118.064 71.8101 118C71.8344 118.059 71.8532 118.121 71.8662 118.183C71.9037 118.314 71.9505 118.492 72.016 118.717C72.1424 119.185 72.325 119.897 72.5591 120.786C73.0273 122.593 73.6874 125.196 74.5113 128.403C76.1405 134.854 78.3876 143.754 80.8782 153.599V153.632C80.8782 153.716 80.8782 153.814 80.8782 153.908C80.4615 164.109 80.0823 173.346 79.8061 180.05C79.661 183.388 79.5393 186.089 79.455 187.971C79.4082 188.907 79.3707 189.619 79.3473 190.124C79.3473 190.363 79.3192 190.55 79.3146 190.686C79.3153 190.751 79.309 190.815 79.2958 190.878Z" fill="#455A64"/>
<path d="M75.7144 152.798C74.9258 153.058 74.1135 153.238 73.2893 153.337C72.2781 153.51 71.4167 153.632 71.0281 153.65V153.557C71.1545 153.594 71.2201 153.618 71.2201 153.636C71.2201 153.655 71.1405 153.636 71.0094 153.636H70.7285L71.0094 153.552C71.3746 153.444 72.236 153.266 73.2472 153.084C74.0582 152.908 74.8846 152.812 75.7144 152.798Z" fill="#455A64"/>
<path d="M75.5229 154.142C74.7926 154.175 74.0609 154.143 73.3366 154.044C72.6053 154.029 71.8768 153.949 71.1597 153.805C72.6227 153.686 74.0955 153.799 75.5229 154.142Z" fill="#455A64"/>
<path opacity="0.2" d="M52.6582 118.745C52.9041 119.061 53.2138 119.321 53.5671 119.509C53.9205 119.697 54.3094 119.808 54.7087 119.836C55.5449 119.935 56.3908 119.919 57.2227 119.789C62.5831 119.194 68.2618 118.647 73.5098 117.369C66.7169 117.748 59.5401 117.621 52.7472 118.001L52.6769 118.581" fill="black"/>
<g opacity="0.2">
<path d="M59.6567 128.319L63.4862 143.178L63.2194 128.946L59.6567 128.319Z" fill="black"/>
</g>
</svg>
