<svg width="24" height="8" viewBox="0 0 24 8" fill="none" xmlns="http://www.w3.org/2000/svg">
<path fill-rule="evenodd" clip-rule="evenodd" d="M21.8561 1.23525C21.1262 0.590602 20.1224 0.289332 19.1569 0.381425C18.9157 0.403429 18.6764 0.446351 18.4441 0.515081C17.5933 0.759845 16.847 1.34282 16.4015 2.10727C15.8025 3.11539 15.7308 4.4093 16.1931 5.48426C16.5365 6.29407 17.1928 6.96615 17.9975 7.32257C18.9114 7.72734 19.9928 7.73956 20.9148 7.35354C21.3848 7.15577 21.811 6.85369 22.1528 6.47527C22.7768 5.79367 23.1087 4.86352 23.0876 3.94259C23.0821 2.92116 22.6339 1.90298 21.8561 1.23525ZM17.6758 2.51394C18.019 2.00241 18.5848 1.64572 19.1974 1.56966C19.6831 1.50365 20.1925 1.60036 20.6133 1.8549C21.0175 2.09477 21.3335 2.47102 21.5223 2.89997C21.8952 3.75569 21.8116 4.81625 21.2484 5.57091C20.9814 5.92842 20.6065 6.20714 20.1808 6.3446C19.6462 6.51873 19.0442 6.48124 18.5378 6.23593C18.1385 6.04387 17.8046 5.72549 17.5832 5.34245C17.0883 4.48238 17.1168 3.33761 17.6758 2.51394ZM6.16813 0.758215C5.50936 0.416741 4.74274 0.302644 4.0098 0.399898C3.30322 0.490904 2.62407 0.797334 2.09706 1.27817C1.55646 1.76172 1.17695 2.41778 1.01287 3.12327C0.814829 3.9608 0.906106 4.86786 1.28507 5.64236C1.63306 6.36579 2.23778 6.96262 2.96663 7.29975C3.68843 7.63552 4.52052 7.71593 5.29746 7.55266C6.04398 7.39727 6.73345 6.98761 7.23031 6.40952C7.70408 5.86349 7.99911 5.16995 8.08196 4.45304C8.1621 3.78449 8.06295 3.09421 7.79047 2.47781C7.46747 1.74189 6.88585 1.12115 6.16813 0.758215ZM3.23775 1.95568C3.52842 1.74569 3.87316 1.61367 4.22822 1.56803C4.65336 1.51315 5.09589 1.58052 5.48029 1.77259C5.93287 1.99344 6.29608 2.38001 6.50987 2.83423C6.75274 3.3406 6.81875 3.92439 6.7272 4.4764C6.64272 4.98006 6.41262 5.46605 6.0448 5.82464C5.72859 6.14384 5.30806 6.35655 4.86444 6.42528C4.32112 6.51085 3.74439 6.39322 3.28909 6.08136C2.81885 5.76759 2.48879 5.26693 2.34617 4.72334C2.20545 4.18654 2.22311 3.60628 2.40702 3.08198C2.56349 2.63537 2.85091 2.23115 3.23775 1.95568ZM8.4098 0.562079L8.40958 0.562079C8.4094 0.821412 8.40946 1.08087 8.40952 1.34036C8.40955 1.47012 8.40958 1.59989 8.40958 1.72967C8.58561 1.73007 8.76148 1.73002 8.93743 1.72997C8.99609 1.72996 9.05476 1.72994 9.11345 1.72994C9.5487 2.7312 9.9834 3.73273 10.4181 4.73422C10.7338 5.46169 11.0496 6.18914 11.3655 6.91644C11.5125 7.25384 11.8213 7.51708 12.1807 7.60048C12.3115 7.63467 12.4464 7.63329 12.5808 7.63192C12.6226 7.6315 12.6643 7.63107 12.7059 7.63172C13.1183 6.66018 13.5321 5.68922 13.9459 4.71827C14.4392 3.56098 14.9324 2.40372 15.4233 1.24557C15.4358 1.10465 15.4339 0.962363 15.4319 0.820082C15.4308 0.733885 15.4296 0.647692 15.4317 0.561807H13.1503V0.562079C13.15 0.951546 13.1497 1.34074 13.1503 1.72994C13.2496 1.73005 13.3489 1.73002 13.4482 1.72999C13.5806 1.72994 13.7131 1.7299 13.8455 1.73021C13.6638 2.17515 13.4827 2.62028 13.3015 3.06541C12.9502 3.92859 12.5988 4.79176 12.2443 5.6535L10.5877 1.73021C10.7045 1.7298 10.8214 1.72987 10.9383 1.72994C11.0552 1.73001 11.1722 1.73007 11.2892 1.72967V0.562079C10.3295 0.561536 9.36977 0.561807 8.4098 0.562079Z" fill="#4C3494"/>
</svg>
