<svg width="300" height="301" viewBox="0 0 300 301" fill="none" xmlns="http://www.w3.org/2000/svg">
<path d="M75.3256 0.387939H17.1282V61.0528H75.3256V0.387939Z" fill="#E0E0E0"/>
<path d="M71.3845 0.387939H13.1871V61.0528H71.3845V0.387939Z" fill="#EBEBEB"/>
<path d="M63.5641 8.54419H21.0144V52.8965H63.5641V8.54419Z" fill="#FAFAFA"/>
<path d="M21.0144 53.1914C20.7013 53.6384 20.3455 54.0539 19.952 54.432C19.2666 55.1174 18.3071 56.1112 17.2104 57.1736C16.1138 58.236 15.1542 59.175 14.4688 59.8398C14.0981 60.2244 13.6919 60.5733 13.2557 60.8816C13.5565 60.4331 13.9033 60.0173 14.2906 59.641C14.976 58.9556 15.9356 57.9549 17.0322 56.8994C18.1289 55.8439 19.0884 54.8981 19.8081 54.2264C20.1712 53.8383 20.5757 53.4912 21.0144 53.1914Z" fill="#E0E0E0"/>
<path d="M63.5641 53.061C63.9992 53.3759 64.4031 53.7316 64.7704 54.1234C65.4558 54.8088 66.4496 55.7684 67.512 56.865C68.5744 57.9617 69.5065 58.9212 70.1782 59.6066C70.5648 59.9755 70.9138 60.3819 71.22 60.8198C70.7815 60.5118 70.3772 60.158 70.0137 59.7643C69.3283 59.0789 68.3345 58.1193 67.2721 57.0227C66.2097 55.926 65.2776 54.9664 64.6059 54.281C64.2166 53.9122 63.8674 53.5033 63.5641 53.061Z" fill="#E0E0E0"/>
<path d="M63.4476 8.66081C63.7598 8.22365 64.1157 7.81945 64.5099 7.45451C65.1953 6.7691 66.1481 5.77527 67.2173 4.7129C68.2865 3.65053 69.2735 2.71153 69.9932 2.04669C70.3651 1.66075 70.7737 1.31184 71.2132 1.00488C70.8996 1.43885 70.5437 1.84064 70.1508 2.20433C69.4654 2.88974 68.5127 3.89042 67.4092 4.94594C66.3057 6.00146 65.353 6.94731 64.6265 7.619C64.2697 8.00518 63.8747 8.35424 63.4476 8.66081Z" fill="#E0E0E0"/>
<path d="M20.8979 8.77046C20.4628 8.45563 20.0589 8.09988 19.6916 7.70809C19.0062 7.02269 18.0055 6.06312 16.95 4.96648C15.8944 3.86984 14.9486 2.91028 14.2769 2.22488C13.8909 1.85731 13.5441 1.45076 13.2419 1.01172C13.6754 1.32342 14.0771 1.67696 14.4414 2.06723C15.1268 2.75264 16.1275 3.7122 17.183 4.80884C18.2385 5.90548 19.1844 6.86504 19.8561 7.55044C20.2454 7.91926 20.5946 8.32821 20.8979 8.77046Z" fill="#E0E0E0"/>
<path d="M63.4476 52.8965C63.4476 52.8965 63.4476 52.8211 63.4476 52.684C63.4476 52.5469 63.4476 52.3276 63.4476 52.0672C63.4476 51.512 63.4476 50.6964 63.4476 49.6751C63.4476 47.5778 63.4476 44.5209 63.4476 40.6347C63.4476 32.8691 63.4064 21.7999 63.3722 8.5442L63.5161 8.68128H21.0829L21.2406 8.52364C21.2406 24.8019 21.2406 40.0521 21.2406 52.8759L21.1035 52.7389L51.8369 52.8074L60.4592 52.8485H62.7416H60.4935H51.8917L21.0487 52.9171H20.9116V52.78C20.9116 39.9356 20.9116 24.6785 20.9116 8.42768V8.26318H21.0761H63.5093H63.6463V8.40712C63.6463 21.697 63.5915 32.8005 63.5778 40.621C63.5778 44.4935 63.5778 47.5367 63.5367 49.6271C63.5367 50.6552 63.5367 51.4503 63.5367 51.9918C63.5367 52.2522 63.5367 52.451 63.5367 52.5949C63.5367 52.7389 63.4476 52.8965 63.4476 52.8965Z" fill="#E0E0E0"/>
<path d="M32.2413 27.0706C32.2413 27.0706 31.3297 38.037 43.2077 38.037C43.2214 32.1905 38.3893 27.564 32.2413 27.0706Z" fill="#EBEBEB"/>
<path d="M54.0027 27.0774C54.0027 27.0774 43.0363 26.1658 43.0363 38.0438C48.8828 38.0644 53.5092 33.2255 54.0027 27.0774Z" fill="#EBEBEB"/>
<path d="M42.6936 21.0667C42.6936 21.0667 33.7217 29.1201 43.1871 38.0509C47.5874 33.3902 47.1899 26.0769 42.6936 21.0667Z" fill="#E0E0E0"/>
<path d="M225.161 222.533C221.54 220.269 217.449 218.863 213.201 218.421C211.247 218.222 209.088 218.277 207.539 219.463C207.36 219.569 207.211 219.72 207.109 219.902C207.007 220.084 206.954 220.289 206.957 220.498C207.054 220.785 207.251 221.028 207.512 221.183C212.378 224.891 219.74 225.364 225.161 222.519" fill="#E0E0E0"/>
<path d="M224.853 222.191C222.083 220.158 219.498 217.885 217.128 215.398C214.749 212.893 213.077 209.802 212.282 206.44C212.077 205.419 212.015 204.254 212.666 203.445C218.835 208.243 223.633 214.473 224.853 222.191Z" fill="#E0E0E0"/>
<path d="M225.099 222.485C224.528 219.124 224.574 215.686 225.236 212.341C226.011 209.031 227.814 205.864 230.644 203.973C231.707 206.461 231.247 209.326 230.5 211.923C229.339 215.95 227.529 219.761 225.141 223.205" fill="#E0E0E0"/>
<path d="M231.131 233.322C227.471 233.767 224.277 235.7 221.535 238.174C218.789 240.68 216.875 243.966 216.052 247.592C219.65 247.372 222.7 244.85 224.907 241.999C227.114 239.147 228.657 236.036 231.076 233.376" fill="#E0E0E0"/>
<path d="M232.447 235.028C231.005 231.366 230.501 227.401 230.98 223.495C231.459 219.588 232.905 215.863 235.188 212.657C237.279 220.08 236.511 228.469 232.447 235.028Z" fill="#E0E0E0"/>
<path d="M240.418 244.528C237.069 244.319 233.732 245.101 230.824 246.775C227.916 248.45 225.565 250.943 224.064 253.945C223.859 254.35 223.681 254.864 223.955 255.227C224.096 255.364 224.268 255.464 224.457 255.519C224.646 255.574 224.845 255.582 225.038 255.542C228.259 255.337 231.117 253.397 233.475 251.19C235.833 248.983 237.889 246.426 240.493 244.521" fill="#E0E0E0"/>
<path d="M240.165 244.014C238.448 238.485 238.344 232.581 239.863 226.995C240.459 224.802 241.467 222.499 243.496 221.471C243.576 221.417 243.667 221.38 243.763 221.363C243.859 221.347 243.957 221.351 244.051 221.375C244.214 221.461 244.339 221.605 244.4 221.779C245.079 223.312 245.374 224.987 245.257 226.659C245.135 228.325 244.879 229.977 244.489 231.601C243.852 234.624 243.516 237.873 241.857 240.477C241.464 241.103 241.112 241.753 240.802 242.424C240.487 243.109 240.487 243.322 240.199 243.849" fill="#E0E0E0"/>
<path d="M261.275 247.16C259.712 241.204 261.371 233.993 265.12 229.113C265.401 228.757 265.764 228.373 266.217 228.428C266.902 228.49 267.087 229.415 267.053 230.107C266.772 236.226 264.769 242.142 261.275 247.174" fill="#E0E0E0"/>
<path d="M263.18 248.455C270.411 250.34 278.705 248.51 284.716 244.075C281.113 242.269 276.996 241.766 273.064 242.65C269.171 243.541 265.613 245.282 263.187 248.455" fill="#E0E0E0"/>
<path d="M264.784 244.494C268.835 237.893 276.594 233.589 284.332 233.198C283.441 236.344 280.85 238.784 277.937 240.265C275.024 241.745 271.768 242.383 268.554 243.006C267.306 243.246 265.593 243.514 264.784 244.494Z" fill="#E0E0E0"/>
<path d="M261.679 225.275C262.776 221.519 263.879 217.735 264.181 213.829C264.483 209.922 263.92 205.857 261.899 202.506C258.115 209.826 257.738 218.373 261.563 225.666" fill="#E0E0E0"/>
<path d="M274.414 218.839C278.835 210.799 287.855 204.384 296.984 203.479C293.461 212.252 283.859 219.024 274.414 218.839Z" fill="#E0E0E0"/>
<path d="M271.631 220.415C278.225 221.416 283.845 225.631 290.007 228.181C291.297 228.807 292.73 229.081 294.16 228.976C294.827 228.973 295.477 228.764 296.022 228.379C296.566 227.993 296.978 227.449 297.203 226.821C297.428 226.193 297.453 225.511 297.277 224.868C297.1 224.224 296.73 223.651 296.217 223.226C295.343 222.421 294.318 221.798 293.201 221.396C286.484 218.599 279.287 218.531 272.214 220.223" fill="#E0E0E0"/>
<path d="M267.814 225.042C269.308 225.467 269.815 226.241 271.001 227.249C275.032 230.675 279.801 233.124 284.935 234.404C285.47 234.535 286.162 234.59 286.429 234.11C286.696 233.63 286.367 233.178 286.066 232.807C283.827 230.181 280.922 228.206 277.656 227.091C274.435 225.899 271.652 224.452 267.814 224.761" fill="#E0E0E0"/>
<path d="M263.502 197.098C266.209 199.588 269.407 201.485 272.89 202.665C276.374 203.846 280.066 204.284 283.729 203.952C284.065 203.959 284.392 203.842 284.647 203.623C285.154 203.068 284.544 202.211 283.962 201.752C278.012 197.119 270.816 195.193 263.509 197.071" fill="#E0E0E0"/>
<path d="M268.609 195.234C272.188 192.598 276.341 190.847 280.727 190.122C285.113 189.398 289.608 189.722 293.845 191.067C290.665 194.199 286.258 195.864 281.816 196.344C277.383 196.75 272.912 196.374 268.609 195.234Z" fill="#E0E0E0"/>
<path d="M266.58 182.396C265.997 176.461 266.374 171.779 265.963 165.816C265.963 165.337 265.833 164.768 265.387 164.596C264.764 164.356 264.249 165.117 264.016 165.748C263.152 168.512 262.931 171.437 263.369 174.3C263.807 177.162 264.894 179.887 266.546 182.266" fill="#E0E0E0"/>
<path d="M266.155 183.047C270.178 180.559 273.194 177.318 275.984 173.5C277.923 170.84 279.561 167.66 279.123 164.398C276.381 164.343 273.804 165.844 272.029 167.921C270.337 170.07 269.108 172.546 268.417 175.193C267.629 177.804 267.08 180.484 266.155 183.047Z" fill="#E0E0E0"/>
<path d="M275.812 180.368C284.66 177.091 292.851 172.261 300 166.104C297.114 164.939 293.831 165.638 290.918 166.79C284.318 169.456 278.924 173.952 275.689 180.285" fill="#E0E0E0"/>
<path d="M268.869 186.296C273.338 186.783 277.875 187.105 282.303 186.365C286.731 185.624 290.775 183.911 294.839 182.197C295.201 182.086 295.508 181.841 295.696 181.512C295.759 181.323 295.763 181.12 295.708 180.929C295.653 180.738 295.541 180.569 295.387 180.443C295.075 180.194 294.709 180.022 294.318 179.942C289.897 178.702 285.12 179.257 280.768 180.751C276.621 182.158 272.633 183.996 268.869 186.234" fill="#E0E0E0"/>
<path d="M243.372 197.304C240.329 191.135 240.528 183.98 243.153 177.64C245.01 180.464 245.209 184.055 244.894 187.42C244.578 190.786 243.523 194.233 243.468 197.612" fill="#E0E0E0"/>
<path d="M231.199 191.162C227.386 191.113 223.604 191.86 220.095 193.355C216.586 194.85 213.428 197.061 210.822 199.847C214.62 200.443 218.526 199.463 221.981 197.79C225.435 196.118 228.506 193.74 231.576 191.389" fill="#E0E0E0"/>
<path d="M223.023 188.428C219.301 188.126 215.716 187.667 212.138 188.764C208.561 189.86 205.284 192.348 203.852 195.796C207.363 196.078 210.885 195.413 214.051 193.87C217.198 192.327 220.2 190.505 223.023 188.428Z" fill="#E0E0E0"/>
<path d="M235.134 188.551C231.789 186.358 228.348 184.13 224.455 183.219C220.562 182.307 216.038 182.979 213.317 185.919C216.477 187.77 220.302 187.975 223.962 187.975C227.622 187.975 232.104 187.927 235.552 189.147" fill="#E0E0E0"/>
<path d="M235.154 188.729C229.431 183.109 227.265 173.013 229.568 165.337C234.084 172.252 236.059 180.52 235.154 188.729Z" fill="#E0E0E0"/>
<path d="M250.891 172.807C251.974 170.299 252.728 167.667 253.701 165.11C254.583 162.519 255.937 160.113 257.697 158.017C259.489 155.91 262.036 154.591 264.791 154.343C263.909 158.214 262.23 161.858 259.862 165.044C257.494 168.231 254.487 170.889 251.035 172.849" fill="#E0E0E0"/>
<path d="M248.047 176.125C246.258 173.671 244.195 170.333 241.775 168.496C239.356 166.66 236.196 165.549 233.242 166.255C234.773 168.937 236.908 171.226 239.478 172.939C242.048 174.652 244.982 175.743 248.047 176.125Z" fill="#E0E0E0"/>
<path d="M248.616 173.006C247.443 170.031 246.265 167.023 245.792 163.863C245.319 160.703 245.607 157.324 247.224 154.569C250.363 160.504 251.378 166.906 248.773 173.075" fill="#E0E0E0"/>
<path d="M250.918 154.576C252.7 148.688 258.088 144.35 263.907 142.362C264.63 142.069 265.412 141.952 266.189 142.019C266.576 142.064 266.94 142.221 267.239 142.471C267.537 142.72 267.756 143.052 267.868 143.424C268.081 144.425 267.252 145.323 266.498 145.988C261.947 149.871 256.657 152.793 250.946 154.576" fill="#E0E0E0"/>
<path d="M250.987 149.757C251.213 145.967 251.446 142.115 252.68 138.517C253.914 134.919 256.299 131.546 259.76 129.977C260.35 133.808 258.657 137.619 256.614 140.943C254.572 144.267 252.118 147.352 250.891 151.032" fill="#E0E0E0"/>
<path d="M250.891 152.376C249.424 148.085 249.267 142.636 246.703 138.894C244.907 136.282 242.029 134.5 240.48 131.738C239.546 134.391 239.676 137.302 240.843 139.86C242.01 142.393 243.619 144.697 245.593 146.666C247.498 148.723 249.123 150.224 250.891 152.376Z" fill="#E0E0E0"/>
<path d="M250.918 278.716C250.809 278.716 250.706 250.093 250.699 214.802C250.692 179.511 250.775 150.875 250.891 150.875C251.008 150.875 251.103 179.49 251.11 214.802C251.117 250.114 251.035 278.716 250.918 278.716Z" fill="#E0E0E0"/>
<path d="M275.929 192.986C275.584 193.154 275.223 193.289 274.853 193.39L271.892 194.391C269.397 195.241 265.963 196.447 262.241 197.996C258.52 199.545 255.079 200.861 253.098 202.574C252.31 203.236 251.682 204.068 251.261 205.008C250.98 205.693 250.932 206.09 250.891 206.084C250.874 205.984 250.874 205.882 250.891 205.782C250.936 205.497 251.007 205.217 251.104 204.946C251.477 203.948 252.091 203.058 252.892 202.355C254.088 201.345 255.425 200.516 256.861 199.894C258.444 199.154 260.206 198.38 262.07 197.612C265.805 196.084 269.267 194.87 271.789 194.11C273.05 193.719 274.078 193.424 274.798 193.232C275.166 193.114 275.545 193.032 275.929 192.986Z" fill="#E0E0E0"/>
<path d="M284.126 172.849C284.126 172.849 284.037 172.972 283.825 173.171L282.906 174.034L279.479 177.146L268.067 187.311C263.612 191.272 259.767 195.062 257.101 197.914C255.764 199.339 254.709 200.518 253.989 201.341C253.66 201.725 253.386 202.026 253.16 202.287C252.934 202.547 252.865 202.616 252.851 202.602C252.922 202.474 253.005 202.352 253.098 202.239C253.269 202.006 253.523 201.663 253.866 201.238C254.551 200.381 255.572 199.182 256.881 197.715C260.325 193.952 263.968 190.376 267.793 187.002C272.262 183.041 276.333 179.463 279.287 176.927L282.803 173.911L283.77 173.109C283.878 173.009 283.998 172.922 284.126 172.849Z" fill="#E0E0E0"/>
<path d="M263.263 191.341C263.146 191.286 264.071 189.141 265.003 186.42C265.936 183.699 266.374 181.409 266.498 181.43C266.621 181.45 266.34 183.801 265.394 186.557C264.999 187.723 264.541 188.867 264.023 189.984C263.836 190.47 263.58 190.927 263.263 191.341Z" fill="#E0E0E0"/>
<path d="M250.946 208.647C250.69 208.407 250.46 208.141 250.26 207.852L248.499 205.597C247.025 203.685 244.983 201.053 242.694 198.167C240.404 195.282 238.3 192.684 236.779 190.827L234.99 188.613C234.755 188.352 234.548 188.067 234.373 187.763C234.644 187.986 234.892 188.237 235.113 188.51C235.572 189.004 236.223 189.737 237.012 190.648C238.595 192.478 240.74 195.035 243.029 197.927C245.319 200.82 247.334 203.479 248.753 205.433C249.438 206.413 250.021 207.208 250.404 207.77C250.61 208.046 250.791 208.34 250.946 208.647Z" fill="#E0E0E0"/>
<path d="M245.463 201.622C245.394 201.697 243.934 199.956 243.167 197.324C242.734 195.921 242.558 194.451 242.646 192.986H242.824C242.748 193.315 242.687 193.493 242.652 193.486C242.618 193.479 242.618 193.294 242.652 192.958H242.838C242.923 194.386 243.169 195.8 243.571 197.173C244.304 199.737 245.572 201.553 245.463 201.622Z" fill="#E0E0E0"/>
<path d="M238.417 192.718C237.924 192.341 237.385 192.028 236.813 191.786C235.37 191.355 233.851 191.233 232.358 191.43C230.846 191.546 229.347 191.789 227.875 192.156C227.273 192.349 226.656 192.496 226.032 192.595C226.582 192.269 227.178 192.026 227.8 191.875C229.272 191.418 230.792 191.13 232.33 191.019C233.879 190.812 235.454 190.982 236.923 191.512C237.547 191.726 238.076 192.153 238.417 192.718Z" fill="#E0E0E0"/>
<path d="M236.703 190.559C236.703 190.621 235.771 190.182 234.25 189.662C230.269 188.298 226.005 187.974 221.864 188.723C220.281 189.004 219.321 189.298 219.301 189.23C219.501 189.103 219.721 189.011 219.952 188.956C220.56 188.743 221.18 188.569 221.809 188.435C225.991 187.516 230.351 187.847 234.345 189.387C234.946 189.617 235.532 189.883 236.1 190.182C236.504 190.402 236.717 190.532 236.703 190.559Z" fill="#E0E0E0"/>
<path d="M250.891 181.43C250.781 181.43 249.979 178.688 249.102 175.206C248.225 171.724 247.594 168.908 247.731 168.88C247.868 168.853 248.643 171.622 249.52 175.104C250.398 178.585 251.001 181.402 250.891 181.43Z" fill="#E0E0E0"/>
<path d="M251.008 181.43C250.884 181.471 250.363 179.607 249.02 177.701C248.177 176.575 247.194 175.562 246.093 174.686C246.51 174.79 246.897 174.989 247.224 175.268C248.054 175.876 248.774 176.62 249.356 177.468C250.242 178.622 250.812 179.988 251.008 181.43Z" fill="#E0E0E0"/>
<path d="M250.918 263.479C250.877 263.479 250.788 262.794 250.466 261.574C249.994 259.863 249.354 258.203 248.554 256.618C246.58 252.581 242.981 247.454 238.41 242.328C236.141 239.737 233.948 237.297 232.084 234.96C230.409 232.901 228.895 230.717 227.553 228.428C226.656 226.883 225.892 225.264 225.271 223.589C225.058 222.986 224.907 222.526 224.818 222.218C224.759 222.04 224.723 221.856 224.709 221.67C224.75 221.67 224.955 222.355 225.428 223.493C226.106 225.135 226.903 226.725 227.814 228.25C229.18 230.502 230.708 232.653 232.385 234.685C234.256 236.995 236.456 239.428 238.725 242.019C243.31 247.167 246.902 252.348 248.828 256.461C249.609 258.072 250.214 259.763 250.631 261.505C250.745 261.977 250.829 262.455 250.884 262.938C250.917 263.116 250.928 263.298 250.918 263.479Z" fill="#E0E0E0"/>
<path d="M273.523 237.934C273.142 238.186 272.746 238.415 272.337 238.62C271.265 239.23 270.239 239.917 269.267 240.676C267.827 241.795 266.477 243.026 265.23 244.357C263.811 245.851 262.351 247.592 260.864 249.449C257.889 253.184 255.106 256.488 253.441 259.127C252.591 260.436 251.974 261.54 251.57 262.314C251.383 262.727 251.165 263.126 250.918 263.507C250.938 263.39 250.975 263.277 251.028 263.171C251.117 262.958 251.241 262.636 251.426 262.245C251.949 261.12 252.537 260.026 253.187 258.969C254.812 256.269 257.574 252.917 260.541 249.189C262.036 247.324 263.509 245.583 264.955 244.089C266.223 242.762 267.599 241.543 269.068 240.443C270.067 239.704 271.129 239.055 272.241 238.503C272.632 238.304 272.927 238.181 273.167 238.092C273.273 238.015 273.395 237.962 273.523 237.934Z" fill="#E0E0E0"/>
<path d="M273.962 246.214C273.138 246.399 272.302 246.52 271.46 246.577C269.45 246.786 267.464 247.176 265.524 247.742C263.608 248.368 261.81 249.311 260.206 250.532C258.979 251.485 258.403 252.266 258.348 252.218C258.434 252.005 258.56 251.809 258.718 251.642C259.107 251.145 259.543 250.686 260.021 250.272C261.606 248.952 263.43 247.949 265.394 247.318C267.36 246.735 269.386 246.376 271.432 246.248C272.273 246.159 273.119 246.148 273.962 246.214Z" fill="#E0E0E0"/>
<path d="M259.075 251.313C258.944 251.238 260.075 249.511 260.946 247.201C261.816 244.891 261.96 242.814 262.111 242.835C262.176 243.291 262.162 243.754 262.07 244.206C261.945 245.285 261.699 246.347 261.337 247.372C260.958 248.388 260.471 249.36 259.883 250.271C259.672 250.661 259.399 251.012 259.075 251.313Z" fill="#E0E0E0"/>
<path d="M280.843 215.7C280.715 215.783 280.58 215.854 280.439 215.912L279.26 216.447C278.746 216.666 278.122 216.947 277.416 217.317C276.71 217.688 275.888 218.058 275.024 218.579L273.653 219.353C273.18 219.627 272.707 219.949 272.214 220.258C271.206 220.875 270.199 221.629 269.123 222.389C264.512 225.832 260.489 229.998 257.21 234.727C256.484 235.83 255.764 236.865 255.188 237.893C254.894 238.4 254.585 238.88 254.332 239.36L253.598 240.731C253.112 241.608 252.769 242.444 252.426 243.164C252.084 243.884 251.816 244.535 251.618 245.042L251.124 246.235C251.074 246.379 251.007 246.517 250.925 246.646C250.946 246.495 250.985 246.348 251.042 246.207C251.158 245.885 251.295 245.481 251.467 244.98C251.684 244.333 251.933 243.697 252.214 243.075C252.536 242.341 252.865 241.492 253.338 240.601L254.023 239.189C254.27 238.702 254.572 238.215 254.866 237.694C255.428 236.653 256.141 235.638 256.868 234.494C260.133 229.706 264.189 225.508 268.862 222.081C269.959 221.313 270.98 220.566 272.001 219.963C272.509 219.655 272.981 219.339 273.461 219.072L274.832 218.311C275.703 217.811 276.546 217.448 277.265 217.105C277.877 216.801 278.503 216.528 279.143 216.289L280.356 215.83C280.512 215.764 280.675 215.72 280.843 215.7Z" fill="#E0E0E0"/>
<path d="M262.954 227.681C263.122 227.104 263.464 226.594 263.934 226.221C265.035 225.26 266.441 224.72 267.903 224.699C269.332 224.69 270.749 224.967 272.07 225.515C272.629 225.692 273.16 225.948 273.646 226.276C273.084 226.164 272.533 225.999 272.001 225.782C270.693 225.335 269.32 225.103 267.937 225.097C266.566 225.126 265.241 225.592 264.154 226.426C263.725 226.816 263.324 227.235 262.954 227.681Z" fill="#E0E0E0"/>
<path d="M260.281 230.443C260.164 230.381 261.172 228.901 261.405 226.783C261.638 224.665 261.028 222.993 261.151 222.958C261.275 222.924 261.426 223.328 261.618 224.028C262.106 225.87 261.878 227.829 260.98 229.511C260.631 230.141 260.35 230.47 260.281 230.443Z" fill="#E0E0E0"/>
<path d="M231.151 267.592C231.768 278.558 235.065 289.655 240.137 300.902H262.18C267.019 289.73 270.082 278.627 270.631 267.592H231.151Z" fill="#E0E0E0"/>
<path d="M267.06 285.254C267.06 285.371 259.801 285.467 250.843 285.467C241.885 285.467 234.633 285.371 234.633 285.254C234.633 285.138 241.892 285.049 250.843 285.049C259.794 285.049 267.06 285.145 267.06 285.254Z" fill="#FAFAFA"/>
<path d="M266.566 289.216C266.566 289.332 259.76 289.428 251.371 289.428C242.981 289.428 236.169 289.332 236.169 289.216C236.169 289.099 242.975 289.01 251.371 289.01C259.767 289.01 266.566 289.106 266.566 289.216Z" fill="#FAFAFA"/>
<path d="M240.473 274.74C240.747 278.121 240.747 281.518 240.473 284.898C240.356 284.898 240.267 282.622 240.267 279.819C240.267 277.016 240.377 274.74 240.473 274.74Z" fill="#FAFAFA"/>
<path d="M252.303 274.74C252.42 274.74 252.509 277.091 252.509 279.997C252.509 282.903 252.42 285.254 252.303 285.254C252.186 285.254 252.097 282.903 252.097 279.997C252.097 277.091 252.186 274.74 252.303 274.74Z" fill="#FAFAFA"/>
<path d="M263.393 274.651C263.509 274.651 263.598 277.05 263.598 280.011C263.598 282.972 263.509 285.378 263.393 285.378C263.276 285.378 263.187 282.979 263.187 280.011C263.187 277.043 263.276 274.651 263.393 274.651Z" fill="#FAFAFA"/>
<path d="M269.945 274.74C269.945 274.857 261.433 274.946 250.932 274.946C240.432 274.946 231.919 274.857 231.919 274.74C231.919 274.624 240.425 274.535 250.932 274.535C261.439 274.535 269.945 274.624 269.945 274.74Z" fill="#FAFAFA"/>
<path d="M258.101 165.625H8.2865V173.322H258.101V165.625Z" fill="#EBEBEB"/>
<path d="M29.8972 172.376L11.1789 300.868H15.1953L38.2796 173.322L29.8972 172.376Z" fill="#EBEBEB"/>
<path d="M240.459 171.56L260.206 300.868H256.196L232.07 172.739L240.459 171.56Z" fill="#EBEBEB"/>
<path d="M17.7725 134.624V151.951H14.8801V153.815H17.7725V165.412H71.8643V154.857H67.8616V152.554H71.8643V149.127H73.6463V147.564H71.5216V134.624H17.7725Z" fill="#F5F5F5"/>
<path d="M57.4914 134.651V165.213H71.8506V154.665H67.8478V152.561L71.8506 152.629V149.182H73.6669L73.6326 147.4L71.5216 147.352V134.603L57.4914 134.651Z" fill="#E0E0E0"/>
<path d="M58.5127 153.562C58.5127 153.671 48.732 153.753 36.6621 153.753C24.5922 153.753 14.8047 153.671 14.8047 153.562C14.8047 153.452 24.5922 153.37 36.6621 153.37C48.732 153.37 58.5127 153.459 58.5127 153.562Z" fill="#E0E0E0"/>
<path d="M58.5127 151.8C58.5127 151.909 48.732 151.992 36.6621 151.992C24.5922 151.992 14.8047 151.909 14.8047 151.8C14.8047 151.69 24.5922 151.608 36.6621 151.608C48.732 151.608 58.5127 151.697 58.5127 151.8Z" fill="#E0E0E0"/>
<path d="M61.3228 147.064C61.3228 147.173 51.5353 147.256 39.4722 147.256C27.4092 147.256 17.6148 147.173 17.6148 147.064C17.6148 146.954 27.3955 146.872 39.4722 146.872C51.549 146.872 61.3228 146.961 61.3228 147.064Z" fill="#E0E0E0"/>
<path d="M61.5833 159.984C61.5833 160.093 51.8026 160.182 39.7327 160.182C27.6628 160.182 17.8752 160.093 17.8752 159.984C17.8752 159.874 27.6559 159.792 39.7327 159.792C51.8094 159.792 61.5833 159.867 61.5833 159.984Z" fill="#E0E0E0"/>
<path d="M75.8602 123H66.4291V134.213H75.8602V123Z" fill="#F5F5F5"/>
<path d="M66.7512 122.266H24.133V134.912H66.7512V122.266Z" fill="#E0E0E0"/>
<path d="M76.1412 123.335H65.6066V122.287H76.1412C76.283 122.287 76.419 122.343 76.5192 122.443C76.6195 122.543 76.6758 122.679 76.6758 122.821C76.6705 122.959 76.6118 123.09 76.5121 123.186C76.4124 123.282 76.2795 123.335 76.1412 123.335Z" fill="#E0E0E0"/>
<path d="M76.1412 134.919H65.6066V133.849H76.1412C76.283 133.849 76.419 133.906 76.5192 134.006C76.6195 134.106 76.6758 134.242 76.6758 134.384C76.6758 134.526 76.6195 134.662 76.5192 134.762C76.419 134.862 76.283 134.919 76.1412 134.919Z" fill="#E0E0E0"/>
<path d="M63.4064 122.266H58.3687V134.912H63.4064V122.266Z" fill="#EBEBEB"/>
<path d="M33.2282 122.41H28.1906V135.056H33.2282V122.41Z" fill="#EBEBEB"/>
<path d="M75.8602 124.857C75.8602 124.857 73.804 124.912 71.3023 124.912C68.8005 124.912 66.7375 124.912 66.7375 124.857C66.7375 124.802 68.7937 124.795 71.3023 124.795C73.8108 124.795 75.8602 124.823 75.8602 124.857Z" fill="#E0E0E0"/>
<path d="M75.8602 126.536C75.8602 126.536 73.804 126.591 71.3023 126.591C68.8005 126.591 66.7375 126.591 66.7375 126.536C66.7375 126.481 68.7937 126.481 71.3023 126.481C73.8108 126.481 75.8602 126.502 75.8602 126.536Z" fill="#E0E0E0"/>
<path d="M75.8602 128.606C75.8602 128.606 73.804 128.661 71.3023 128.661C68.8005 128.661 66.7375 128.661 66.7375 128.606C66.7375 128.551 68.7937 128.551 71.3023 128.551C73.8108 128.551 75.8602 128.572 75.8602 128.606Z" fill="#E0E0E0"/>
<path d="M75.8602 130.676C75.8602 130.676 73.804 130.731 71.3023 130.731C68.8005 130.731 66.7375 130.731 66.7375 130.676C66.7375 130.621 68.7937 130.621 71.3023 130.621C73.8108 130.621 75.8602 130.642 75.8602 130.676Z" fill="#E0E0E0"/>
<path d="M75.8602 132.746C75.8602 132.746 73.804 132.801 71.3023 132.801C68.8005 132.801 66.7375 132.801 66.7375 132.746C66.7375 132.691 68.7937 132.691 71.3023 132.691C73.8108 132.691 75.8602 132.711 75.8602 132.746Z" fill="#E0E0E0"/>
<path d="M55.6546 127.468H36.4839V129.744H55.6546V127.468Z" fill="#EBEBEB"/>
<path d="M57.7999 109.99L63.1049 122.451H59.6916L57.3338 115.796L57.7999 109.99Z" fill="#E0E0E0"/>
<path d="M41.5147 98.7224L39.4654 122.451H56.7992L58.7046 98.7224H41.5147Z" fill="#EBEBEB"/>
<path d="M43.2077 100.6L41.4119 120.477L54.4277 120.648L56.1823 100.484L43.2077 100.6Z" fill="#FAFAFA"/>
<path d="M45.9699 103.356L44.9486 117.029H51.8917L53.1117 103.356H45.9699Z" fill="#E0E0E0"/>
<path d="M245.162 10.5225L238.754 10.5571L238.926 42.4484L245.335 42.4137L245.162 10.5225Z" fill="#E0E0E0"/>
<path d="M199.824 10.6033L183.224 10.6931L183.319 28.3008L199.919 28.211L199.824 10.6033Z" fill="#EBEBEB"/>
<path d="M216.342 10.5208L199.742 10.6106L199.837 28.2183L216.437 28.1285L216.342 10.5208Z" fill="#F5F5F5"/>
<path d="M183.249 15.5696C194.277 15.6655 205.339 15.5696 216.367 15.4188C216.408 15.4107 216.444 15.3889 216.47 15.357C216.497 15.3252 216.511 15.2852 216.511 15.244C216.511 15.2028 216.497 15.1628 216.47 15.131C216.444 15.0991 216.408 15.0773 216.367 15.0692C205.342 15.0053 194.304 15.0715 183.256 15.268C183.216 15.268 183.177 15.2839 183.149 15.3122C183.121 15.3404 183.105 15.3788 183.105 15.4188C183.105 15.4588 183.121 15.4971 183.149 15.5254C183.177 15.5537 183.216 15.5696 183.256 15.5696H183.249Z" fill="#E0E0E0"/>
<path d="M203.037 27.9264L172.879 28.0896L172.957 42.4348L203.114 42.2717L203.037 27.9264Z" fill="#EBEBEB"/>
<path d="M233.049 27.7572L202.892 27.9204L202.969 42.2656L233.127 42.1025L233.049 27.7572Z" fill="#F5F5F5"/>
<path d="M172.892 32.0877C192.927 32.3139 213.029 32.0877 233.064 31.793C233.111 31.793 233.156 31.7742 233.19 31.7408C233.223 31.7074 233.242 31.662 233.242 31.6148C233.242 31.5675 233.223 31.5222 233.19 31.4888C233.156 31.4553 233.111 31.4366 233.064 31.4366C213.029 31.3337 192.92 31.3406 172.892 31.7861C172.852 31.7861 172.814 31.802 172.786 31.8303C172.758 31.8586 172.742 31.8969 172.742 31.9369C172.742 31.9769 172.758 32.0152 172.786 32.0435C172.814 32.0718 172.852 32.0877 172.892 32.0877Z" fill="#E0E0E0"/>
<path d="M278.451 42.4441H161.618V47.5846H278.451V42.4441Z" fill="#E0E0E0"/>
<path d="M185.49 44.9185H180.747V62.4579H185.49V44.9185Z" fill="#E0E0E0"/>
<path d="M256.292 44.9185H251.549V62.4579H256.292V44.9185Z" fill="#E0E0E0"/>
<path d="M251.41 -1.3689L245.002 -1.33423L245.239 42.5308L251.648 42.4961L251.41 -1.3689Z" fill="#EBEBEB"/>
<path d="M261.427 6.80183L251.468 6.85571L251.661 42.4001L261.619 42.3462L261.427 6.80183Z" fill="#F5F5F5"/>
<path d="M261.364 13.6574C259.709 13.8291 258.044 13.8863 256.381 13.8288C254.72 13.8865 253.058 13.8292 251.405 13.6574C254.721 13.429 258.048 13.429 261.364 13.6574Z" fill="#E0E0E0"/>
<path d="M261.364 12.1633C259.709 12.335 258.044 12.3922 256.381 12.3346C254.72 12.3923 253.058 12.3351 251.405 12.1633C254.721 11.9348 258.048 11.9348 261.364 12.1633Z" fill="#E0E0E0"/>
<path d="M261.364 37.009C258.048 37.2374 254.721 37.2374 251.405 37.009C254.721 36.7805 258.048 36.7805 261.364 37.009Z" fill="#E0E0E0"/>
<path d="M261.364 35.5148C258.048 35.7433 254.721 35.7433 251.405 35.5148C254.721 35.2864 258.048 35.2864 261.364 35.5148Z" fill="#E0E0E0"/>
<path d="M256.546 32.259C256.45 32.259 256.367 28.6744 256.367 24.2467C256.367 19.819 256.45 16.2412 256.546 16.2412C256.642 16.2412 256.717 19.8259 256.717 24.2467C256.717 28.6675 256.635 32.259 256.546 32.259Z" fill="#E0E0E0"/>
<path d="M272.31 15.5422H261.467V42.3757H272.31V15.5422Z" fill="#EBEBEB"/>
<path d="M249.959 6.13155C249.96 6.4965 249.853 6.85363 249.651 7.15773C249.45 7.46183 249.162 7.69922 248.825 7.83981C248.489 7.98041 248.118 8.01791 247.76 7.94754C247.402 7.87718 247.072 7.70212 246.814 7.44455C246.555 7.18697 246.379 6.85846 246.307 6.50063C246.236 6.14279 246.272 5.77173 246.411 5.43444C246.55 5.09714 246.787 4.80878 247.09 4.60589C247.393 4.40299 247.75 4.29468 248.115 4.29468C248.603 4.29467 249.071 4.48798 249.416 4.83227C249.762 5.17655 249.957 5.64375 249.959 6.13155Z" fill="#E0E0E0"/>
<path d="M248.684 11.2036H247.546V37.2968H248.684V11.2036Z" fill="#E0E0E0"/>
<path d="M287.663 300.868C287.663 300.964 223.235 301.046 143.838 301.046C64.4414 301.046 0 300.964 0 300.868C0 300.772 64.3866 300.689 143.838 300.689C223.29 300.689 287.663 300.765 287.663 300.868Z" fill="#263238"/>
<path d="M142.659 214.041L170.918 300.868H165.771L132.666 214.041H142.659Z" fill="#E0E0E0"/>
<path d="M142.659 214.041H141.974H140.055L132.639 214.082L132.707 213.979C138.382 228.764 150.617 260.737 164.791 297.749C165.175 298.764 165.559 299.805 165.942 300.772L165.778 300.662H170.918L170.747 300.895C162.858 276.557 155.819 254.864 150.754 239.25C148.232 231.43 146.203 225.138 144.805 220.785C144.119 218.613 143.571 216.927 143.201 215.775L142.79 214.466C142.7 214.171 142.659 214.014 142.659 214.014C142.659 214.014 142.714 214.151 142.81 214.439L143.242 215.72C143.619 216.865 144.174 218.53 144.887 220.683C146.313 225.021 148.369 231.293 150.932 239.079C156.038 254.713 163.132 276.426 171.083 300.765L171.158 300.998H165.675L165.627 300.881C165.25 299.881 164.859 298.873 164.476 297.859C150.391 260.792 138.225 228.784 132.611 214.021V213.918H132.721L140.178 213.959H142.077C142.461 214.027 142.659 214.041 142.659 214.041Z" fill="#263238"/>
<path d="M87.0459 214.041L58.7868 300.868H63.9273L97.0391 214.041H87.0459Z" fill="#E0E0E0"/>
<path d="M87.0459 214.041C87.0459 214.041 87.2584 214.041 87.6833 214.041H89.5819L97.0391 214H97.1487L97.1076 214.103C91.501 228.866 79.3352 260.875 65.2502 297.941L64.0918 300.964L64.0507 301.08H58.5675L58.6429 300.847L78.8005 239.161L84.8458 220.765C85.5312 218.613 86.1138 216.947 86.4907 215.803L86.9225 214.521C87.0185 214.233 87.0733 214.096 87.0733 214.096C87.0733 214.096 87.0322 214.254 86.9431 214.548L86.5319 215.857C86.1617 217.009 85.6203 218.695 84.928 220.868C83.523 225.22 81.501 231.512 78.9787 239.332C73.9068 254.946 66.8746 276.639 58.9856 300.977L58.8142 300.744H63.9548L63.7903 300.854L64.9417 297.831C79.1158 260.82 91.3502 228.818 96.9911 214.069L97.0665 214.171L89.6436 214.13H87.7313L87.0459 214.041Z" fill="#263238"/>
<path d="M133.393 215.947C133.238 216.078 133.073 216.197 132.899 216.303L131.446 217.263L126.093 220.772C121.576 223.746 115.346 227.873 108.499 232.465L90.9664 244.288L85.6477 247.859L84.2015 248.777C84.0382 248.899 83.8638 249.004 83.6806 249.093C83.8315 248.958 83.9918 248.834 84.1604 248.722L85.5723 247.715L90.8293 244.055C95.2776 240.984 101.453 236.769 108.307 232.177C115.161 227.585 121.405 223.486 125.963 220.566C128.239 219.113 130.075 217.941 131.378 217.139L132.865 216.234C133.033 216.125 133.21 216.029 133.393 215.947Z" fill="#263238"/>
<path d="M79.1775 121.478C79.1775 121.478 70.3221 122.389 69.0336 127.722C67.745 133.054 63.5504 199.003 69.0336 208.345C74.5168 217.687 145.113 216.385 150.014 215.103C154.914 213.822 157.224 210.641 156.724 206.755C156.223 202.869 108.149 198.051 108.149 198.051L111.083 129.223C111.083 129.223 93.7971 120.518 79.1775 121.478Z" fill="#263238"/>
<path d="M156.765 208.421H156.552H155.922L153.502 208.483C151.398 208.537 148.355 208.565 144.592 208.558C137.053 208.558 126.669 208.297 115.216 207.475C109.493 207.057 104.044 206.529 99.1021 205.967C94.1604 205.405 89.719 204.788 86.0041 204.206C84.1398 203.931 82.4674 203.637 80.9938 203.39C79.5202 203.143 78.2522 202.917 77.2173 202.705L74.8389 202.245L74.2221 202.122L74.0164 202.067C74.087 202.058 74.1584 202.058 74.2289 202.067L74.8526 202.156L77.2447 202.547C78.2796 202.725 79.5476 202.938 81.0281 203.157C82.5086 203.376 84.1809 203.664 86.0384 203.918C89.7601 204.473 94.2015 205.042 99.1364 205.604C104.071 206.166 109.52 206.666 115.243 207.084C126.69 207.907 137.073 208.188 144.592 208.27C148.348 208.311 151.391 208.318 153.502 208.311H156.559L156.765 208.421Z" fill="#455A64"/>
<path d="M146.402 250.066C146.347 250.148 135.161 242.286 121.426 232.519C107.69 222.752 96.5936 214.754 96.6484 214.699C96.7032 214.644 107.889 222.478 121.631 232.252C135.374 242.026 146.456 249.983 146.402 250.066Z" fill="#263238"/>
<path d="M85.4352 62.2661L79.7807 52.3072C83.2731 46.6368 84.5182 39.8652 83.2713 33.3234C82.0244 26.7815 78.3756 20.9427 73.0423 16.9545C67.7089 12.9664 61.0767 11.1173 54.4492 11.7709C47.8218 12.4245 41.6785 15.5334 37.2269 20.4865C32.7753 25.4397 30.3374 31.8787 30.3923 38.5381C30.4473 45.1975 32.9912 51.5955 37.5239 56.4744C42.0567 61.3534 48.2504 64.3605 54.8878 64.9046C61.5251 65.4487 68.1259 63.4904 73.3927 59.4148L85.4352 62.2661Z" fill="white"/>
<path d="M85.4352 62.266L73.3584 59.5244H73.194L73.2968 59.3873L73.4476 59.5381C69.735 62.4388 65.3193 64.3025 60.6511 64.9391C59.2531 65.1378 57.8401 65.2112 56.4291 65.1584C55.7025 65.1173 54.9623 65.0967 54.2152 65.035L51.9602 64.6992C45.2407 63.3808 39.2755 59.5527 35.2776 53.9932C33.0573 50.9268 31.5174 47.4216 30.7608 43.7122C29.9929 39.7777 30.1006 35.7224 31.0761 31.8342C32.0857 27.7761 34.0476 24.0168 36.7992 20.8678C39.5927 17.6355 43.1174 15.1166 47.0802 13.5203C50.8813 12.0193 54.971 11.3916 59.0473 11.6834C62.8968 11.9489 66.6407 13.0581 70.0137 14.9322C76.0756 18.2854 80.6193 23.8374 82.7073 30.4428C83.5301 33.2624 83.9206 36.1903 83.8657 39.1269C83.7203 43.811 82.342 48.3739 79.8698 52.3551V52.2454L85.4352 62.2592C85.0651 61.6286 83.3242 58.6197 79.6916 52.3483V52.3003V52.2454C82.1105 48.2829 83.446 43.7543 83.5641 39.1132C83.6088 36.214 83.2113 33.325 82.3852 30.5457C80.3219 24.0159 75.8359 18.5243 69.8492 15.1995C66.5212 13.3582 62.8286 12.2724 59.0336 12.0193C55.0197 11.7343 50.9932 12.3551 47.2515 13.8356C43.3518 15.4094 39.8837 17.8907 37.135 21.0734C34.4244 24.1746 32.493 27.8778 31.501 31.8753C30.5337 35.7017 30.4237 39.6945 31.1789 43.5683C31.9116 47.2381 33.4213 50.7085 35.6066 53.7465C39.5417 59.2443 45.424 63.036 52.0562 64.3496L54.2837 64.6923C55.024 64.754 55.7505 64.7746 56.4702 64.8226C57.8647 64.8786 59.2614 64.8121 60.6443 64.6238C65.2694 64.0134 69.6523 62.1955 73.3516 59.3531L74.037 58.839L73.5229 59.5244L73.4613 59.3599L85.4352 62.266Z" fill="#263238"/>
<path d="M52.5154 34.7814H54.2015L57.8752 29.6546V26.2893C57.8752 26.2893 60.4798 26.1316 60.1782 30.5319C59.8766 34.9322 60.1782 33.815 60.1782 33.815C60.1782 33.815 65.7094 33.815 66.1686 34.3222C66.5044 34.6649 66.6552 40.1618 66.7101 43.1364C66.7484 43.8553 66.5442 44.5663 66.1304 45.1553C65.7166 45.7444 65.117 46.1775 64.4277 46.3852C64.2335 46.4394 64.0329 46.4671 63.8314 46.4675C62.4606 46.4675 55.4078 45.3434 55.4078 45.3434H52.4948L52.5154 34.7814Z" fill="#FF3D3D"/>
<path d="M47.6902 33.8562L48.732 45.3778H51.6175V34.0892L47.6902 33.8562Z" fill="#FF3D3D"/>
<path d="M192.063 179.86C192.063 179.86 207.923 179.86 208.574 194.638C209.225 209.415 162.406 287.372 162.406 287.372L147.581 280.333L179.369 204.686L110.391 197.9L112.344 180.546L192.063 179.86Z" fill="#FFBE9D"/>
<path d="M165.538 282.876L165.079 283.925C165.079 283.925 179.609 298.866 178.307 302.307L143.276 286.543L148.999 275.097C153.119 279.86 158.451 282.588 165.538 282.876Z" fill="#455A64"/>
<g opacity="0.6">
<path d="M150.87 280.429C150.487 280.381 150.1 280.475 149.781 280.694C149.463 280.912 149.236 281.24 149.143 281.615C149.08 281.996 149.165 282.388 149.382 282.708C149.599 283.028 149.931 283.253 150.308 283.335C150.714 283.385 151.124 283.283 151.459 283.049C151.794 282.815 152.031 282.465 152.125 282.067C152.152 281.663 152.02 281.265 151.757 280.956C151.495 280.648 151.123 280.454 150.72 280.416" fill="white"/>
</g>
<g opacity="0.6">
<path d="M143.276 286.55L144.647 283.808L177.718 299.922C177.718 299.922 178.972 301.293 178.3 302.321L143.276 286.55Z" fill="white"/>
</g>
<path d="M165.154 284.076C165.072 284.24 164.181 283.939 163.098 284.11C162.015 284.281 161.234 284.795 161.104 284.658C160.973 284.521 161.679 283.644 163.002 283.459C164.325 283.274 165.264 283.932 165.154 284.076Z" fill="#263238"/>
<path d="M168.149 287.249C168.115 287.427 167.238 287.386 166.333 287.852C165.428 288.318 164.914 289.003 164.75 288.921C164.585 288.839 164.907 287.818 166.045 287.263C167.183 286.707 168.218 287.084 168.149 287.249Z" fill="#263238"/>
<path d="M168.259 292.581C168.088 292.581 168.259 291.587 169.088 290.847C169.918 290.107 170.918 290.1 170.925 290.271C170.932 290.443 170.24 290.724 169.554 291.341C168.869 291.958 168.437 292.643 168.259 292.581Z" fill="#263238"/>
<path d="M162.056 124.144L164.873 132.76L149.513 133.959L147.724 129.346L162.056 124.144Z" fill="#FFBE9D"/>
<path d="M205.668 135.446C205.963 136.036 206.731 136.132 207.32 136.44C207.869 136.754 208.319 137.217 208.618 137.774C208.917 138.331 209.054 138.962 209.013 139.593C208.914 140.856 208.497 142.072 207.8 143.13C207.586 143.559 207.273 143.933 206.888 144.219C206.693 144.355 206.461 144.428 206.223 144.428C205.986 144.428 205.754 144.355 205.559 144.219C205.106 143.842 205.161 143.143 205.257 142.561C205.62 140.374 205.147 137.612 205.661 135.453" fill="#FFBE9D"/>
<path d="M103.516 27.4203C103.386 26.4592 103.621 25.4841 104.174 24.6874C104.727 23.8906 105.558 23.33 106.504 23.116L123.461 12.3278C129.925 10.8747 138.067 21.6698 139.225 28.1811C140.396 35.3377 140.855 42.5927 140.596 49.8398C140.13 60.9844 132.824 62.177 132.824 62.177L138.307 99.2366L111.885 82.9446L103.516 27.4203Z" fill="#FFBE9D"/>
<path d="M135.703 37.4271C135.748 37.7916 135.649 38.1594 135.428 38.4524C135.207 38.7454 134.88 38.9407 134.517 38.9967C134.16 39.0628 133.791 38.9844 133.491 38.7788C133.192 38.5732 132.986 38.2571 132.92 37.9001C132.874 37.5356 132.973 37.1679 133.194 36.8748C133.416 36.5818 133.743 36.3865 134.106 36.3305C134.463 36.2644 134.831 36.3428 135.131 36.5484C135.43 36.754 135.636 37.0701 135.703 37.4271Z" fill="#263238"/>
<path d="M137.882 33.4244C137.745 33.5752 136.621 33.5546 135.202 34.1098C133.783 34.665 132.844 35.4052 132.666 35.3641C132.488 35.323 132.666 35.1242 133.098 34.7815C133.693 34.2951 134.368 33.9149 135.093 33.6575C135.784 33.3914 136.518 33.2544 137.258 33.2531C137.752 33.2394 137.951 33.3559 137.882 33.4244Z" fill="#263238"/>
<path d="M121.666 38.1056C121.709 38.4708 121.609 38.8385 121.386 39.1313C121.164 39.4241 120.836 39.6191 120.473 39.6752C120.117 39.7393 119.75 39.6599 119.452 39.4545C119.154 39.2491 118.949 38.9342 118.883 38.5785C118.836 38.2138 118.933 37.8451 119.155 37.5516C119.377 37.2582 119.705 37.0634 120.069 37.009C120.426 36.9429 120.794 37.0212 121.094 37.2269C121.393 37.4325 121.599 37.7485 121.666 38.1056Z" fill="#263238"/>
<path d="M123.139 36.2962C122.934 36.3784 121.878 35.7478 120.24 35.5079C118.602 35.268 117.32 35.5079 117.162 35.3983C117.005 35.2886 117.32 35.1721 117.848 35.0419C118.67 34.8786 119.515 34.8623 120.343 34.9939C121.145 35.1037 121.919 35.3642 122.625 35.7615C123.112 36.0426 123.269 36.2619 123.139 36.2962Z" fill="#263238"/>
<path d="M129.829 45.6178C130.594 45.2716 131.4 45.0251 132.228 44.8844C132.605 44.8022 132.961 44.6856 132.995 44.4115C132.983 44.0098 132.847 43.6218 132.605 43.3011C132.148 42.3873 131.654 41.4528 131.124 40.4978C129.068 36.5019 127.505 33.1983 127.697 33.1161C127.889 33.0338 129.671 36.2072 131.741 40.2031L133.173 43.027C133.471 43.4651 133.605 43.9942 133.55 44.5211C133.51 44.6634 133.438 44.7947 133.339 44.9051C133.241 45.0155 133.118 45.1021 132.981 45.1586C132.774 45.2397 132.558 45.295 132.337 45.3231C131.517 45.5256 130.674 45.6246 129.829 45.6178Z" fill="#263238"/>
<path d="M132.817 62.2044C127.697 62.9614 122.468 62.2483 117.738 60.1482C117.738 60.1482 122.241 67.8521 133.071 65.5492L132.817 62.2044Z" fill="#EB996E"/>
<path d="M130 49.312C129.631 48.8319 129.16 48.4405 128.62 48.1665C128.081 47.8925 127.486 47.7429 126.881 47.7288C126.532 47.7361 126.192 47.8494 125.908 48.0538C125.624 48.2582 125.409 48.544 125.291 48.8734C125.173 49.2989 125.159 49.7467 125.251 50.1787C125.343 50.6107 125.538 51.0141 125.819 51.3545C126.095 51.7148 126.471 51.9865 126.899 52.1363C127.328 52.286 127.791 52.3073 128.232 52.1976C128.947 51.9026 129.556 51.3985 129.979 50.7514C130.133 50.5866 130.244 50.3865 130.302 50.1688C130.327 50.0314 130.321 49.8903 130.286 49.7552C130.25 49.6202 130.185 49.4946 130.096 49.3874" fill="#EB996E"/>
<path d="M125.504 47.1805C125.751 47.1325 125.942 48.7706 127.478 49.7713C129.013 50.772 130.74 50.3882 130.781 50.6143C130.781 50.7171 130.432 50.9776 129.692 51.0873C128.734 51.212 127.764 50.996 126.95 50.4773C126.168 49.975 125.613 49.1884 125.401 48.284C125.257 47.578 125.394 47.1805 125.504 47.1805Z" fill="#263238"/>
<path d="M123.619 29.5588C123.475 29.9701 121.953 29.7987 120.192 30.0455C118.43 30.2922 116.977 30.7926 116.731 30.4293C116.621 30.2511 116.868 29.8604 117.416 29.4492C118.183 28.943 119.055 28.6182 119.965 28.4995C120.876 28.3807 121.802 28.4711 122.673 28.7638C123.345 29.0722 123.681 29.3601 123.619 29.5588Z" fill="#263238"/>
<path d="M137.964 30.0453C137.67 30.4223 136.34 30.2167 134.784 30.3743C133.228 30.532 131.94 30.9295 131.597 30.6005C131.439 30.4429 131.597 30.0728 132.152 29.6889C132.907 29.2053 133.767 28.9115 134.66 28.8328C135.553 28.754 136.451 28.8925 137.279 29.2366C137.868 29.5313 138.088 29.8603 137.964 30.0453Z" fill="#263238"/>
<path d="M96.0795 55.9055C96.3537 50.9363 97.1487 35.0281 100.356 26.351C103.564 17.6738 108.081 13.7876 112.728 11.9575C114.483 11.2076 116.402 10.9234 118.299 11.1323C120.196 11.3412 122.007 12.0363 123.557 13.1501C125.942 14.8362 127.327 20.388 127.327 20.388C127.327 20.388 116.052 24.2811 112.934 31.3544C109.321 39.4421 108.677 43.3763 108.677 43.3763L107.704 47.6875C107.704 47.6875 109.822 66.4264 110.774 70.3057L95.4901 85.083C95.9904 80.2029 95.8053 60.8678 96.0795 55.9055Z" fill="#263238"/>
<path d="M127.663 20.4156C127.663 20.4156 134.195 18.9419 137.491 26.1318C138.986 29.3875 140.466 39.2435 140.466 39.2435C140.466 39.2435 141.021 31.1901 140.158 26.8103C139.294 22.4306 136.45 17.0845 132.707 14.3772C128.965 11.6698 126.127 10.6486 120.274 11.6767C122.037 12.1174 123.637 13.0519 124.887 14.3703C125.771 15.4053 126.21 16.3237 127.663 20.4156Z" fill="#263238"/>
<path d="M108.801 43.9112C108.403 41.4986 105.579 40.1826 103.619 41.6425C102.543 42.4375 101.816 43.8769 102.214 46.4403C103.283 53.2943 109.911 50.7857 109.89 50.5938C109.87 50.4019 109.267 46.7282 108.801 43.9112Z" fill="#FFBE9D"/>
<path d="M107.402 48.3251C107.402 48.3251 107.3 48.4279 107.114 48.5512C106.848 48.7134 106.53 48.7697 106.223 48.7089C105.463 48.5581 104.681 47.5026 104.455 46.2826C104.345 45.7 104.369 45.1002 104.524 44.5279C104.552 44.3041 104.635 44.0907 104.765 43.9065C104.895 43.7224 105.069 43.5733 105.271 43.4724C105.403 43.4171 105.549 43.4086 105.687 43.4486C105.824 43.4885 105.943 43.5743 106.025 43.6917C106.148 43.87 106.121 44.007 106.162 44.0139C106.203 44.0207 106.292 43.8768 106.162 43.6026C106.098 43.4396 105.979 43.3039 105.826 43.2188C105.615 43.1072 105.369 43.0826 105.141 43.1503C104.868 43.2501 104.626 43.4177 104.437 43.6372C104.247 43.8566 104.117 44.1207 104.058 44.4046C103.861 45.0391 103.823 45.7123 103.948 46.3648C104.202 47.7356 105.106 48.9145 106.141 49.0447C106.332 49.069 106.526 49.0501 106.709 48.9897C106.891 48.9292 107.058 48.8285 107.197 48.6952C107.416 48.4896 107.43 48.3319 107.402 48.3251Z" fill="#EB996E"/>
<path d="M115.422 11.2037C115.422 11.2586 116.367 11.1215 117.875 11.1489C118.757 11.1662 119.632 11.3211 120.466 11.6081C121.48 11.9829 122.411 12.5508 123.208 13.2805C124.683 14.5988 125.832 16.241 126.566 18.0783C127.128 19.4491 127.252 20.4224 127.334 20.4087C127.324 20.1889 127.292 19.9708 127.238 19.7575C126.691 17.1897 125.337 14.8644 123.372 13.1228C122.55 12.3613 121.583 11.7738 120.528 11.3956C119.671 11.1089 118.772 10.9676 117.868 10.9775C117.263 10.9773 116.659 11.0162 116.059 11.0941C115.844 11.1129 115.631 11.1496 115.422 11.2037Z" fill="#455A64"/>
<path d="M103.023 49.5931C103.025 49.5543 103.025 49.5154 103.023 49.4766L102.927 49.1682C102.879 49.0242 102.831 48.8529 102.769 48.661L102.584 47.9756C102.21 46.4772 102.053 44.9331 102.118 43.3902C102.205 41.1016 102.768 38.8561 103.77 36.7967C105.051 34.3033 106.878 32.1314 109.116 30.443C110.264 29.5567 111.466 28.7419 112.714 28.003C113.921 27.2765 115.134 26.6733 116.258 26.0016C118.223 24.8024 120.093 23.4527 121.851 21.9646C123.352 20.6966 124.51 19.6068 125.278 18.8392C125.668 18.4553 125.963 18.1538 126.162 17.9413L126.388 17.7014C126.436 17.6466 126.463 17.6192 126.456 17.6123L126.374 17.6808L126.127 17.907L125.223 18.7912C124.421 19.5383 123.249 20.6075 121.734 21.8481C119.97 23.3115 118.101 24.6425 116.141 25.8303C115.031 26.5157 113.804 27.0845 112.591 27.8179C111.33 28.5565 110.119 29.3761 108.965 30.2717C106.69 31.9762 104.833 34.1773 103.537 36.7076C102.531 38.7958 101.98 41.0734 101.919 43.3902C101.872 44.9461 102.054 46.5004 102.461 48.003L102.666 48.6884C102.742 48.8803 102.803 49.0448 102.851 49.1887L102.975 49.4972C103.002 49.5588 103.016 49.5931 103.023 49.5931Z" fill="#455A64"/>
<path d="M101.138 47.1805C101.138 47.1805 101.138 47.1394 101.138 47.0709L101.097 46.7419C101.097 46.454 100.987 46.0565 100.932 45.4876C100.771 43.9438 100.745 42.3888 100.857 40.8406C101.024 38.5476 101.485 36.2857 102.228 34.1099C103.155 31.4526 104.51 28.964 106.237 26.7419C108.016 24.5458 110.092 22.6081 112.406 20.9845C114.462 19.4492 116.518 18.2429 118.156 17.16C119.794 16.077 121.158 15.2477 122.07 14.6171C122.529 14.3155 122.872 14.0619 123.105 13.8906L123.372 13.6987L123.461 13.6233C123.461 13.6233 123.42 13.6233 123.358 13.6781L123.077 13.8495L122.015 14.5349C121.097 15.1312 119.74 15.9742 118.06 17.0023C116.381 18.0304 114.38 19.2641 112.269 20.7994C109.95 22.4249 107.873 24.3701 106.1 26.5774C104.338 28.8207 102.96 31.3406 102.022 34.0345C101.27 36.2315 100.81 38.5172 100.651 40.8337C100.556 42.3888 100.609 43.9494 100.809 45.4944C100.877 46.0428 100.973 46.4608 101.021 46.7487C101.021 46.8789 101.069 46.9886 101.09 47.0709C101.11 47.1531 101.131 47.1805 101.138 47.1805Z" fill="#455A64"/>
<path d="M137.731 73.5752C137.731 73.5752 146.566 77.1667 148.259 81.7657C149.952 86.3648 162.796 124.343 162.796 124.343L147.889 130.059L141.09 98.8048L137.731 73.5752Z" fill="#455A64"/>
<path d="M92.0562 181.423C92.0562 181.423 183.215 177.235 188.938 178.743C194.661 180.251 198.081 183.136 199.219 189.997C200.356 196.858 217.93 287.756 217.93 287.756L201.947 292.458C201.947 292.458 179.52 241.258 178.567 232.691C177.615 224.123 174.455 206.563 174.455 206.563C174.455 206.563 139.801 207.132 114.284 206.563C88.7663 205.995 92.1933 182.376 92.1933 182.376L92.0562 181.423Z" fill="#FFBE9D"/>
<path d="M201.748 292.869L201.631 292.595C200.713 290.498 179.177 241.252 178.232 232.725C177.354 224.864 174.592 209.216 174.181 206.906C170.754 206.961 138.286 207.441 114.291 206.906C106.36 206.728 100.391 204.322 96.5319 199.765C90.6922 192.863 91.734 183.198 91.8643 182.383L91.6518 181.101H92.0356C95.7642 180.93 183.324 176.927 189.027 178.435C195.428 180.128 198.478 183.466 199.561 189.956C200.685 196.728 218.067 286.804 218.273 287.715L218.328 288.017L201.748 292.869ZM174.75 206.214L174.805 206.502C174.839 206.673 177.971 224.172 178.917 232.65C179.815 240.745 200.363 287.969 202.145 292.04L217.546 287.516C216.422 281.697 199.986 196.632 198.89 190.052C197.862 183.884 194.955 180.69 188.855 179.086C183.454 177.653 98.9239 181.464 92.4606 181.759L92.5634 182.383V182.431C92.5634 182.534 91.1926 192.396 97.0733 199.333C100.802 203.733 106.6 206.05 114.318 206.228C139.534 206.79 174.126 206.228 174.476 206.228L174.75 206.214Z" fill="#EB996E"/>
<path d="M98.2111 132.259L100.507 146.461C100.507 146.461 90.5346 165.357 89.4105 181.601C88.8759 189.319 93.3036 205.124 93.3036 205.124C93.3036 205.124 128.424 208.983 147.368 208.489L167.581 207.605L171.145 176.029L148.458 172.753L148.801 129.723C148.801 129.723 152.913 118.393 153.228 115.042C153.955 107.969 153.653 100.813 146.587 91.6423L137.731 73.5751L134.777 72.2043L136.182 94.0892L110.727 69.9014L97.8341 74.5278L94.1809 91.7657L98.2111 132.259Z" fill="#455A64"/>
<g opacity="0.3">
<path d="M142.337 177.982C140.685 178.27 128.766 178.442 127.114 178.73C126.833 178.816 126.538 178.844 126.246 178.812C125.953 178.78 125.671 178.689 125.415 178.544C125.208 178.349 125.065 178.097 125.004 177.819C124.943 177.542 124.967 177.252 125.072 176.989C125.291 176.458 125.634 175.988 126.073 175.618C128.958 172.876 132.707 171.293 136.354 169.744C137.519 169.257 138.78 168.757 140 169.058C140.598 169.256 141.139 169.597 141.576 170.051C142.013 170.504 142.333 171.058 142.509 171.663C142.856 172.871 143 174.129 142.934 175.385" fill="black"/>
</g>
<g opacity="0.3">
<path d="M99.1501 142.163C103.406 141.169 106.079 136.975 107.807 132.958C109.534 128.942 110.96 124.507 114.345 121.738C116.827 119.682 120.151 118.777 122.296 116.392C123.316 115.224 123.992 113.796 124.25 112.267C124.507 110.737 124.336 109.167 123.756 107.729C123.139 106.262 121.899 104.877 120.329 104.795C118.478 104.699 117.039 106.303 115.908 107.777C110.736 114.553 105.858 121.544 101.275 128.75C98.8142 132.622 96.3605 137.324 98.074 141.581" fill="black"/>
</g>
<path d="M99.1775 76.7898C99.1775 76.7898 91.9739 79.079 89.3694 83.5958C86.7649 88.1126 82.4469 110.045 81.4051 115.954C80.3633 121.862 75.3256 146.173 81.4051 149.997C87.4846 153.822 95.4764 147.941 97.56 144.439C99.6436 140.936 108.149 122.725 108.149 122.725L100.507 116.303C100.507 116.303 101.878 98.9351 101.378 95.2819C100.877 91.6287 99.1775 76.7898 99.1775 76.7898Z" fill="#FFBE9D"/>
<path d="M76.5867 121.882L93.3036 122.972L100.939 114.007L103.05 99.8879L102.488 72.8762C102.488 72.8762 87.5668 76.5157 84.3386 87.8591C81.9465 96.2415 76.5867 121.882 76.5867 121.882Z" fill="#455A64"/>
<path d="M106.169 89.9358C105.209 89.8056 103.982 90.9365 104.798 93.6644C105.483 95.9399 106.772 98.1538 106.676 99.4218C106.58 100.69 106.086 103.329 106.086 104.699C106.027 106.04 105.896 107.376 105.696 108.702L94.318 122.41L104.167 131.101L111.96 118.86C111.96 118.86 114.311 119.25 115.675 117.688L117.731 115.337C117.731 115.337 123.009 113.383 121.933 110.539C121.933 110.539 123.496 109.052 122.077 106.666C122.077 106.666 122.817 104.185 121.741 102.725C121.741 102.725 121.645 99.4012 120.761 98.8118C119.877 98.2223 110.733 98.1264 110.733 98.1264C110.235 96.6065 109.661 95.1128 109.013 93.6507C108.012 91.9989 107.505 90.114 106.169 89.9358Z" fill="#FFBE9D"/>
<path d="M110.062 103.418C110.062 103.452 109.822 103.322 109.609 103C109.332 102.565 109.212 102.05 109.266 101.538C109.321 101.026 109.548 100.548 109.911 100.183C110.185 99.9152 110.418 99.8329 110.439 99.8672C110.031 100.361 109.751 100.947 109.623 101.574C109.624 102.214 109.774 102.846 110.062 103.418Z" fill="#EB996E"/>
<path d="M121.357 102.479C119.979 102.88 118.561 103.131 117.128 103.226C115.708 103.432 114.269 103.48 112.838 103.37C114.246 103.124 115.667 102.957 117.094 102.869C118.506 102.658 119.93 102.527 121.357 102.479Z" fill="#EB996E"/>
<path d="M122.166 106.399C121.03 106.86 119.83 107.147 118.609 107.249C117.404 107.472 116.173 107.513 114.955 107.372C114.955 107.269 116.573 107.167 118.561 106.892C120.548 106.618 122.145 106.303 122.166 106.399Z" fill="#EB996E"/>
<path d="M121.967 110.422C120.194 110.966 118.329 111.15 116.484 110.964C117.386 110.766 118.303 110.649 119.225 110.614C120.132 110.471 121.049 110.407 121.967 110.422Z" fill="#EB996E"/>
<path d="M113.331 111.656C113.331 111.697 113.139 111.656 112.906 111.526C112.599 111.317 112.383 110.998 112.303 110.635C112.215 110.276 112.264 109.897 112.44 109.572C112.577 109.333 112.728 109.237 112.762 109.264C112.796 109.291 112.481 109.86 112.646 110.553C112.81 111.245 113.379 111.567 113.331 111.656Z" fill="#EB996E"/>
<path d="M111.083 108.393C111.083 108.428 110.857 108.311 110.644 108.017C110.372 107.627 110.215 107.169 110.192 106.694C110.164 106.218 110.268 105.743 110.493 105.323C110.679 105.008 110.857 104.871 110.891 104.898C110.681 105.465 110.566 106.062 110.548 106.666C110.636 107.266 110.816 107.849 111.083 108.393Z" fill="#EB996E"/>
<path d="M119.157 114.747C118.66 115.011 118.114 115.169 117.553 115.213C117.01 115.369 116.44 115.409 115.881 115.33C116.377 115.063 116.923 114.904 117.485 114.864C118.027 114.703 118.598 114.664 119.157 114.747Z" fill="#EB996E"/>
<path d="M114.75 98.188C114.75 98.2908 113.379 98.2908 111.645 98.4621C109.911 98.6335 108.574 98.9008 108.547 98.8048C109.518 98.3933 110.556 98.1611 111.611 98.1194C112.653 97.9563 113.716 97.9795 114.75 98.188Z" fill="#EB996E"/>
<path d="M144.846 131.135H201.501C202.501 131.135 203.46 131.532 204.167 132.239C204.874 132.946 205.271 133.905 205.271 134.905V175.063H141.09V134.898C141.092 133.902 141.488 132.947 142.191 132.242C142.895 131.537 143.85 131.139 144.846 131.135Z" fill="#E0E0E0"/>
<path d="M205.271 177.982H129.877C129.877 177.215 130.181 176.479 130.724 175.937C131.266 175.395 132.002 175.09 132.769 175.09H205.271V177.982Z" fill="#E0E0E0"/>
<path d="M202.899 133.959H143.036V175.09H202.899V133.959Z" fill="white"/>
<path d="M202.892 175.063C202.892 175.063 202.892 174.802 202.892 174.309C202.892 173.815 202.892 173.075 202.892 172.129C202.892 170.217 202.892 167.42 202.851 163.842C202.851 156.687 202.81 146.426 202.776 133.932L202.92 134.076H143.064L143.242 133.897C143.242 148.585 143.242 162.533 143.242 175.021L143.084 174.857L186.203 174.939L198.54 174.987H201.823H202.666H202.961H202.687H201.857H198.609L186.333 175.028L143.105 175.11H142.94V175.063C142.94 162.568 142.94 148.62 142.94 133.938V133.76H143.119H202.975H203.119V133.938C203.119 146.468 203.064 156.762 203.043 163.938C203.043 167.503 203.043 170.285 203.043 172.163C203.043 173.102 203.043 173.822 203.043 174.315C203.043 174.809 202.892 175.063 202.892 175.063Z" fill="#263238"/>
<path d="M204.955 175.062C204.955 175.165 188.773 175.241 168.814 175.241C148.855 175.241 132.666 175.165 132.666 175.062C132.666 174.96 148.849 174.884 168.814 174.884C188.78 174.884 204.955 174.994 204.955 175.062Z" fill="#263238"/>
<path d="M172.961 170.258C181.648 170.258 188.691 163.215 188.691 154.528C188.691 145.84 181.648 138.798 172.961 138.798C164.274 138.798 157.231 145.84 157.231 154.528C157.231 163.215 164.274 170.258 172.961 170.258Z" fill="#FF3D3D"/>
<path d="M163.187 154.912L166.518 151.759L171.117 155.995L180.171 147.475L183.461 150.587L171.069 162.348L163.187 154.912Z" fill="white"/>
<path d="M105.709 108.702C105.785 108.764 101.062 114.466 95.1611 121.43C89.2598 128.393 84.414 133.986 84.3386 133.938C84.2632 133.89 88.9856 128.181 94.8869 121.21C100.788 114.24 105.634 108.64 105.709 108.702Z" fill="#EB996E"/>
<path d="M104.894 99.8672C104.74 101.856 104.467 103.833 104.078 105.789C103.808 107.766 103.419 109.726 102.913 111.656C103.067 109.665 103.339 107.686 103.729 105.727C104.003 103.753 104.392 101.796 104.894 99.8672Z" fill="#263238"/>
<path d="M148.801 129.723C148.825 129.583 148.862 129.446 148.91 129.312L149.28 128.161C149.609 127.167 150.096 125.727 150.651 123.939C151.314 121.849 151.868 119.726 152.31 117.578C152.862 114.956 153.108 112.279 153.043 109.6C152.795 104.723 151.426 99.9683 149.04 95.7068C148.332 94.4092 147.554 93.1508 146.71 91.9371C146.422 91.5053 146.175 91.1832 146.025 90.957C145.936 90.8444 145.861 90.7226 145.798 90.5938C145.903 90.6885 145.997 90.7942 146.079 90.909C146.258 91.1284 146.525 91.4368 146.833 91.8617C147.724 93.0497 148.539 94.2928 149.273 95.5835C150.364 97.505 151.262 99.53 151.953 101.629C152.813 104.2 153.309 106.878 153.427 109.586C153.496 112.294 153.238 115 152.659 117.647C152.198 119.8 151.617 121.925 150.918 124.014C150.329 125.796 149.808 127.228 149.438 128.209C149.26 128.665 149.116 129.042 149.006 129.339C148.953 129.475 148.884 129.604 148.801 129.723Z" fill="#263238"/>
<path d="M134.236 108.38C134.264 108.699 134.264 109.02 134.236 109.339C134.235 109.716 134.207 110.091 134.154 110.463C134.104 110.961 134.029 111.455 133.927 111.944C133.818 112.537 133.671 113.123 133.489 113.699C133.296 114.366 133.067 115.023 132.803 115.666C132.171 117.116 131.385 118.495 130.459 119.778C129.51 121.059 128.423 122.231 127.217 123.274C126.689 123.725 126.135 124.146 125.559 124.535C125.065 124.885 124.55 125.203 124.016 125.487C123.574 125.743 123.116 125.972 122.646 126.173C122.309 126.337 121.961 126.477 121.604 126.591C121.307 126.713 121 126.807 120.685 126.872C120.651 126.797 121.967 126.392 123.859 125.289C124.376 124.991 124.877 124.666 125.36 124.315C125.894 123.959 126.408 123.507 126.971 123.047C129.332 120.97 131.205 118.395 132.454 115.508C132.715 114.881 132.944 114.24 133.139 113.589C133.329 113.022 133.486 112.446 133.612 111.862C134.181 109.751 134.167 108.38 134.236 108.38Z" fill="#263238"/>
<path d="M153.077 114.61C153.038 114.572 153.006 114.528 152.981 114.48L152.742 114.062C152.515 113.685 152.207 113.171 151.816 112.533C151.426 111.896 150.816 111.115 150.178 110.224C149.541 109.333 148.732 108.359 147.875 107.269C144.352 102.965 139.15 97.3106 133.187 91.2722C127.224 85.2339 121.624 79.97 117.519 76.1934L114.722 73.6917C113.9 72.9652 113.187 72.3209 112.591 71.8274L111.22 70.6691L110.87 70.3607C110.825 70.3286 110.786 70.2892 110.754 70.2441C110.803 70.2683 110.849 70.2982 110.891 70.3332C110.994 70.4086 111.117 70.4977 111.261 70.6143L112.673 71.7177L114.846 73.5409C115.689 74.2674 116.635 75.0968 117.676 76.0084C121.837 79.7095 127.45 84.9666 133.441 90.9981C139.431 97.0296 144.592 102.732 148.067 107.084C148.917 108.188 149.685 109.182 150.343 110.073L151.933 112.431C152.296 113.116 152.618 113.609 152.803 114L153.023 114.411C153.068 114.544 153.087 114.61 153.077 114.61Z" fill="#263238"/>
<path d="M139.767 146.317C139.641 146.361 139.509 146.386 139.376 146.392L138.259 146.55C137.286 146.68 135.867 146.831 134.147 146.988C130.644 147.304 125.785 147.557 120.439 147.496C115.093 147.434 110.212 147.043 106.731 146.646C104.983 146.447 103.571 146.255 102.618 146.097L101.501 145.919C101.37 145.905 101.241 145.875 101.117 145.83C101.249 145.813 101.383 145.813 101.515 145.83L102.639 145.947C103.612 146.063 105.031 146.214 106.751 146.378C110.24 146.714 115.086 147.064 120.459 147.126C125.833 147.187 130.665 146.968 134.167 146.721C135.915 146.598 137.334 146.488 138.28 146.399L139.404 146.31C139.525 146.3 139.646 146.302 139.767 146.317Z" fill="#263238"/>
<path d="M169.452 131.087C169.452 131.087 180.679 126.707 181.741 126.358C182.803 126.008 192.618 125.241 192.618 125.241L205.271 129.785C205.271 129.785 205.387 132.383 202.433 132.033C199.829 131.593 197.261 130.961 194.75 130.141L192.975 131.197L169.452 131.087Z" fill="#FFBE9D"/>
<path d="M204.661 132.753C204.955 133.349 205.723 133.438 206.313 133.753C206.858 134.072 207.304 134.535 207.603 135.091C207.902 135.648 208.041 136.276 208.005 136.906C207.907 138.167 207.489 139.381 206.792 140.436C206.578 140.862 206.269 141.233 205.888 141.519C205.692 141.655 205.46 141.727 205.223 141.727C204.985 141.727 204.753 141.655 204.558 141.519C204.371 141.291 204.245 141.019 204.192 140.729C204.139 140.439 204.161 140.14 204.256 139.86C204.62 137.674 204.147 134.905 204.661 132.746" fill="#FFBE9D"/>
<path d="M217.382 284.364L217.766 285.433C217.766 285.433 238.602 286.248 240.027 289.634L203.783 302.369L200.034 290.135C206.306 290.738 212.042 289.038 217.382 284.364Z" fill="#455A64"/>
<g opacity="0.6">
<path d="M205.065 292.698C204.753 292.927 204.536 293.264 204.457 293.643C204.377 294.023 204.44 294.418 204.633 294.754C204.852 295.08 205.188 295.309 205.571 295.392C205.955 295.475 206.356 295.406 206.69 295.199C207.02 294.957 207.249 294.601 207.331 294.199C207.413 293.797 207.344 293.38 207.135 293.027C206.874 292.718 206.503 292.522 206.101 292.48C205.699 292.438 205.296 292.553 204.976 292.801" fill="white"/>
</g>
<g opacity="0.6">
<path d="M203.783 302.369L202.886 299.429L237.951 288.298C237.951 288.298 239.808 288.435 240.007 289.668L203.783 302.369Z" fill="white"/>
</g>
<path d="M217.93 285.494C217.985 285.673 217.128 286.063 216.456 286.941C215.785 287.818 215.586 288.723 215.401 288.709C215.216 288.695 215.113 287.578 215.942 286.536C216.772 285.494 217.91 285.316 217.93 285.494Z" fill="#263238"/>
<path d="M222.282 285.727C222.385 285.885 221.72 286.454 221.384 287.413C221.049 288.373 221.151 289.23 220.973 289.285C220.795 289.339 220.329 288.373 220.774 287.187C221.22 286.002 222.221 285.563 222.282 285.727Z" fill="#263238"/>
<path d="M226.038 289.524C225.894 289.62 225.353 288.839 225.449 287.694C225.545 286.55 226.258 285.892 226.381 286.008C226.504 286.125 226.182 286.831 226.1 287.756C226.018 288.681 226.21 289.442 226.038 289.524Z" fill="#263238"/>
</svg>
