<svg width="22" height="10" viewBox="0 0 22 10" fill="none" xmlns="http://www.w3.org/2000/svg">
<path d="M7.20995 2.19175L12.8835 2.19175L12.8835 5.59563L10.5033 5.59563L12.8835 7.77402L10.8615 7.77402L8.5273 5.59563L8.5273 7.77402L7.20996 7.77402L7.20995 4.31366L11.3697 4.31366L11.3697 3.48535L7.20995 3.48535L7.20995 2.19175Z" fill="black"/>
<path d="M13.4727 7.77402L14.8592 7.77402L14.8592 2.18044L13.4726 2.18044L13.4727 7.77402Z" fill="black"/>
<path d="M2.36867 6.42386L2.36866 2.19175L1.28251 2.19175C1.08609 2.19175 0.935853 2.33936 0.935853 2.52067C0.935855 3.51945 0.924314 6.45791 0.924316 7.43363C0.924316 7.61517 1.07455 7.77402 1.25943 7.77402C2.01047 7.77402 4.17116 7.77402 4.48301 7.77402L4.483 6.42386L2.36867 6.42386Z" fill="black"/>
<path d="M5.19971 9.16962C5.32697 9.16962 6.29749 9.16962 6.62113 9.16962C6.62113 9.16962 6.62113 6.41254 6.62113 6.36717C6.15884 6.36717 5.67378 6.36717 5.1997 6.36717C5.1997 7.29752 5.19971 8.22787 5.19971 9.16962Z" fill="black"/>
<path d="M3.062 2.19175C3.062 2.21461 3.06201 3.58723 3.06201 3.58723C3.69754 3.58723 4.50624 3.58723 5.19947 3.58723C5.19948 4.55192 5.19948 5.67505 5.19948 5.67505C5.52312 5.67505 6.49364 5.67505 6.62091 5.67505L6.6209 2.5323C6.6209 2.35059 6.47046 2.20298 6.28587 2.19175C5.59264 2.19175 3.95166 2.19175 3.062 2.19175Z" fill="black"/>
<path d="M3.06201 4.26793C3.06201 4.73322 3.06201 5.19852 3.06201 5.68628C3.17756 5.68628 3.30466 5.68628 3.42021 5.68628C3.7439 5.68628 4.14805 5.68628 4.47169 5.68628C4.47169 5.68628 4.47169 4.29079 4.47169 4.26793C4.0094 4.26793 3.53576 4.26793 3.06201 4.26793ZM4.05575 5.25508C3.9171 5.25508 3.75528 5.25508 3.62802 5.25508C3.58199 5.25508 3.53577 5.25508 3.47799 5.25508C3.47799 5.06214 3.47799 4.88084 3.47799 4.6879C3.67437 4.6879 3.85937 4.6879 4.05575 4.6879C4.05575 4.69913 4.05575 5.25508 4.05575 5.25508Z" fill="black"/>
<path d="M21.6648 6.36711L21.6648 8.45476C21.6648 8.63627 21.503 8.7838 21.3184 8.7838L19.1924 8.7838L19.1924 9.12415L21.6648 9.12415L21.6766 9.12415C21.8498 9.12415 21.9999 8.97666 21.9999 8.79511L21.9999 8.7838L21.9999 6.36711L21.6648 6.36711Z" fill="black"/>
<path d="M0.346656 3.57602L0.346652 1.4882C0.346651 1.3069 0.485297 1.17052 0.670172 1.17052L2.79625 1.17052C2.8078 1.17052 2.8078 1.15929 2.8078 1.15929L2.8078 0.841603C2.8078 0.841603 2.8078 0.830372 2.79625 0.830372L0.34665 0.830371C0.150228 0.830371 -5.24637e-06 0.977983 -4.85924e-06 1.17052L-2.25823e-08 3.57602C0 3.58725 0.011547 3.58725 0.011547 3.58725L0.335109 3.58725C0.335109 3.58725 0.346656 3.58725 0.346656 3.57602Z" fill="black"/>
<path d="M21.0639 3.57604L21.0639 2.19178L15.4599 2.19178L15.46 4.26796L15.46 5.66385L19.1924 5.66385L19.1924 6.35582L15.46 6.35582L15.46 7.75134L21.0639 7.75134L21.0639 4.27959L17.3319 4.27959L17.3319 3.57603L21.0639 3.57604Z" fill="black"/>
</svg>
